<?xml version="1.0" standalone="no"?>
<!DOCTYPE svg PUBLIC "-//W3C//DTD SVG 1.1//EN" "http://www.w3.org/Graphics/SVG/1.1/DTD/svg11.dtd" >
<svg>
<metadata>
Created by FontForge 20120731 at Thu Jan 12 09:31:29 2023
 By fw_worker
Copyright (c)  2020-2021  Beijing Xiaomi Mobile Software Co.,Ltd. All Rights Reserved.
</metadata>
<defs>
<font id="MiSans-Regular" horiz-adv-x="1000" vert-adv-y="1000" >
  <font-face 
    font-family="MiSans"
    font-weight="400"
    font-stretch="normal"
    units-per-em="1000"
    panose-1="0 0 5 0 0 0 0 0 0 0"
    ascent="890"
    descent="-110"
    x-height="530"
    cap-height="760"
    bbox="-220 -256 1000 993"
    underline-thickness="50"
    underline-position="-50"
    unicode-range="U+000D-FF1F"
  />
<missing-glyph horiz-adv-x="600" 
 />
    <glyph glyph-name=".notdef" horiz-adv-x="600" 
 />
    <glyph glyph-name="uni000D" unicode="&#xd;" horiz-adv-x="0" 
 />
    <glyph glyph-name="space" unicode=" " horiz-adv-x="358" 
 />
    <glyph glyph-name="A" unicode="A" horiz-adv-x="666" 
d="M653 0h-92l-91 257h-274l-91 -257h-92l275 760h90zM330 634l-105 -295h216l-105 295h-6z" />
    <glyph glyph-name="Aacute" unicode="&#xc1;" horiz-adv-x="666" 
d="M367 964l65 -59l-126 -110l-44 35zM653 0h-92l-91 257h-274l-91 -257h-92l275 760h90zM330 634l-105 -295h216l-105 295h-6z" />
    <glyph glyph-name="Acircumflex" unicode="&#xc2;" horiz-adv-x="666" 
d="M426 791l-93 72l-92 -72l-44 34l97 110h78l97 -110zM653 0h-92l-91 257h-274l-91 -257h-92l275 760h90zM330 634l-105 -295h216l-105 295h-6z" />
    <glyph glyph-name="Adieresis" unicode="&#xc4;" horiz-adv-x="666" 
d="M181.5 821q-15.5 15 -15.5 41t15.5 41.5t41.5 15.5t41 -15.5t15 -41.5t-15 -41t-41 -15t-41.5 15zM402.5 821q-15.5 15 -15.5 41t15.5 41.5t41.5 15.5t41 -15.5t15 -41.5t-15 -41t-41 -15t-41.5 15zM653 0h-92l-91 257h-274l-91 -257h-92l275 760h90zM330 634l-105 -295
h216l-105 295h-6z" />
    <glyph glyph-name="Agrave" unicode="&#xc0;" horiz-adv-x="666" 
d="M299 964l105 -134l-44 -35l-126 110zM653 0h-92l-91 257h-274l-91 -257h-92l275 760h90zM330 634l-105 -295h216l-105 295h-6z" />
    <glyph glyph-name="Aring" unicode="&#xc5;" horiz-adv-x="666" 
d="M259.5 816.5q-30.5 30.5 -30.5 73.5t30.5 73t73.5 30t72.5 -30t29.5 -73q0 -44 -29.5 -74t-72.5 -30t-73.5 30.5zM293.5 929q-16.5 -16 -16.5 -39t16.5 -39t39.5 -16q22 0 38 16t16 39q0 22 -16 38.5t-38 16.5q-23 0 -39.5 -16zM653 0h-92l-91 257h-274l-91 -257h-92
l275 760h90zM330 634l-105 -295h216l-105 295h-6z" />
    <glyph glyph-name="Atilde" unicode="&#xc3;" horiz-adv-x="666" 
d="M257 838.5q-13 -13.5 -21 -34.5l-50 20q11 45 36.5 70t54.5 25q26 0 40.5 -7.5t30.5 -22.5q10 -9 17.5 -13.5t17.5 -4.5q13 0 26 13.5t21 34.5l49 -20q-12 -45 -37.5 -70t-52.5 -25t-42.5 8t-30.5 22q-10 9 -17.5 13.5t-17.5 4.5q-11 0 -24 -13.5zM653 0h-92l-91 257
h-274l-91 -257h-92l275 760h90zM330 634l-105 -295h216l-105 295h-6z" />
    <glyph glyph-name="AE" unicode="&#xc6;" horiz-adv-x="1015" 
d="M613 355v-273h355v-82h-442v257h-259l-155 -257h-99l456 760h486v-82h-342v-242h322v-81h-322zM521 678l-205 -340h210v340h-5z" />
    <glyph glyph-name="B" unicode="B" horiz-adv-x="668" 
d="M442 397q79 -11 124 -58t45 -118q0 -106 -78 -163.5t-224 -57.5h-230v760h229q128 0 197 -50.5t69 -143.5q0 -61 -35 -103.5t-97 -59.5v-6zM165 678v-239h134q88 0 136 33t48 93q0 54 -48.5 83.5t-137.5 29.5h-132zM297 82q108 0 166 37t58 107q0 64 -57.5 97.5
t-164.5 33.5h-134v-275h132z" />
    <glyph glyph-name="C" unicode="C" horiz-adv-x="703" 
d="M656 119q-40 -62 -107 -97.5t-149 -35.5q-102 0 -180 50t-120.5 140t-42.5 208q0 116 42.5 204.5t120.5 137t180 48.5q82 0 150 -36t106 -97l-69 -48q-30 45 -82.5 72t-105.5 27q-75 0 -132 -38.5t-88.5 -108.5t-31.5 -161q0 -93 31.5 -164.5t88.5 -111.5t132 -40
q53 0 104 27.5t84 73.5z" />
    <glyph glyph-name="Ccedilla" unicode="&#xc7;" horiz-adv-x="703" 
d="M503 95.5q51 27.5 84 73.5l69 -50q-36 -55 -94.5 -90t-130.5 -42l-8 -31q6 1 16 1q41 0 66 -23t25 -63q0 -57 -43.5 -87t-124.5 -29l-11 49q50 4 76.5 19t26.5 38q0 38 -43 38q-24 0 -49 -15l-29 17l26 87q-91 10 -159.5 62t-105.5 138t-37 196q0 116 42.5 204.5
t120.5 137t180 48.5q82 0 150 -36t106 -97l-69 -48q-30 45 -82.5 72t-105.5 27q-75 0 -132 -38.5t-88.5 -108.5t-31.5 -161q0 -93 31.5 -164.5t88.5 -111.5t132 -40q53 0 104 27.5z" />
    <glyph glyph-name="D" unicode="D" horiz-adv-x="745" 
d="M79 0v760h241q117 0 199.5 -46t125.5 -131.5t43 -202.5t-45 -202.5t-131.5 -131.5t-208.5 -46h-224zM303 82q143 0 219 77t76 221t-74 221t-213 77h-146v-596h138z" />
    <glyph glyph-name="Eth" unicode="&#xd0;" horiz-adv-x="756" 
d="M342 760q117 0 199.5 -46t125.5 -131.5t43 -202.5t-45 -202.5t-131.5 -131.5t-208.5 -46h-224v355h-91v81h91v324h241zM325 82q143 0 219 77t76 221t-74 221t-213 77h-146v-242h203v-81h-203v-273h138z" />
    <glyph glyph-name="E" unicode="E" horiz-adv-x="597" 
d="M165 355v-273h385v-82h-471v760h458v-82h-372v-242h351v-81h-351z" />
    <glyph glyph-name="Eacute" unicode="&#xc9;" horiz-adv-x="597" 
d="M240 830l105 134l65 -59l-126 -110zM165 355v-273h385v-82h-471v760h458v-82h-372v-242h351v-81h-351z" />
    <glyph glyph-name="Ecircumflex" unicode="&#xca;" horiz-adv-x="597" 
d="M219 791l-44 34l97 110h78l97 -110l-43 -34l-93 72zM165 355v-273h385v-82h-471v760h458v-82h-372v-242h351v-81h-351z" />
    <glyph glyph-name="Edieresis" unicode="&#xcb;" horiz-adv-x="597" 
d="M242 821q-15 -15 -41 -15t-41.5 15t-15.5 41t15.5 41.5t41.5 15.5t41 -15.5t15 -41.5t-15 -41zM463 821q-15 -15 -41 -15t-41.5 15t-15.5 41t15.5 41.5t41.5 15.5t41 -15.5t15 -41.5t-15 -41zM165 355v-273h385v-82h-471v760h458v-82h-372v-242h351v-81h-351z" />
    <glyph glyph-name="Egrave" unicode="&#xc8;" horiz-adv-x="597" 
d="M212 905l65 59l105 -134l-44 -35zM165 355v-273h385v-82h-471v760h458v-82h-372v-242h351v-81h-351z" />
    <glyph glyph-name="F" unicode="F" horiz-adv-x="575" 
d="M165 340v-340h-86v760h449v-82h-363v-256h337v-82h-337z" />
    <glyph glyph-name="G" unicode="G" horiz-adv-x="738" 
d="M266.5 653.5q-57.5 -38.5 -89 -109t-31.5 -164.5q0 -95 30.5 -165.5t86.5 -108.5t131 -38q59 0 104.5 24t83.5 67v161h-180v82h267v-273q-112 -143 -275 -143q-103 0 -179 48t-117 137t-41 209t41.5 209t119 137t182.5 48q81 0 147.5 -36.5t107.5 -98.5l-70 -49
q-34 46 -83 74t-102 28q-76 0 -133.5 -38.5z" />
    <glyph glyph-name="H" unicode="H" horiz-adv-x="719" 
d="M554 433v327h86v-760h-86v352h-389v-352h-86v760h86v-327h389z" />
    <glyph glyph-name="I" unicode="I" horiz-adv-x="244" 
d="M165 760v-760h-86v760h86z" />
    <glyph glyph-name="Iacute" unicode="&#xcd;" horiz-adv-x="244" 
d="M51 830l105 134l65 -59l-126 -110zM165 760v-760h-86v760h86z" />
    <glyph glyph-name="Icircumflex" unicode="&#xce;" horiz-adv-x="244" 
d="M30 791l-44 34l97 110h78l97 -110l-43 -34l-93 72zM165 760v-760h-86v760h86z" />
    <glyph glyph-name="Idieresis" unicode="&#xcf;" horiz-adv-x="244" 
d="M53 821q-15 -15 -41 -15t-41.5 15t-15.5 41t15.5 41.5t41.5 15.5t41 -15.5t15 -41.5t-15 -41zM274 821q-15 -15 -41 -15t-41.5 15t-15.5 41t15.5 41.5t41.5 15.5t41 -15.5t15 -41.5t-15 -41zM165 760v-760h-86v760h86z" />
    <glyph glyph-name="Igrave" unicode="&#xcc;" horiz-adv-x="244" 
d="M23 905l65 59l105 -134l-44 -35zM165 760v-760h-86v760h86z" />
    <glyph glyph-name="J" unicode="J" horiz-adv-x="482" 
d="M91.5 25q-48.5 39 -71.5 103l83 40q16 -48 44 -74t64 -26q51 0 78 42t27 121v529h87v-545q0 -110 -50 -169.5t-142 -59.5q-71 0 -119.5 39z" />
    <glyph glyph-name="K" unicode="K" horiz-adv-x="653" 
d="M638 0h-112l-320 364l-41 -40v-324h-86v760h86v-325l328 325h117l-343 -336z" />
    <glyph glyph-name="L" unicode="L" horiz-adv-x="566" 
d="M165 760v-678h378v-82h-464v760h86z" />
    <glyph glyph-name="glyph32" horiz-adv-x="548" 
d="M165 760v-678h378v-82h-464v760h86zM395.5 379.5q-15.5 -15.5 -41.5 -15.5t-41 15.5t-15 41.5t15.5 41t40.5 15q26 0 41.5 -15t15.5 -41t-15.5 -41.5z" />
    <glyph glyph-name="M" unicode="M" horiz-adv-x="878" 
d="M165 0h-86v760h88l269 -461h6l269 461h88v-760h-86v590h-6l-243 -417h-50l-243 417h-6v-590z" />
    <glyph glyph-name="N" unicode="N" horiz-adv-x="734" 
d="M165 0h-86v760h88l397 -604h5v604h86v-760h-88l-396 605h-6v-605z" />
    <glyph glyph-name="Ntilde" unicode="&#xd1;" horiz-adv-x="734" 
d="M221 824q11 45 36.5 70t54.5 25q26 0 40.5 -7.5t30.5 -22.5q10 -9 17.5 -13.5t17.5 -4.5q13 0 26 13.5t21 34.5l49 -20q-12 -45 -37.5 -70t-52.5 -25t-42.5 8t-30.5 22q-10 9 -17.5 13.5t-17.5 4.5q-11 0 -24 -13.5t-21 -34.5zM165 0h-86v760h88l397 -604h5v604h86v-760
h-88l-396 605h-6v-605z" />
    <glyph glyph-name="O" unicode="O" horiz-adv-x="786" 
d="M215 34.5q-76 48.5 -117 137.5t-41 208q0 120 41 209t117 137t178 48t178 -48t117 -137t41 -209q0 -119 -41 -208t-117 -137.5t-178 -48.5t-178 48.5zM523 106q56 38 86.5 108.5t30.5 165.5t-30.5 165.5t-86.5 108.5t-130 38q-75 0 -131 -38t-86 -108.5t-30 -165.5
t30 -165.5t86 -108.5t131 -38q74 0 130 38z" />
    <glyph glyph-name="Oacute" unicode="&#xd3;" horiz-adv-x="786" 
d="M322 830l105 134l65 -59l-126 -110zM215 34.5q-76 48.5 -117 137.5t-41 208q0 120 41 209t117 137t178 48t178 -48t117 -137t41 -209q0 -119 -41 -208t-117 -137.5t-178 -48.5t-178 48.5zM523 106q56 38 86.5 108.5t30.5 165.5t-30.5 165.5t-86.5 108.5t-130 38
q-75 0 -131 -38t-86 -108.5t-30 -165.5t30 -165.5t86 -108.5t131 -38q74 0 130 38z" />
    <glyph glyph-name="Ocircumflex" unicode="&#xd4;" horiz-adv-x="786" 
d="M301 791l-44 34l97 110h78l97 -110l-43 -34l-93 72zM215 34.5q-76 48.5 -117 137.5t-41 208q0 120 41 209t117 137t178 48t178 -48t117 -137t41 -209q0 -119 -41 -208t-117 -137.5t-178 -48.5t-178 48.5zM523 106q56 38 86.5 108.5t30.5 165.5t-30.5 165.5t-86.5 108.5
t-130 38q-75 0 -131 -38t-86 -108.5t-30 -165.5t30 -165.5t86 -108.5t131 -38q74 0 130 38z" />
    <glyph glyph-name="Odieresis" unicode="&#xd6;" horiz-adv-x="786" 
d="M324 821q-15 -15 -41 -15t-41.5 15t-15.5 41t15.5 41.5t41.5 15.5t41 -15.5t15 -41.5t-15 -41zM545 821q-15 -15 -41 -15t-41.5 15t-15.5 41t15.5 41.5t41.5 15.5t41 -15.5t15 -41.5t-15 -41zM215 34.5q-76 48.5 -117 137.5t-41 208q0 120 41 209t117 137t178 48t178 -48
t117 -137t41 -209q0 -119 -41 -208t-117 -137.5t-178 -48.5t-178 48.5zM523 106q56 38 86.5 108.5t30.5 165.5t-30.5 165.5t-86.5 108.5t-130 38q-75 0 -131 -38t-86 -108.5t-30 -165.5t30 -165.5t86 -108.5t131 -38q74 0 130 38z" />
    <glyph glyph-name="Ograve" unicode="&#xd2;" horiz-adv-x="786" 
d="M294 905l65 59l105 -134l-44 -35zM215 34.5q-76 48.5 -117 137.5t-41 208q0 120 41 209t117 137t178 48t178 -48t117 -137t41 -209q0 -119 -41 -208t-117 -137.5t-178 -48.5t-178 48.5zM523 106q56 38 86.5 108.5t30.5 165.5t-30.5 165.5t-86.5 108.5t-130 38
q-75 0 -131 -38t-86 -108.5t-30 -165.5t30 -165.5t86 -108.5t131 -38q74 0 130 38z" />
    <glyph glyph-name="Oslash" unicode="&#xd8;" horiz-adv-x="769" 
d="M753 788l-104 -135q80 -103 80 -273q0 -119 -41 -208t-117 -137.5t-178 -48.5q-122 0 -205 68l-103 -134l-65 52l110 143q-73 104 -73 265q0 120 41 209t117 137t178 48q115 0 197 -62l98 127zM188 190l349 453q-60 49 -144 49q-75 0 -131 -38t-86 -108.5t-30 -165.5
q0 -111 42 -190zM592 579l-351 -456q61 -55 152 -55q74 0 130 38t86.5 108.5t30.5 165.5q0 120 -48 199z" />
    <glyph glyph-name="Otilde" unicode="&#xd5;" horiz-adv-x="786" 
d="M246 824q11 45 36.5 70t54.5 25q26 0 40.5 -7.5t30.5 -22.5q10 -9 17.5 -13.5t17.5 -4.5q13 0 26 13.5t21 34.5l49 -20q-12 -45 -37.5 -70t-52.5 -25t-42.5 8t-30.5 22q-10 9 -17.5 13.5t-17.5 4.5q-11 0 -24 -13.5t-21 -34.5zM215 34.5q-76 48.5 -117 137.5t-41 208
q0 120 41 209t117 137t178 48t178 -48t117 -137t41 -209q0 -119 -41 -208t-117 -137.5t-178 -48.5t-178 48.5zM523 106q56 38 86.5 108.5t30.5 165.5t-30.5 165.5t-86.5 108.5t-130 38q-75 0 -131 -38t-86 -108.5t-30 -165.5t30 -165.5t86 -108.5t131 -38q74 0 130 38z" />
    <glyph glyph-name="P" unicode="P" horiz-adv-x="624" 
d="M306 760q137 0 211 -60.5t74 -172.5t-72 -172t-205 -60h-149v-295h-86v760h227zM298 376q98 0 151 39t53 112t-53 112t-151 39h-133v-302h133z" />
    <glyph glyph-name="Thorn" unicode="&#xde;" horiz-adv-x="648" 
d="M306 612q137 0 211 -60t74 -172t-72 -172t-205 -60h-149v-148h-86v760h86v-148h141zM298 229q98 0 151 39t53 112t-53 112t-151 39h-133v-302h133z" />
    <glyph glyph-name="Q" unicode="Q" horiz-adv-x="786" 
d="M704 210.5q-25 -75.5 -73 -126.5l98 -115l-66 -56l-99 116q-75 -43 -171 -43q-103 0 -178.5 48t-116.5 137t-41 209q0 119 41 208t116.5 137t178.5 48t178.5 -48t116.5 -137t41 -208q0 -94 -25 -169.5zM507 96l-73 85l65 57l73 -86q68 83 68 228q0 95 -30.5 165.5
t-86.5 108.5t-130 38q-75 0 -131 -38t-86 -108.5t-30 -165.5t30 -165.5t86 -108.5t131 -38q63 0 114 28z" />
    <glyph glyph-name="R" unicode="R" horiz-adv-x="634" 
d="M614 0h-101l-190 322h-18h-140v-322h-86v760h217q137 0 211 -58t74 -164q0 -80 -43.5 -132t-125.5 -72zM289 404q98 0 150.5 35t52.5 99q0 67 -52.5 103.5t-150.5 36.5h-124v-274h124z" />
    <glyph glyph-name="S" unicode="S" horiz-adv-x="605" 
d="M142 25.5q-72 39.5 -114 112.5l74 45q33 -57 84 -86t117 -29q48 0 87 16.5t61 45.5t22 65q0 38 -19.5 64t-60 45.5t-109.5 39.5q-75 22 -123 43.5t-81 63.5t-33 111q0 61 32.5 109.5t91 75.5t134.5 27q85 0 147 -35t102 -99l-68 -49q-33 47 -80.5 74t-102.5 27
q-47 0 -85.5 -16.5t-60.5 -44.5t-22 -62q0 -45 25 -73.5t63 -44t102 -32.5q72 -20 122 -44t82 -67t32 -110q0 -64 -32 -112t-90.5 -74t-136.5 -26q-88 0 -160 39.5z" />
    <glyph glyph-name="T" unicode="T" horiz-adv-x="604" 
d="M346 0h-87v678h-236v82h558v-82h-235v-678z" />
    <glyph glyph-name="U" unicode="U" horiz-adv-x="703" 
d="M487 124.5q50 56.5 50 154.5v481h87v-488q0 -87 -33 -151.5t-95 -99.5t-145 -35t-144.5 35t-94.5 99.5t-33 151.5v488h86v-477q0 -99 50 -157t136 -58t136 56.5z" />
    <glyph glyph-name="Uacute" unicode="&#xda;" horiz-adv-x="703" 
d="M280 830l105 134l65 -59l-126 -110zM487 124.5q50 56.5 50 154.5v481h87v-488q0 -87 -33 -151.5t-95 -99.5t-145 -35t-144.5 35t-94.5 99.5t-33 151.5v488h86v-477q0 -99 50 -157t136 -58t136 56.5z" />
    <glyph glyph-name="Ucircumflex" unicode="&#xdb;" horiz-adv-x="703" 
d="M259 791l-44 34l97 110h78l97 -110l-43 -34l-93 72zM487 124.5q50 56.5 50 154.5v481h87v-488q0 -87 -33 -151.5t-95 -99.5t-145 -35t-144.5 35t-94.5 99.5t-33 151.5v488h86v-477q0 -99 50 -157t136 -58t136 56.5z" />
    <glyph glyph-name="Udieresis" unicode="&#xdc;" horiz-adv-x="703" 
d="M282 821q-15 -15 -41 -15t-41.5 15t-15.5 41t15.5 41.5t41.5 15.5t41 -15.5t15 -41.5t-15 -41zM503 821q-15 -15 -41 -15t-41.5 15t-15.5 41t15.5 41.5t41.5 15.5t41 -15.5t15 -41.5t-15 -41zM487 124.5q50 56.5 50 154.5v481h87v-488q0 -87 -33 -151.5t-95 -99.5
t-145 -35t-144.5 35t-94.5 99.5t-33 151.5v488h86v-477q0 -99 50 -157t136 -58t136 56.5z" />
    <glyph glyph-name="Ugrave" unicode="&#xd9;" horiz-adv-x="703" 
d="M252 905l65 59l105 -134l-44 -35zM487 124.5q50 56.5 50 154.5v481h87v-488q0 -87 -33 -151.5t-95 -99.5t-145 -35t-144.5 35t-94.5 99.5t-33 151.5v488h86v-477q0 -99 50 -157t136 -58t136 56.5z" />
    <glyph glyph-name="V" unicode="V" horiz-adv-x="666" 
d="M288 0l-275 760h93l224 -634h6l224 634h93l-275 -760h-90z" />
    <glyph glyph-name="W" unicode="W" horiz-adv-x="966" 
d="M219 0l-206 760h92l161 -603h6l166 603h90l167 -603h5l161 603h92l-206 -760h-90l-171 610h-6l-171 -610h-90z" />
    <glyph glyph-name="X" unicode="X" horiz-adv-x="634" 
d="M367 400l250 -400h-104l-199 328l-192 -328h-105l250 404l-233 356h103l185 -289l176 289h102z" />
    <glyph glyph-name="Y" unicode="Y" horiz-adv-x="625" 
d="M269 307l-256 453h100l197 -365h5l197 365h100l-256 -453v-307h-87v307z" />
    <glyph glyph-name="Yacute" unicode="&#xdd;" horiz-adv-x="625" 
d="M242 830l105 134l65 -59l-126 -110zM269 307l-256 453h100l197 -365h5l197 365h100l-256 -453v-307h-87v307z" />
    <glyph glyph-name="Z" unicode="Z" horiz-adv-x="594" 
d="M546 694l-401 -612h417v-82h-530v66l401 612h-390v82h503v-66z" />
    <glyph glyph-name="a" unicode="a" horiz-adv-x="534" 
d="M91.5 26.5q-45.5 40.5 -45.5 107.5q0 172 262 172h76v43q0 54 -33 86.5t-87 32.5q-67 0 -134 -58l-49 56q80 78 187 78q92 0 145.5 -50t53.5 -135v-359h-83v76h-6q-22 -40 -68 -65t-96 -25q-77 0 -122.5 40.5zM298 77q36 15 61 46.5t25 78.5v28h-60q-99 0 -146 -22.5
t-47 -68.5q0 -35 26.5 -56t71.5 -21q33 0 69 15z" />
    <glyph glyph-name="aacute" unicode="&#xe1;" horiz-adv-x="534" 
d="M197 615l105 154l69 -54l-130 -134zM91.5 26.5q-45.5 40.5 -45.5 107.5q0 172 262 172h76v43q0 54 -33 86.5t-87 32.5q-67 0 -134 -58l-49 56q80 78 187 78q92 0 145.5 -50t53.5 -135v-359h-83v76h-6q-22 -40 -68 -65t-96 -25q-77 0 -122.5 40.5zM298 77q36 15 61 46.5
t25 78.5v28h-60q-99 0 -146 -22.5t-47 -68.5q0 -35 26.5 -56t71.5 -21q33 0 69 15z" />
    <glyph glyph-name="acircumflex" unicode="&#xe2;" horiz-adv-x="534" 
d="M176 572l-44 34l97 130h78l97 -130l-43 -34l-93 92zM91.5 26.5q-45.5 40.5 -45.5 107.5q0 172 262 172h76v43q0 54 -33 86.5t-87 32.5q-67 0 -134 -58l-49 56q80 78 187 78q92 0 145.5 -50t53.5 -135v-359h-83v76h-6q-22 -40 -68 -65t-96 -25q-77 0 -122.5 40.5zM298 77
q36 15 61 46.5t25 78.5v28h-60q-99 0 -146 -22.5t-47 -68.5q0 -35 26.5 -56t71.5 -21q33 0 69 15z" />
    <glyph glyph-name="adieresis" unicode="&#xe4;" horiz-adv-x="534" 
d="M211 608.5q-15 -15.5 -41 -15.5t-41.5 15.5t-15.5 41.5q0 25 15.5 40.5t41.5 15.5t41 -15t15 -41t-15 -41.5zM408 608.5q-15 -15.5 -41 -15.5t-41.5 15.5t-15.5 41.5q0 25 15.5 40.5t41.5 15.5t41 -15t15 -41t-15 -41.5zM91.5 26.5q-45.5 40.5 -45.5 107.5q0 172 262 172
h76v43q0 54 -33 86.5t-87 32.5q-67 0 -134 -58l-49 56q80 78 187 78q92 0 145.5 -50t53.5 -135v-359h-83v76h-6q-22 -40 -68 -65t-96 -25q-77 0 -122.5 40.5zM298 77q36 15 61 46.5t25 78.5v28h-60q-99 0 -146 -22.5t-47 -68.5q0 -35 26.5 -56t71.5 -21q33 0 69 15z" />
    <glyph glyph-name="agrave" unicode="&#xe0;" horiz-adv-x="534" 
d="M165 715l69 54l105 -154l-44 -34zM91.5 26.5q-45.5 40.5 -45.5 107.5q0 172 262 172h76v43q0 54 -33 86.5t-87 32.5q-67 0 -134 -58l-49 56q80 78 187 78q92 0 145.5 -50t53.5 -135v-359h-83v76h-6q-22 -40 -68 -65t-96 -25q-77 0 -122.5 40.5zM298 77q36 15 61 46.5
t25 78.5v28h-60q-99 0 -146 -22.5t-47 -68.5q0 -35 26.5 -56t71.5 -21q33 0 69 15z" />
    <glyph glyph-name="aring" unicode="&#xe5;" horiz-adv-x="534" 
d="M194.5 607.5q-30.5 30.5 -30.5 73.5t30.5 73t73.5 30t72.5 -30t29.5 -73q0 -44 -29.5 -74t-72.5 -30t-73.5 30.5zM306 642q16 16 16 39q0 22 -16 38.5t-38 16.5q-23 0 -39.5 -16t-16.5 -39t16.5 -39t39.5 -16q22 0 38 16zM91.5 26.5q-45.5 40.5 -45.5 107.5
q0 172 262 172h76v43q0 54 -33 86.5t-87 32.5q-67 0 -134 -58l-49 56q80 78 187 78q92 0 145.5 -50t53.5 -135v-359h-83v76h-6q-22 -40 -68 -65t-96 -25q-77 0 -122.5 40.5zM298 77q36 15 61 46.5t25 78.5v28h-60q-99 0 -146 -22.5t-47 -68.5q0 -35 26.5 -56t71.5 -21
q33 0 69 15z" />
    <glyph glyph-name="atilde" unicode="&#xe3;" horiz-adv-x="534" 
d="M125 607q11 46 36.5 70.5t54.5 24.5q26 0 40.5 -7.5t30.5 -22.5q10 -9 17.5 -13.5t17.5 -4.5q13 0 26 13.5t21 34.5l49 -20q-12 -44 -37.5 -69t-52.5 -25t-42.5 8t-30.5 22q-10 9 -17.5 13.5t-17.5 4.5q-11 0 -24 -14t-21 -34zM91.5 26.5q-45.5 40.5 -45.5 107.5
q0 172 262 172h76v43q0 54 -33 86.5t-87 32.5q-67 0 -134 -58l-49 56q80 78 187 78q92 0 145.5 -50t53.5 -135v-359h-83v76h-6q-22 -40 -68 -65t-96 -25q-77 0 -122.5 40.5zM298 77q36 15 61 46.5t25 78.5v28h-60q-99 0 -146 -22.5t-47 -68.5q0 -35 26.5 -56t71.5 -21
q33 0 69 15z" />
    <glyph glyph-name="ae" unicode="&#xe6;" horiz-adv-x="895" 
d="M844 241h-374q8 -86 52 -132.5t113 -46.5q41 0 77 20t62 59l65 -45q-72 -110 -204 -110q-59 0 -119.5 32.5t-84.5 91.5h-6q-24 -58 -77.5 -91t-118.5 -33q-87 0 -135 42.5t-48 110.5q0 87 69 133t202 46h67v31q0 53 -33.5 86t-86.5 33q-67 0 -134 -58l-49 56
q80 78 187 78q61 0 105 -27.5t63 -76.5h5q28 48 78.5 75.5t112.5 27.5q99 0 158 -63.5t59 -170.5q0 -30 -5 -68zM764 317q0 69 -38 109.5t-103 40.5q-59 0 -101.5 -39t-51.5 -111h294zM342 100.5q42 38.5 42 101.5v40h-60q-193 0 -193 -100q0 -36 27 -58t71 -22
q71 0 113 38.5z" />
    <glyph glyph-name="b" unicode="b" horiz-adv-x="598" 
d="M72 0v760h83v-305h5q30 41 73.5 64.5t93.5 23.5q64 0 115.5 -34.5t80.5 -95.5t29 -138q0 -83 -29 -148.5t-80.5 -102.5t-115.5 -37q-53 0 -96 23t-71 66h-5v-76h-83zM170.5 163q19.5 -45 55 -70t79.5 -25q46 0 83 25t58 70t21 102t-20.5 102t-56.5 70t-82 25
q-45 0 -81 -25t-56 -70t-20 -102t19.5 -102z" />
    <glyph glyph-name="c" unicode="c" horiz-adv-x="532" 
d="M163.5 20.5q-56.5 34.5 -87 98t-30.5 147.5q0 83 30.5 146t87 97t132.5 34q56 0 109.5 -30t85.5 -80l-65 -46q-24 36 -59.5 57t-76.5 21q-71 0 -115 -54.5t-44 -144.5q0 -91 43.5 -146.5t114.5 -55.5q41 0 77.5 21t59.5 57l65 -46q-32 -50 -85.5 -80t-109.5 -30
q-76 0 -132.5 34.5z" />
    <glyph glyph-name="ccedilla" unicode="&#xe7;" horiz-adv-x="532" 
d="M366.5 85q36.5 21 59.5 57l65 -46q-28 -43 -71.5 -71t-91.5 -36l-8 -33q6 1 16 1q41 0 66 -23t25 -63q0 -57 -43.5 -87t-124.5 -29l-11 49q50 4 76.5 19t26.5 38q0 38 -43 38q-24 0 -49 -15l-29 17l26 88q-98 13 -154 87t-56 190q0 83 30.5 146t87 97t132.5 34
q56 0 109.5 -30t85.5 -80l-65 -46q-24 36 -59.5 57t-76.5 21q-71 0 -115 -54.5t-44 -144.5q0 -91 43.5 -146.5t114.5 -55.5q41 0 77.5 21z" />
    <glyph glyph-name="d" unicode="d" horiz-adv-x="599" 
d="M527 0h-83v76h-6q-26 -43 -69 -66.5t-95 -23.5q-65 0 -117 37t-81.5 102t-29.5 146q0 79 29.5 141.5t81.5 97t117 34.5q48 0 91 -24t73 -66h6v306h83v-760zM427 367q-20 45 -55.5 70t-80.5 25q-46 0 -82.5 -25t-57 -70t-20.5 -102t21 -102t58 -70t84 -25q44 0 79 25
t54.5 70t19.5 102t-20 102z" />
    <glyph glyph-name="eth" unicode="&#xf0;" horiz-adv-x="568" 
d="M396 628q64 -85 95 -175t31 -199q0 -77 -30 -138.5t-83.5 -95.5t-121.5 -34q-72 0 -125.5 32t-82.5 90.5t-29 136.5q0 72 27 130t78 91t121 33q84 0 143 -63l4 5q-22 49 -45 85.5t-52 71.5l-166 -70l-30 72l140 59q-30 30 -71 68l63 52q52 -52 83 -88l112 47l30 -72z
M363 89q35 23 54.5 63.5t19.5 92.5q0 75 -43 125t-114 50q-67 0 -106 -49.5t-39 -125.5q0 -82 40.5 -130.5t108.5 -48.5q44 0 79 23z" />
    <glyph glyph-name="e" unicode="e" horiz-adv-x="558" 
d="M506 242h-374q5 -83 49 -131t117 -48q41 0 77 20t62 59l65 -45q-71 -110 -204 -110q-117 0 -184.5 74t-67.5 203q0 130 64 205t176 75q105 0 165.5 -63t60.5 -171q0 -35 -6 -68zM427 317q0 69 -38.5 110t-102.5 41q-60 0 -100 -40t-51 -111h292z" />
    <glyph glyph-name="eacute" unicode="&#xe9;" horiz-adv-x="558" 
d="M319 769l69 -54l-130 -134l-44 34zM506 242h-374q5 -83 49 -131t117 -48q41 0 77 20t62 59l65 -45q-71 -110 -204 -110q-117 0 -184.5 74t-67.5 203q0 130 64 205t176 75q105 0 165.5 -63t60.5 -171q0 -35 -6 -68zM427 317q0 69 -38.5 110t-102.5 41q-60 0 -100 -40
t-51 -111h292z" />
    <glyph glyph-name="ecircumflex" unicode="&#xea;" horiz-adv-x="558" 
d="M378 572l-93 92l-92 -92l-44 34l97 130h78l97 -130zM506 242h-374q5 -83 49 -131t117 -48q41 0 77 20t62 59l65 -45q-71 -110 -204 -110q-117 0 -184.5 74t-67.5 203q0 130 64 205t176 75q105 0 165.5 -63t60.5 -171q0 -35 -6 -68zM427 317q0 69 -38.5 110t-102.5 41
q-60 0 -100 -40t-51 -111h292z" />
    <glyph glyph-name="edieresis" unicode="&#xeb;" horiz-adv-x="558" 
d="M145.5 608.5q-15.5 15.5 -15.5 41.5q0 25 15.5 40.5t41.5 15.5t41 -15t15 -41t-15 -41.5t-41 -15.5t-41.5 15.5zM342.5 608.5q-15.5 15.5 -15.5 41.5q0 25 15.5 40.5t41.5 15.5t41 -15t15 -41t-15 -41.5t-41 -15.5t-41.5 15.5zM506 242h-374q5 -83 49 -131t117 -48
q41 0 77 20t62 59l65 -45q-71 -110 -204 -110q-117 0 -184.5 74t-67.5 203q0 130 64 205t176 75q105 0 165.5 -63t60.5 -171q0 -35 -6 -68zM427 317q0 69 -38.5 110t-102.5 41q-60 0 -100 -40t-51 -111h292z" />
    <glyph glyph-name="egrave" unicode="&#xe8;" horiz-adv-x="558" 
d="M251 769l105 -154l-44 -34l-130 134zM506 242h-374q5 -83 49 -131t117 -48q41 0 77 20t62 59l65 -45q-71 -110 -204 -110q-117 0 -184.5 74t-67.5 203q0 130 64 205t176 75q105 0 165.5 -63t60.5 -171q0 -35 -6 -68zM427 317q0 69 -38.5 110t-102.5 41q-60 0 -100 -40
t-51 -111h292z" />
    <glyph glyph-name="f" unicode="f" horiz-adv-x="350" 
d="M209 673q-26 -25 -26 -71v-72h145v-78h-145v-452h-83v452h-80v78h80v74q0 80 42 125t115 45q44 0 75 -12v-75q-28 11 -57 11q-40 0 -66 -25z" />
    <glyph glyph-name="g" unicode="g" horiz-adv-x="599" 
d="M157.5 -223.5q-58.5 29.5 -93.5 81.5l69 47q24 -38 67.5 -59t86.5 -21q75 0 116 45t41 129v77h-6q-27 -43 -69 -66.5t-95 -23.5q-64 0 -116 37t-82 102t-30 146q0 79 29.5 141.5t82 97t116.5 34.5q48 0 91 -24t73 -66h6v75h83v-517q0 -128 -62.5 -196.5t-177.5 -68.5
q-71 0 -129.5 29.5zM405 123q42 55 42 142q0 57 -20 102t-55.5 70t-80.5 25q-46 0 -82.5 -25t-57 -70t-20.5 -102t21 -102t58.5 -70t84.5 -25q68 0 110 55z" />
    <glyph glyph-name="h" unicode="h" horiz-adv-x="579" 
d="M72 0v760h83v-305h5q24 40 70.5 64.5t93.5 24.5q88 0 138 -54.5t50 -153.5v-336h-83v324q0 64 -36 104t-90 40q-66 0 -107 -42.5t-41 -111.5v-314h-83z" />
    <glyph glyph-name="i" unicode="i" horiz-adv-x="249" 
d="M165 676q-16 -15 -42 -15t-40.5 15t-14.5 41t15 41.5t40 15.5q26 0 42 -15.5t16 -41.5t-16 -41zM166 530v-530h-83v530h83z" />
    <glyph glyph-name="iacute" unicode="&#xed;" horiz-adv-x="227" 
d="M42 615l105 154l69 -54l-130 -134zM155 530v-530h-83v530h83z" />
    <glyph glyph-name="icircumflex" unicode="&#xee;" horiz-adv-x="227" 
d="M21 572l-44 34l97 130h78l97 -130l-43 -34l-93 92zM155 530v-530h-83v530h83z" />
    <glyph glyph-name="idieresis" unicode="&#xef;" horiz-adv-x="227" 
d="M56 608.5q-15 -15.5 -41 -15.5t-41.5 15.5t-15.5 41.5q0 25 15.5 40.5t41.5 15.5t41 -15t15 -41t-15 -41.5zM253 608.5q-15 -15.5 -41 -15.5t-41.5 15.5t-15.5 41.5q0 25 15.5 40.5t41.5 15.5t41 -15t15 -41t-15 -41.5zM155 530v-530h-83v530h83z" />
    <glyph glyph-name="igrave" unicode="&#xec;" horiz-adv-x="227" 
d="M10 715l69 54l105 -154l-44 -34zM155 530v-530h-83v530h83z" />
    <glyph glyph-name="j" unicode="j" horiz-adv-x="250" 
d="M83.5 676q-14.5 15 -14.5 41t15 41.5t40 15.5q26 0 42 -15.5t16 -41.5t-16 -41t-42 -15t-40.5 15zM-53 -244v77q20 -10 54 -10q39 0 61 25.5t22 71.5v610h83v-625q0 -77 -38 -118.5t-110 -41.5q-37 0 -72 11z" />
    <glyph glyph-name="k" unicode="k" horiz-adv-x="510" 
d="M500 0h-104l-196 253l-45 -44v-209h-83v760h83v-444l217 214h115l-228 -221z" />
    <glyph glyph-name="l" unicode="l" horiz-adv-x="248" 
d="M72 760h83v-650q0 -41 41 -41h25v-78h-44q-105 0 -105 97v672z" />
    <glyph glyph-name="m" unicode="m" horiz-adv-x="881" 
d="M72 0v530h83v-74h5q25 40 64.5 64t81.5 24q51 0 89 -28t60 -81h5q27 51 73 80t103 29q84 0 131 -55t47 -153v-336h-83v324q0 65 -31 104.5t-82 39.5q-60 0 -96.5 -42t-36.5 -112v-314h-84v324q0 65 -31 104.5t-81 39.5q-60 0 -97 -42.5t-37 -111.5v-314h-83z" />
    <glyph glyph-name="n" unicode="n" horiz-adv-x="579" 
d="M72 0v530h83v-75h5q24 40 70.5 64.5t93.5 24.5q88 0 138 -54.5t50 -153.5v-336h-83v324q0 64 -36 104t-90 40q-66 0 -107 -42.5t-41 -111.5v-314h-83z" />
    <glyph glyph-name="ntilde" unicode="&#xf1;" horiz-adv-x="579" 
d="M149 607q11 46 36.5 70.5t54.5 24.5q26 0 40.5 -7.5t30.5 -22.5q10 -9 17.5 -13.5t17.5 -4.5q13 0 26 13.5t21 34.5l49 -20q-12 -44 -37.5 -69t-52.5 -25t-42.5 8t-30.5 22q-10 9 -17.5 13.5t-17.5 4.5q-11 0 -24 -14t-21 -34zM72 0v530h83v-75h5q24 40 70.5 64.5
t93.5 24.5q88 0 138 -54.5t50 -153.5v-336h-83v324q0 64 -36 104t-90 40q-66 0 -107 -42.5t-41 -111.5v-314h-83z" />
    <glyph glyph-name="o" unicode="o" horiz-adv-x="576" 
d="M160 20q-55 34 -84.5 97t-29.5 148t29.5 148t84.5 97t128 34t127.5 -34t84.5 -97t30 -148t-30 -148t-84.5 -97t-127.5 -34t-128 34zM402.5 118q42.5 54 42.5 147t-42.5 147t-114.5 54t-114.5 -54t-42.5 -147t42.5 -147t114.5 -54t114.5 54z" />
    <glyph glyph-name="oacute" unicode="&#xf3;" horiz-adv-x="576" 
d="M217 615l105 154l69 -54l-130 -134zM160 20q-55 34 -84.5 97t-29.5 148t29.5 148t84.5 97t128 34t127.5 -34t84.5 -97t30 -148t-30 -148t-84.5 -97t-127.5 -34t-128 34zM402.5 118q42.5 54 42.5 147t-42.5 147t-114.5 54t-114.5 -54t-42.5 -147t42.5 -147t114.5 -54
t114.5 54z" />
    <glyph glyph-name="ocircumflex" unicode="&#xf4;" horiz-adv-x="576" 
d="M196 572l-44 34l97 130h78l97 -130l-43 -34l-93 92zM160 20q-55 34 -84.5 97t-29.5 148t29.5 148t84.5 97t128 34t127.5 -34t84.5 -97t30 -148t-30 -148t-84.5 -97t-127.5 -34t-128 34zM402.5 118q42.5 54 42.5 147t-42.5 147t-114.5 54t-114.5 -54t-42.5 -147t42.5 -147
t114.5 -54t114.5 54z" />
    <glyph glyph-name="odieresis" unicode="&#xf6;" horiz-adv-x="576" 
d="M231 608.5q-15 -15.5 -41 -15.5t-41.5 15.5t-15.5 41.5q0 25 15.5 40.5t41.5 15.5t41 -15t15 -41t-15 -41.5zM428 608.5q-15 -15.5 -41 -15.5t-41.5 15.5t-15.5 41.5q0 25 15.5 40.5t41.5 15.5t41 -15t15 -41t-15 -41.5zM160 20q-55 34 -84.5 97t-29.5 148t29.5 148
t84.5 97t128 34t127.5 -34t84.5 -97t30 -148t-30 -148t-84.5 -97t-127.5 -34t-128 34zM402.5 118q42.5 54 42.5 147t-42.5 147t-114.5 54t-114.5 -54t-42.5 -147t42.5 -147t114.5 -54t114.5 54z" />
    <glyph glyph-name="ograve" unicode="&#xf2;" horiz-adv-x="576" 
d="M185 715l69 54l105 -154l-44 -34zM160 20q-55 34 -84.5 97t-29.5 148t29.5 148t84.5 97t128 34t127.5 -34t84.5 -97t30 -148t-30 -148t-84.5 -97t-127.5 -34t-128 34zM402.5 118q42.5 54 42.5 147t-42.5 147t-114.5 54t-114.5 -54t-42.5 -147t42.5 -147t114.5 -54
t114.5 54z" />
    <glyph glyph-name="oslash" unicode="&#xf8;" horiz-adv-x="576" 
d="M573 545l-85 -109q42 -70 42 -171q0 -85 -30 -148t-84.5 -97t-127.5 -34q-70 0 -127 33l-78 -100l-62 52l81 103q-56 73 -56 191q0 85 29.5 148t84.5 97t128 34q87 0 146 -47l77 99zM157 144l226 289q-39 33 -95 33q-72 0 -114.5 -54t-42.5 -147q0 -72 26 -121zM430 362
l-218 -278q34 -20 76 -20q72 0 114.5 54t42.5 147q0 55 -15 97z" />
    <glyph glyph-name="otilde" unicode="&#xf5;" horiz-adv-x="576" 
d="M145 607q11 46 36.5 70.5t54.5 24.5q26 0 40.5 -7.5t30.5 -22.5q10 -9 17.5 -13.5t17.5 -4.5q13 0 26 13.5t21 34.5l49 -20q-12 -44 -37.5 -69t-52.5 -25t-42.5 8t-30.5 22q-10 9 -17.5 13.5t-17.5 4.5q-11 0 -24 -14t-21 -34zM160 20q-55 34 -84.5 97t-29.5 148
t29.5 148t84.5 97t128 34t127.5 -34t84.5 -97t30 -148t-30 -148t-84.5 -97t-127.5 -34t-128 34zM402.5 118q42.5 54 42.5 147t-42.5 147t-114.5 54t-114.5 -54t-42.5 -147t42.5 -147t114.5 -54t114.5 54z" />
    <glyph glyph-name="p" unicode="p" horiz-adv-x="598" 
d="M72 -239v769h83v-76h5q30 42 73.5 66t93.5 24q64 0 115.5 -34.5t80.5 -96t29 -138.5q0 -83 -29 -148.5t-80.5 -102.5t-115.5 -37q-54 0 -96.5 23t-70.5 66h-5v-315h-83zM170.5 163q19.5 -45 54.5 -70t80 -25q47 0 84 25t58 70t21 102t-20.5 102t-57 70t-82.5 25
q-45 0 -81 -25t-56 -70t-20 -102t19.5 -102z" />
    <glyph glyph-name="thorn" unicode="&#xfe;" horiz-adv-x="598" 
d="M72 -239v999h83v-306h5q29 42 72.5 65.5t94.5 23.5q64 0 115.5 -34.5t80.5 -95.5t29 -138q0 -83 -29 -148.5t-80.5 -102.5t-115.5 -37q-54 0 -96.5 23t-70.5 66h-5v-315h-83zM170.5 163q19.5 -45 54.5 -70t80 -25q47 0 84 25t58 70t21 102t-20.5 102t-57 70t-82.5 25
q-45 0 -81 -25t-56 -70t-20 -102t19.5 -102z" />
    <glyph glyph-name="q" unicode="q" horiz-adv-x="599" 
d="M527 -241h-83v316h-6q-26 -43 -68.5 -66t-95.5 -23q-65 0 -117 36.5t-81.5 101.5t-29.5 146q0 79 29.5 141.5t81.5 97t117 34.5q48 0 91 -24t73 -66h6v77h83v-771zM427 366q-20 45 -55.5 70t-80.5 25q-46 0 -82.5 -25t-57 -70t-20.5 -102t21 -102t58 -70t84 -25
q44 0 79 25t54.5 70t19.5 102t-20 102z" />
    <glyph glyph-name="r" unicode="r" horiz-adv-x="377" 
d="M72 0v530h83v-101h5q33 54 84 84.5t113 30.5h7v-90h-9q-61 0 -106 -20t-69.5 -54.5t-24.5 -74.5v-305h-83z" />
    <glyph glyph-name="s" unicode="s" horiz-adv-x="472" 
d="M114 18.5q-54 32.5 -84 86.5l71 41q23 -40 60.5 -62t85.5 -22q50 0 79 20t29 54q0 33 -29 53.5t-96 35.5q-93 21 -138.5 58t-45.5 96q0 77 52 121t142 44q129 0 202 -110l-66 -47q-26 40 -61 60.5t-76 20.5q-49 0 -78.5 -22t-29.5 -57q0 -30 32 -52t96 -37
q181 -40 181 -151q0 -76 -52.5 -119.5t-143.5 -43.5q-76 0 -130 32.5z" />
    <glyph glyph-name="germandbls" unicode="&#xdf;" horiz-adv-x="595" 
d="M72 537q0 114 53.5 175.5t151.5 61.5q92 0 146.5 -54t54.5 -145q0 -64 -29 -110.5t-77 -59.5v-4q82 -11 129.5 -64t47.5 -136q0 -98 -61 -156t-165 -58q-56 0 -101 10v79q36 -11 94 -11q68 0 108 38.5t40 104.5q0 69 -45.5 109.5t-123.5 40.5h-39v77h24q52 0 82.5 35.5
t30.5 95.5t-31.5 95t-84.5 35q-59 0 -90.5 -41.5t-31.5 -117.5v-537h-83v537z" />
    <glyph glyph-name="t" unicode="t" horiz-adv-x="357" 
d="M339 452h-153v-304q0 -44 23 -68t64 -24q24 0 54 10v-76q-27 -11 -71 -11q-74 0 -113.5 42t-39.5 121v310h-83v78h83v168h83v-168h153v-78z" />
    <glyph glyph-name="u" unicode="u" horiz-adv-x="579" 
d="M507 530v-530h-83v74h-6q-24 -40 -70 -64t-94 -24q-88 0 -137.5 54.5t-49.5 152.5v337h83v-324q0 -65 35.5 -104.5t90.5 -39.5q66 0 107 42.5t41 111.5v314h83z" />
    <glyph glyph-name="uacute" unicode="&#xfa;" horiz-adv-x="579" 
d="M218 615l105 154l69 -54l-130 -134zM507 530v-530h-83v74h-6q-24 -40 -70 -64t-94 -24q-88 0 -137.5 54.5t-49.5 152.5v337h83v-324q0 -65 35.5 -104.5t90.5 -39.5q66 0 107 42.5t41 111.5v314h83z" />
    <glyph glyph-name="ucircumflex" unicode="&#xfb;" horiz-adv-x="579" 
d="M197 572l-44 34l97 130h78l97 -130l-43 -34l-93 92zM507 530v-530h-83v74h-6q-24 -40 -70 -64t-94 -24q-88 0 -137.5 54.5t-49.5 152.5v337h83v-324q0 -65 35.5 -104.5t90.5 -39.5q66 0 107 42.5t41 111.5v314h83z" />
    <glyph glyph-name="udieresis" unicode="&#xfc;" horiz-adv-x="579" 
d="M232 608.5q-15 -15.5 -41 -15.5t-41.5 15.5t-15.5 41.5q0 25 15.5 40.5t41.5 15.5t41 -15t15 -41t-15 -41.5zM429 608.5q-15 -15.5 -41 -15.5t-41.5 15.5t-15.5 41.5q0 25 15.5 40.5t41.5 15.5t41 -15t15 -41t-15 -41.5zM507 530v-530h-83v74h-6q-24 -40 -70 -64t-94 -24
q-88 0 -137.5 54.5t-49.5 152.5v337h83v-324q0 -65 35.5 -104.5t90.5 -39.5q66 0 107 42.5t41 111.5v314h83z" />
    <glyph glyph-name="ugrave" unicode="&#xf9;" horiz-adv-x="579" 
d="M186 715l69 54l105 -154l-44 -34zM507 530v-530h-83v74h-6q-24 -40 -70 -64t-94 -24q-88 0 -137.5 54.5t-49.5 152.5v337h83v-324q0 -65 35.5 -104.5t90.5 -39.5q66 0 107 42.5t41 111.5v314h83z" />
    <glyph glyph-name="v" unicode="v" horiz-adv-x="510" 
d="M208 0l-202 530h90l156 -425h6l156 425h89l-205 -530h-90z" />
    <glyph glyph-name="w" unicode="w" horiz-adv-x="797" 
d="M182 0l-176 530h91l127 -417h5l124 417h90l126 -417h5l126 417h91l-175 -530h-90l-125 418h-5l-124 -418h-90z" />
    <glyph glyph-name="x" unicode="x" horiz-adv-x="493" 
d="M298 268l186 -268h-101l-136 207l-138 -207h-100l192 276l-179 254h100l132 -198l126 198h98z" />
    <glyph glyph-name="y" unicode="y" horiz-adv-x="517" 
d="M212 0l-206 530h93l160 -427h6l153 427h93l-297 -771h-92z" />
    <glyph glyph-name="yacute" unicode="&#xfd;" horiz-adv-x="517" 
d="M187 615l105 154l69 -54l-130 -134zM212 0l-206 530h93l160 -427h6l153 427h93l-297 -771h-92z" />
    <glyph glyph-name="ydieresis" unicode="&#xff;" horiz-adv-x="517" 
d="M201 608.5q-15 -15.5 -41 -15.5t-41.5 15.5t-15.5 41.5q0 25 15.5 40.5t41.5 15.5t41 -15t15 -41t-15 -41.5zM398 608.5q-15 -15.5 -41 -15.5t-41.5 15.5t-15.5 41.5q0 25 15.5 40.5t41.5 15.5t41 -15t15 -41t-15 -41.5zM212 0l-206 530h93l160 -427h6l153 427h93
l-297 -771h-92z" />
    <glyph glyph-name="z" unicode="z" horiz-adv-x="489" 
d="M442 463l-297 -394h311v-78h-424v67l298 394h-294v78h406v-67z" />
    <glyph glyph-name="ordfeminine" unicode="&#xaa;" horiz-adv-x="334" 
d="M54 523.5q-29 25.5 -29 68.5q0 54 43 84t120 30h41v18q0 30 -18 47t-48 17q-40 0 -75 -35l-45 40q24 27 56.5 42t70.5 15q60 0 95.5 -33t35.5 -89v-221h-72v44h-4q-12 -25 -38.5 -39t-57.5 -14q-46 0 -75 25.5zM204 577.5q25 17.5 25 50.5v15h-31q-50 0 -74.5 -10.5
t-24.5 -34.5q0 -17 13.5 -27.5t35.5 -10.5q31 0 56 17.5z" />
    <glyph glyph-name="ordmasculine" unicode="&#xba;" horiz-adv-x="364" 
d="M67.5 545.5q-42.5 47.5 -42.5 129.5q0 80 42.5 127.5t114.5 47.5t114.5 -47.5t42.5 -127.5q0 -82 -42.5 -129.5t-114.5 -47.5t-114.5 47.5zM243.5 595.5q22.5 29.5 22.5 79.5t-22.5 79t-61.5 29q-38 0 -60.5 -29.5t-22.5 -78.5q0 -50 22.5 -79.5t60.5 -29.5
q39 0 61.5 29.5z" />
    <glyph glyph-name="glyph120" horiz-adv-x="579" 
d="M67 -239v769h83v-303q0 -80 33 -122.5t94 -42.5q65 0 106 42.5t41 111.5v314h83v-530h-83v74h-6q-24 -39 -67.5 -63.5t-83.5 -24.5q-80 0 -132 70l-3 -2l18 -293h-83z" />
    <glyph glyph-name="uni4E00" unicode="&#x4e00;" 
d="M61 462h877v-87h-877v87z" />
    <glyph glyph-name="uni4E01" unicode="&#x4e01;" 
d="M933 776v-81h-363v-602q0 -56 -14.5 -85.5t-47 -41.5t-93.5 -12h-148l-16 85h141q39 0 57.5 6t25 22t6.5 51v577h-413v81h865z" />
    <glyph glyph-name="uni4E03" unicode="&#x4e03;" 
d="M815 264l77 -19l-8 -155q-2 -47 -18 -72.5t-48 -35.5t-88 -10h-213q-59 0 -93 13t-49.5 44t-15.5 87v307l-285 -45l-12 81l297 47v334h83v-321l488 76l9 -80l-497 -79v-304q0 -35 6.5 -52t24 -24t54.5 -7h187q42 0 60.5 5.5t25.5 22t9 55.5z" />
    <glyph glyph-name="uni4E07" unicode="&#x4e07;" 
d="M405 706q-3 -90 -8 -159l-1 -18h426q-5 -76 -12.5 -197t-13.5 -195q-6 -70 -24 -106t-55.5 -50t-105.5 -14h-150l-15 78h140q51 0 76.5 8.5t37 33t15.5 76.5l2 32q11 140 18 257h-346q-13 -116 -40 -201t-80 -160.5t-145 -154.5l-63 59q100 84 151.5 159t73.5 163.5
t31 230.5l7 158h-256v76h865v-76h-528z" />
    <glyph glyph-name="uni4E08" unicode="&#x4e08;" 
d="M906 -54q-146 45 -248 90.5t-177 100.5q-61 -53 -153.5 -102t-225.5 -100l-40 78q129 44 215 86.5t141 90.5q-60 56 -108 130.5t-96 178.5l72 30q42 -96 86 -164.5t99 -120.5q47 59 67 135t22 184v24h-484v76h485v185h82v-185h279v-76h-279v-21q0 -127 -24 -215.5
t-83 -158.5q69 -48 165.5 -86.5t238.5 -77.5z" />
    <glyph glyph-name="uni4E09" unicode="&#x4e09;" 
d="M119 760h762v-81h-762v81zM164 440h673v-80h-673v80zM63 84h875v-81h-875v81z" />
    <glyph glyph-name="uni4E0A" unicode="&#x4e0a;" 
d="M515 477v-412h423v-80h-872v80h365v782h84v-292h377v-78h-377z" />
    <glyph glyph-name="uni4E0B" unicode="&#x4e0b;" 
d="M65 698v75h871v-75h-420v-760h-86v760h-365zM576 548q69 -49 165.5 -122.5t143.5 -112.5l-49 -68q-55 47 -145 117.5t-159 121.5z" />
    <glyph glyph-name="uni4E0C" unicode="&#x4e0c;" 
d="M930 762v-79h-200v-736h-87v736h-277v-174q0 -156 -21 -254t-69 -170t-140 -149l-70 60q87 75 130.5 135t63 144.5t19.5 224.5v183h-213v79h864z" />
    <glyph glyph-name="uni4E0D" unicode="&#x4e0d;" 
d="M603 702q-31 -57 -65 -109v-662h-80v550q-140 -177 -346 -336l-51 70q150 105 264.5 229t187.5 258h-422v78h824v-78h-312zM632 491q202 -172 306 -271l-56 -66q-85 88 -297 276z" />
    <glyph glyph-name="uni4E0E" unicode="&#x4e0e;" 
d="M906 630h-602l-11 -157h572l-22 -358q-5 -66 -23.5 -100.5t-56 -48t-103.5 -13.5h-177l-15 77h170q49 0 73 7t35 29.5t13 69.5l13 193q2 27 3 43.5t2 23.5h-574l32 439h84l-9 -130h596v-75zM56 263h644v-77h-644v77z" />
    <glyph glyph-name="uni4E10" unicode="&#x4e10;" 
d="M930 716h-397v-139h350v-71h-350v-137h331q-16 -220 -22 -274q-8 -77 -48.5 -109.5t-129.5 -32.5h-201l-13 83h200q42 0 64 9.5t32.5 30t15.5 59.5q4 31 9 87.5t5 75.5h-635l30 349l77 -3l-22 -275h229v347h-384v72h859v-72z" />
    <glyph glyph-name="uni4E11" unicode="&#x4e11;" 
d="M827 792l-37 -734h142v-75h-866v75h207l34 309h-186v76h194l29 270h-215v79h698zM741 713h-316l-32 -270h335zM724 367h-340l-36 -309h360z" />
    <glyph glyph-name="uni4E13" unicode="&#x4e13;" 
d="M937 459h-559q-26 -69 -46 -113h492v-77l-210 -200q104 -40 179 -71l-29 -77q-104 46 -274 111t-310 114l25 73q146 -50 329 -119l186 173h-481v64q28 59 53 122h-229v74h257q17 45 41 121h-244v74h267q24 84 33 123l78 -10q-11 -51 -29 -113h417v-74h-438
q-12 -41 -40 -121h532v-74z" />
    <glyph glyph-name="uni4E14" unicode="&#x4e14;" 
d="M804 800v-749h144v-73h-895v73h143v749h608zM723 554v172h-446v-172h446zM277 308h446v174h-446v-174zM723 234h-446v-183h446v183z" />
    <glyph glyph-name="uni4E15" unicode="&#x4e15;" 
d="M60 319q141 78 253 178.5t188 213.5h-409v78h816v-78h-312q-22 -37 -59 -86v-510h-79v415q-141 -154 -350 -284zM623 544q107 -77 186 -135.5t131 -104.5l-46 -68q-87 77 -298 235q-6 4 -10 7.5t-8 5.5zM928 -15h-856v79h856v-79z" />
    <glyph glyph-name="uni4E16" unicode="&#x4e16;" 
d="M797 533v-319h-370v319h-168v-482h657v-79h-737v561h-118v77h118v209h80v-209h168v234h79v-234h214v236h77v-236h142v-77h-142zM720 290v243h-214v-243h214z" />
    <glyph glyph-name="uni4E18" unicode="&#x4e18;" 
d="M705 67h238v-73h-884v73h153v683q143 8 302 27.5t310 52.5l22 -74q-129 -29 -276 -48.5t-277 -29.5v-198h611v-74h-199v-339zM626 406h-333v-339h333v339z" />
    <glyph glyph-name="uni4E19" unicode="&#x4e19;" 
d="M935 711h-398l-1 -137h331v-496q0 -50 -12.5 -77.5t-41.5 -38.5t-82 -11h-121l-15 77h113q36 0 53 6t23.5 22t6.5 50v395h-257q-3 -37 -13 -82q59 -48 129 -111.5t107 -104.5l-47 -64q-42 47 -101.5 104.5t-112.5 103.5q-28 -60 -79.5 -114.5t-134.5 -115.5l-53 64
q79 54 126 101.5t71.5 99.5t32.5 119h-246v-557h-78v630h328q1 36 1 137h-400v74h871v-74z" />
    <glyph glyph-name="uni4E1A" unicode="&#x4e1a;" 
d="M655 837v-774h284v-76h-877v76h287v774h78v-774h149v774h79zM251 226q-116 315 -163 411l71 33q29 -62 78 -183.5t88 -224.5zM918 634q-33 -89 -84.5 -211.5t-90.5 -199.5l-70 38q42 80 89.5 194.5t81.5 210.5z" />
    <glyph glyph-name="uni4E1B" unicode="&#x4e1b;" 
d="M259 304.5q-46 -93.5 -129 -197.5l-61 54q76 88 116.5 165t59.5 171t26 239l3 105h76l-3 -105q-4 -87 -8 -128q116 -132 175 -206l-55 -53q-60 79 -133 167q-21 -118 -67 -211.5zM371 145q94 96 144.5 180.5t73.5 187t26 256.5v72h76v-71q0 -69 -4 -120
q18 -154 79.5 -270t173.5 -218l-59 -62q-82 79 -137.5 169.5t-86.5 199.5q-27 -105 -81.5 -193t-144.5 -182zM905 -21h-814v74h814v-74z" />
    <glyph glyph-name="uni4E1C" unicode="&#x4e1c;" 
d="M876 331h-311v-264q0 -66 -31 -92.5t-102 -26.5h-108l-13 79h102q31 0 46 4.5t20.5 17t5.5 38.5v244h-338v75q54 81 134 234h-207v75h246q40 81 66 144l76 -30q-16 -43 -51 -114h507v-75h-545q-86 -167 -132 -235h244v175h80v-175h311v-74zM342 226q-48 -68 -112.5 -140
t-125.5 -122l-52 65q59 44 120.5 112t108.5 137zM694 276q47 -43 120 -115.5t128 -128.5l-56 -60q-50 56 -123 130t-123 118z" />
    <glyph glyph-name="uni4E1D" unicode="&#x4e1d;" 
d="M101 456l-15 59q53 60 115.5 155t99.5 168l68 -31q-33 -62 -89 -148t-93 -132l168 15q58 83 91 142l62 -34q-47 -83 -134 -204.5t-138 -178.5l224 22l-3 -74l-327 -29l-13 65q37 35 88.5 95.5t103.5 130.5zM497 459l-13 63q46 48 110.5 145t101.5 170l65 -32
q-35 -65 -89 -149.5t-86 -123.5l175 17q53 74 86 127l61 -34q-49 -80 -139 -197.5t-141 -170.5l273 24l-2 -72l-380 -31l-10 64q85 75 197 219zM49 -20v72h903v-72h-903z" />
    <glyph glyph-name="uni4E1E" unicode="&#x4e1e;" 
d="M467 589l226 120h-536v72h674v-71l-237 -132q36 -73 70 -125q126 76 200 137l44 -64q-87 -65 -199 -134q44 -54 98 -96.5t140 -96.5l-44 -70q-91 62 -150.5 115t-110 121.5t-98.5 166.5v-314q0 -43 -10.5 -65.5t-35.5 -32t-73 -9.5h-98l-14 72h81q44 0 58.5 12.5
t14.5 49.5v344zM59 182q92 67 154 142t102 168h-238v73h313v-72q-41 -107 -110.5 -198t-176.5 -178zM906 -31h-815v72h815v-72z" />
    <glyph glyph-name="uni4E22" unicode="&#x4e22;" 
d="M471 264q-89 -105 -221 -215l455 22q-84 88 -110 114l58 44q47 -44 119.5 -118.5t121.5 -128.5l-54 -55l-69 76l-624 -33l-21 78q136 94 249 216h-312v73h398v147h-324v71h324v138q-169 -14 -337 -21l-10 74q176 7 393.5 25t351.5 38l17 -75q-158 -21 -338 -35v-144h328
v-71h-328v-147h402v-73h-469z" />
    <glyph glyph-name="uni4E24" unicode="&#x4e24;" 
d="M924 718h-275l-2 -132h222v-520q0 -46 -12 -71t-38.5 -35t-73.5 -10h-114l-14 70h107q30 0 44.5 5.5t19.5 18.5t5 38v434h-148q-3 -66 -15 -126q28 -30 134 -159l24 -29l-53 -50q-58 81 -125 161q-39 -127 -131 -242l-61 39q74 90 110.5 184t42.5 222h-163
q-3 -62 -11 -102q34 -37 68 -79l41 -48l-52 -48l-24 29l-52 61q-18 -60 -48.5 -116.5t-76.5 -118.5l-59 45q71 94 100 173.5t38 203.5h-144v-572h-73v642h221l2 132h-269v70h855v-70zM572 586q0 54 2 132h-161l-3 -132h162z" />
    <glyph glyph-name="uni4E25" unicode="&#x4e25;" 
d="M938 790v-67h-280v-265h279v-67h-711v-100q0 -119 -22 -195.5t-82 -171.5l-66 35q39 60 59.5 108t28.5 103t8 138v150h222v265h-296v67h860zM450 458h130v265h-130v-265zM264 489q-26 36 -66.5 88.5t-60.5 75.5l56 47q97 -120 127 -160zM701 533q34 37 72 85.5t58 81.5
l58 -42q-23 -36 -63 -88.5t-69 -82.5z" />
    <glyph glyph-name="uni4E27" unicode="&#x4e27;" 
d="M778.5 85q72.5 -29 169.5 -51l-29 -76q-140 36 -235 86.5t-161.5 127t-118.5 191.5h-120v-324l227 77l7 -74l-311 -110l-30 70q21 19 26 26t5 21v314h-140v72h393v234h-368v69h368v111h77v-111h369v-69h-369v-234h397v-72h-450q46 -95 108 -160q120 65 225 140l40 -60
q-83 -62 -207 -130q55 -39 127.5 -68zM630 505q102 102 143 155l57 -49q-44 -54 -147 -159zM226 658q91 -93 146 -156l-59 -51q-82 97 -143 159z" />
    <glyph glyph-name="uni4E28" unicode="&#x4e28;" 
d="M458 844h83v-907h-83v907z" />
    <glyph glyph-name="uni4E2A" unicode="&#x4e2a;" 
d="M49 442q131 83 239 190.5t178 222.5h67q155 -242 419 -414l-47 -78q-125 86 -229.5 189.5t-175.5 212.5q-75 -112 -179 -214.5t-228 -187.5zM458 529h83v-600h-83v600z" />
    <glyph glyph-name="uni4E2B" unicode="&#x4e2b;" 
d="M167 848q65 -53 154.5 -135.5t124.5 -122.5l-56 -61q-66 70 -273 260zM552 592q44 34 130 112t148 138l55 -62q-63 -61 -144.5 -134t-137.5 -119zM460 506h79v-571h-79v571z" />
    <glyph glyph-name="uni4E2C" unicode="&#x4e2c;" 
d="M543 851h80v-921h-80v378q-225 -141 -280 -174l-37 84q28 15 292 171q7 5 25 15v447zM417 425q-77 150 -147 272l69 39q79 -132 150 -271z" />
    <glyph glyph-name="uni4E2D" unicode="&#x4e2d;" 
d="M537 848v-196h343v-412h-343v-308h-77v308h-340v412h340v196h77zM198 574v-257h262v257h-262zM537 574v-257h265v257h-265z" />
    <glyph glyph-name="uni4E30" unicode="&#x4e30;" 
d="M539 232h397v-75h-397v-225h-79v225h-398v75h398v164h-317v74h317v156h-363v74h363v146h79v-146h362v-74h-362v-156h316v-74h-316v-164z" />
    <glyph glyph-name="uni4E32" unicode="&#x4e32;" 
d="M536 473v-99h350v-278h-350v-163h-74v163h-345v278h345v99h-304v268h304v107h74v-107h308v-268h-308zM231 676v-139h231v139h-231zM771 537v139h-235v-139h235zM191 309v-147h271v147h-271zM536 309v-147h275v147h-275z" />
    <glyph glyph-name="uni4E34" unicode="&#x4e34;" 
d="M940 718v-71h-392q-50 -95 -116 -189l-65 50q60 79 109.5 173t76.5 180l75 -22q-22 -68 -46 -121h358zM337 -63h-73v904h73v-904zM177 34h-71v721h71v-721zM741 443q-25 33 -60.5 72t-63.5 66l51 46q79 -77 127 -135zM512 -64h-69v482h450v-482h-70v70h-311v-70zM634 74
v277h-122v-277h122zM699 74h124v277h-124v-277z" />
    <glyph glyph-name="uni4E36" unicode="&#x4e36;" 
d="M378 594q58 -56 153.5 -160.5t153.5 -172.5l-70 -68q-55 70 -147 174.5t-151 164.5z" />
    <glyph glyph-name="uni4E38" unicode="&#x4e38;" 
d="M931 244l-1 -23q-1 -26 -2.5 -72.5t-4.5 -89.5q-3 -54 -29 -75.5t-89 -21.5h-75q-55 0 -79.5 24.5t-24.5 88.5v511h-217v-9q-3 -146 -18 -231q135 -74 181 -103l-37 -73q-51 33 -162 98q-27 -93 -86.5 -165.5t-180.5 -170.5l-53 59q77 60 124.5 106t78 96t47.5 114
q-129 71 -207 106l33 65q68 -30 189 -94q11 73 14 193v9h-249v75h251l2 184h78l-3 -184h292v-572q0 -30 10 -41.5t34 -11.5h47q35 0 46.5 10.5t13.5 42.5q2 37 4 88.5t2 82.5z" />
    <glyph glyph-name="uni4E39" unicode="&#x4e39;" 
d="M942 395v-75h-140v-237q0 -50 -15 -78t-47 -40t-89 -12h-119l-15 74h115q39 0 57.5 5.5t26 21.5t7.5 51v215h-425q-3 -86 -15 -146.5t-40 -117t-80 -131.5l-66 44q49 67 74.5 116.5t36 102.5t12.5 132h-161v75h162v7v395h581v-402h140zM299 724v-329h424v329h-424z
M457 673q34 -37 79.5 -86.5t76.5 -84.5l-56 -52q-20 24 -69.5 79.5t-84.5 93.5z" />
    <glyph glyph-name="uni4E3A" unicode="&#x4e3a;" 
d="M879 615q-17 -402 -27 -526q-5 -73 -44.5 -101.5t-130.5 -28.5h-153l-17 77h144q49 0 73 7t34.5 25t14.5 57q5 55 12.5 194t10.5 219h-305q-17 -137 -56.5 -238t-112 -188.5t-193.5 -177.5l-57 61q112 83 180 161.5t105 169t53 212.5h-317v77h326q4 49 8.5 114.5
t7.5 113.5h80q0 -31 -14 -199l-2 -29h380zM292 642q-22 28 -65 77.5t-65 72.5l55 48q30 -31 66 -71.5t65 -73.5zM653 212q-22 28 -70.5 82.5t-75.5 81.5l55 51q30 -30 77.5 -81.5t70.5 -79.5z" />
    <glyph glyph-name="uni4E3B" unicode="&#x4e3b;" 
d="M499 680q-40 77 -85 149l72 31q45 -70 86 -145zM539 301v-246h391v-75h-860v75h390v246h-315v77h315v215h-358v77h796v-77h-359v-215h316v-77h-316z" />
    <glyph glyph-name="uni4E3D" unicode="&#x4e3d;" 
d="M61 793h878v-71h-878v71zM451 44q0 -38 -9.5 -58t-32.5 -28t-67 -8h-77l-14 70h73q25 0 36.5 4t15 14.5t3.5 34.5v463h-190v-598h-70v672h332v-566zM882 44q0 -38 -10 -58t-33 -28t-67 -8h-82l-13 70h77q27 0 38.5 4t15.5 14.5t4 34.5v463h-201v-598h-69v672h340v-566z
M252 435q49 -76 117 -200l-53 -34q-22 43 -56.5 104.5t-57.5 98.5zM676 435q28 -41 64 -99.5t59 -99.5l-54 -36q-25 47 -59.5 105.5t-59.5 94.5z" />
    <glyph glyph-name="uni4E3E" unicode="&#x4e3e;" 
d="M504 661q-25 54 -86 170l66 26q15 -25 44.5 -81.5t42.5 -85.5zM268 656q-72 114 -104 158l61 34q25 -34 55.5 -78t52.5 -78zM672 564q47 -76 113.5 -135t162.5 -109l-36 -67q-216 123 -320 311h-181q-51 -95 -132.5 -174t-188.5 -140l-37 64q186 98 279 250h-263v72h576
q32 49 68.5 110.5t55.5 100.5l70 -28q-42 -77 -109 -183h202v-72h-260zM736 298h-201v-123h372v-72h-372v-174h-72v174h-371v72h371v123h-200v71h200v140h72v-140h201v-71z" />
    <glyph glyph-name="uni4E3F" unicode="&#x4e3f;" 
d="M209 -5q137 99 201.5 171t91 169.5t26.5 267.5v240l78 -1v-239q-2 -182 -31.5 -292.5t-98.5 -194t-207 -185.5z" />
    <glyph glyph-name="uni4E43" unicode="&#x4e43;" 
d="M690 490h203q-2 -50 -22 -314l-6 -75q-3 -54 -21 -83t-53.5 -40.5t-97.5 -11.5h-174l-15 76h166q46 0 69 7t33.5 25.5t14.5 55.5q3 30 11 129t12 157h-208v68l86 218h-312q-2 -83 -6 -147q-9 -148 -37 -256.5t-78 -195.5t-131 -173l-64 59q79 80 126 155.5t73 173
t34 238.5q3 47 5 146h-203v76h679v-77z" />
    <glyph glyph-name="uni4E45" unicode="&#x4e45;" 
d="M730 179.5q87 -90.5 210 -158.5l-52 -77q-227 142 -349 369q-74 -104 -177.5 -195t-253.5 -183l-49 75q222 127 350 273t196 344h-268q-81 -145 -192 -261l-57 60q82 85 150.5 196.5t113.5 233.5l77 -23q-27 -75 -53 -129h321v-75q-51 -143 -111 -243q57 -116 144 -206.5
z" />
    <glyph glyph-name="uni4E47" unicode="&#x4e47;" 
d="M836 266l78 -17q-2 -34 -5 -84.5t-4 -84.5q-3 -45 -17.5 -69.5t-45 -34.5t-84.5 -10h-210q-53 0 -84 13t-45 44t-14 87v238l-335 -27l-6 78l341 28v232q-173 -25 -270 -36l-13 75q168 17 372.5 49.5t346.5 66.5l18 -73q-155 -34 -377 -69v-238l451 37l6 -79l-457 -37
v-232q0 -48 17 -64.5t62 -16.5h172q41 0 60.5 6.5t27.5 23t10 50.5q6 130 5 144z" />
    <glyph glyph-name="uni4E48" unicode="&#x4e48;" 
d="M523 796q-76 -127 -186 -258t-215 -219l-56 65q107 87 211.5 212t171.5 245zM847 -63q-22 41 -33 61l-15 27l-632 -41l-21 83q149 118 296 286.5t243 323.5l73 -46q-90 -140 -227.5 -297t-255.5 -264l479 31q-78 130 -135 209l64 45q55 -78 122 -182t114 -187z" />
    <glyph glyph-name="uni4E49" unicode="&#x4e49;" 
d="M526 571q-27 53 -69 125.5t-69 112.5l68 40q27 -41 68 -110.5t72 -124.5zM900 -68q-126 57 -220.5 114t-168.5 121q-74 -64 -172 -120.5t-233 -115.5l-45 82q128 52 221.5 103t164.5 111q-91 94 -158.5 216.5t-125.5 293.5l74 30q56 -165 120 -281.5t150 -202.5
q83 87 140 207t98 292l80 -28q-46 -184 -106 -310t-148 -219q70 -59 160 -108.5t207 -96.5z" />
    <glyph glyph-name="uni4E4B" unicode="&#x4e4b;" 
d="M938 51l-16 -77h-376q-80 0 -131 10t-86 32t-69 60q-31 39 -45 39q-7 0 -15 -6t-26 -27q-5 -6 -8.5 -11.5t-7.5 -10.5q-38 -50 -66 -92l-41 84q55 78 92 120q21 23 35 31t32 8t32 -9q136 77 277.5 188.5t233.5 205.5h-616v77h336q-40 98 -69 159l75 21q20 -40 80 -180
h303v-77q-96 -108 -254.5 -237.5t-306.5 -214.5q31 -36 60 -55.5t71 -28.5t107 -9h399z" />
    <glyph glyph-name="uni4E4C" unicode="&#x4e4c;" 
d="M272 382h621l-16 -278q-5 -60 -23.5 -93.5t-54.5 -47.5t-96 -14h-153l-13 71h143q46 0 69.5 8.5t34 30t13.5 62.5q3 37 6.5 95t5.5 94h-617v440h183q27 65 43 111l79 -17q-15 -44 -35 -94h331q-1 -25 -10 -171q-5 -61 -37 -87t-106 -26h-152l-13 68h146q48 0 65.5 12.5
t20.5 49.5l2 25q4 42 4 58h-441v-297zM68 201h656v-72h-656v72z" />
    <glyph glyph-name="uni4E4D" unicode="&#x4e4d;" 
d="M935 629h-466v-156h398v-80h-398v-158h433v-79h-433v-227h-83v700h-94q-71 -138 -172 -257l-63 56q158 179 248 426l76 -24q-28 -76 -50 -123h604v-78z" />
    <glyph glyph-name="uni4E4E" unicode="&#x4e4e;" 
d="M937 377v-75h-393v-227q0 -70 -32.5 -100t-114.5 -30h-128l-15 80h139q32 0 47 5.5t20 19.5t5 43v209h-402v75h402v325q-194 -12 -355 -17l-9 75q202 6 416.5 20.5t347.5 34.5l11 -76q-117 -15 -332 -31v-331h393zM633 461q36 39 86 102t74 100l59 -46
q-22 -33 -71.5 -96.5t-86.5 -105.5zM216 655q56 -62 150 -189l-58 -49q-29 45 -71 100t-75 94z" />
    <glyph glyph-name="uni4E4F" unicode="&#x4e4f;" 
d="M879 737q-157 -25 -379 -46.5t-384 -26.5l-11 75q155 5 378.5 27t379.5 47zM941 39l-15 -74h-400q-71 0 -116.5 8t-78.5 26.5t-65 52.5q-33 38 -44 38q-9 0 -18.5 -8t-25.5 -27l-90 -107l-37 82l18 22l81 94q20 22 33.5 29t31.5 7q21 0 42 -17q130 60 258 133.5
t209 134.5h-587v74h352q-37 86 -63 132l74 23q38 -72 71 -155h271v-75q-86 -74 -234 -163.5t-297 -159.5q39 -41 82 -55.5t126 -14.5h422z" />
    <glyph glyph-name="uni4E50" unicode="&#x4e50;" 
d="M906 371h-349v-309q0 -46 -11.5 -70.5t-38 -34t-75.5 -9.5h-114l-16 78h105q31 0 44.5 4.5t18.5 17t5 40.5v283h-348l43 391q171 7 354 23.5t313 37.5l17 -79q-129 -19 -297.5 -34.5t-312.5 -22.5l-28 -242h259v192h82v-192h349v-74zM334 264q-44 -71 -101.5 -146
t-117.5 -136l-62 50q61 59 116 131t98 143zM719 302q44 -48 109.5 -129t110.5 -142l-63 -52q-40 58 -104.5 139.5t-112.5 135.5z" />
    <glyph glyph-name="uni4E52" unicode="&#x4e52;" 
d="M721 281h219v-74h-879v74h152v476q393 21 613 68l15 -73q-104 -23 -251.5 -40t-296.5 -26v-136h613v-72h-185v-197zM642 478h-349v-197h349v197zM101 -5q66 34 152.5 89.5t139.5 100.5l47 -57q-60 -50 -141.5 -105.5t-152.5 -96.5z" />
    <glyph glyph-name="uni4E53" unicode="&#x4e53;" 
d="M720 281h216v-74h-875v74h152v477q394 21 612 68l15 -74q-104 -23 -251 -40t-297 -26v-136h614v-72h-186v-197zM642 478h-350v-197h350v197zM605 178q55 -32 137 -84.5t102 -65.5l51 -33l-43 -67q-168 116 -287 187z" />
    <glyph glyph-name="uni4E54" unicode="&#x4e54;" 
d="M906 202q-118 44 -206 118v-385h-79v394h68q-82 71 -141 169h-86q-54 -97 -140.5 -168.5t-222.5 -134.5l-40 69q115 48 191 103.5t124 130.5h-294v74h334q29 69 46 142q-152 -11 -326 -16l-6 73q180 4 373 18.5t344 37.5l18 -74q-139 -18 -319 -32q-20 -83 -46 -149h419
v-74h-288q55 -79 128.5 -130.5t186.5 -91.5zM325 330h76v-67q0 -76 -18.5 -132t-66.5 -105t-136 -97l-47 61q85 49 126 88.5t53.5 81t12.5 108.5v62z" />
    <glyph glyph-name="uni4E56" unicode="&#x4e56;" 
d="M538 618h400v-70h-400v-617h-75v617h-401v70h401v109q-177 -9 -319 -14l-5 70q149 3 358.5 15.5t351.5 26.5l8 -71q-116 -11 -319 -23v-113zM281 402v95h72v-421h-72v81q-54 -18 -121 -42t-81 -31l-21 80q16 3 100.5 31t122.5 43v93h-198v71h198zM865 292l64 -16
q0 -47 -4 -89q-3 -58 -28 -79.5t-88 -21.5h-64q-51 0 -74.5 24t-23.5 83v304h70v-134q114 55 174 97l33 -60q-35 -22 -95 -54.5t-112 -56.5v-82q0 -30 10 -40.5t36 -10.5h39q34 0 45.5 11t13.5 46z" />
    <glyph glyph-name="uni4E58" unicode="&#x4e58;" 
d="M536 351q72 -108 167.5 -183.5t236.5 -129.5l-30 -74q-123 55 -214.5 125t-159.5 160v-319h-72v319q-69 -90 -155.5 -157.5t-212.5 -127.5l-36 72q153 68 243 138.5t161 175.5v224h-393v66h393v90q-199 -9 -310 -10l-3 62q144 2 346.5 12t341.5 22l8 -65
q-113 -9 -311 -18v-93h398v-66h-398v-223zM70 284q15 3 213 58v74h-191v56h191v63h65v-302h-65v51l-202 -60zM651 535h65v-96q102 35 167 73l26 -52q-57 -32 -193 -79v-53q0 -24 9.5 -33t33.5 -9h46q33 0 45.5 10t14.5 38q2 20 2 65l56 -12l-2 -44l-1 -29q-3 -50 -27 -68.5
t-82 -18.5h-69q-48 0 -69.5 21.5t-21.5 70.5v216z" />
    <glyph glyph-name="uni4E59" unicode="&#x4e59;" 
d="M134 218q34 51 154 160.5t378 321.5h-534v79h659v-78q-252 -201 -386 -320t-177.5 -172t-43.5 -78q0 -74 99 -74h430q43 0 65 7.5t31 26t12 54.5q4 63 7 162l79 -22q-3 -30 -11 -168q-3 -53 -20.5 -82.5t-54 -42t-98.5 -12.5h-461q-79 0 -120.5 38t-41.5 102q0 47 34 98z
" />
    <glyph glyph-name="uni4E5C" unicode="&#x4e5c;" 
d="M928 221q-1 -29 -7 -141q-3 -44 -17 -67.5t-44.5 -33t-85.5 -9.5h-370q-88 0 -124 34.5t-36 119.5v355l-170 -42l-15 79l185 46v262h83v-242l479 119q-14 -315 -16 -336q-4 -51 -17 -77.5t-42.5 -37t-84.5 -10.5h-124l-14 76h115q38 0 56.5 5.5t26.5 21t10 47.5
q4 40 8.5 115t4.5 95l-402 -100v-349q0 -45 8.5 -66.5t31 -30t68.5 -8.5h305q47 0 68.5 6t30 22.5t10.5 54.5l4 111z" />
    <glyph glyph-name="uni4E5D" unicode="&#x4e5d;" 
d="M940 252l-6 -185q-3 -55 -29 -77t-89 -22h-92q-54 0 -79.5 26t-25.5 89v475h-217q-5 -168 -31 -269.5t-85.5 -180.5t-177.5 -177l-54 65q110 88 163.5 156t76.5 158.5t27 247.5h-240v83h241q2 175 4 205h83l-5 -205h298v-543q0 -28 10 -40.5t34 -12.5h55q32 0 45 11.5
t15 41.5q2 37 4 88t2 82z" />
    <glyph glyph-name="uni4E5E" unicode="&#x4e5e;" 
d="M901 734v-76h-621q-69 -103 -158 -196l-49 65q155 151 236 343l74 -29q-22 -51 -55 -107h573zM816.5 183.5q1.5 38.5 1.5 65.5l78 -21q-1 -30 -4 -71.5t-5 -69.5q-4 -51 -19.5 -77.5t-49.5 -37.5t-98 -11h-426q-66 0 -99 31.5t-33 75.5q0 45 36 90.5t125.5 112
t266.5 181.5h-369v75h522v-70q-230 -146 -334.5 -219.5t-129.5 -102t-25 -52.5q0 -48 74 -48h378q42 0 63.5 7t31 24.5t12.5 51.5q2 27 3.5 65.5z" />
    <glyph glyph-name="uni4E5F" unicode="&#x4e5f;" 
d="M934 212l-8 -134q-4 -46 -18 -69.5t-43.5 -32.5t-85.5 -9h-428q-88 0 -125.5 34t-37.5 119v324l-121 -31l-14 75l135 34v210h80v-190l199 50v253h75v-234l309 78q-3 -64 -8.5 -172.5t-9.5 -170.5q-4 -44 -17.5 -68t-40.5 -34t-74 -10h-90l-16 73h76q36 0 53 5.5t24 20
t9 46.5l1 26q4 48 6.5 101.5t3.5 86.5l-226 -58v-406h-75v387l-199 -51v-319q0 -44 10 -66t33.5 -30t68.5 -8h364q49 0 70 5t29 21t10 54q4 88 4 109z" />
    <glyph glyph-name="uni4E60" unicode="&#x4e60;" 
d="M864 778q-2 -28 -5 -159q-3 -82 -9 -271.5t-8 -221.5q-5 -63 -23.5 -97.5t-57 -49t-106.5 -14.5h-172l-15 79h159q51 0 77.5 9.5t38 33t14.5 69.5q3 49 13 324l9 218h-672v80h757zM254 637l56 -39q143 -97 217 -151l-49 -69q-111 84 -274 197zM92 171l96 38
q405 158 502 202l14 -84l-215 -87q-303 -122 -369 -151z" />
    <glyph glyph-name="uni4E61" unicode="&#x4e61;" 
d="M856 514l-16 -84q-30 -149 -107.5 -239t-223.5 -148.5t-405 -111.5l-33 75q187 38 306 75t194.5 85t120.5 115l-505 -43l-22 77q165 95 324 216l-326 -22l-18 72q82 54 174 131t152 141l68 -39q-165 -155 -271 -229l309 17q103 85 176 162l70 -40
q-112 -115 -245.5 -220.5t-267.5 -185.5l420 35q18 41 32 98q9 36 15 76z" />
    <glyph glyph-name="uni4E66" unicode="&#x4e66;" 
d="M890 619q-150 125 -219 174l46 61q92 -70 222 -172zM789 690l-25 -287h141q-1 -40 -23 -255q-7 -67 -44 -94t-115 -27h-126l-17 74h126q51 0 72.5 16.5t26.5 60.5q14 113 17 149h-366v-398h-79v398h-316v76h316v211h-251v76h251v162h79v-162h333zM707 614h-251v-211h232z
" />
    <glyph glyph-name="uni4E69" unicode="&#x4e69;" 
d="M934 242l-3 -121l-1 -38q-1 -67 -30.5 -92t-102.5 -25h-80q-47 0 -73 12t-37.5 40t-11.5 79v742h78v-729q0 -43 15 -57t53 -14h42q32 0 47 5.5t20.5 19.5t6.5 45l4 148zM239 835h75v-170h216v-72h-216v-190h166v-398h-303v-64h-73v462h135v432zM177 80h231v246h-231v-246
z" />
    <glyph glyph-name="uni4E70" unicode="&#x4e70;" 
d="M828 516l-74 29l64 170h-709v71h789v-72zM441 484q-54 34 -124.5 76.5t-109.5 62.5l35 60q114 -61 235 -132zM936 224h-342q-7 -21 -18 -39q74 -37 177.5 -92.5t126.5 -67.5q12 -7 23 -12.5t19 -10.5l-40 -67l-29 16q-250 137 -319 174q-56 -65 -157.5 -110.5
t-269.5 -85.5l-28 74q129 28 213 59t135.5 70t79.5 92h-439v71h466q16 64 19 174q4 168 4 206h80q0 -46 -1.5 -108t-3.5 -108q-3 -97 -17 -164h321v-71zM162 529q32 -18 47 -28q129 -74 195 -115l-36 -65q-37 25 -101 63.5t-86 51.5l-55 33z" />
    <glyph glyph-name="uni4E71" unicode="&#x4e71;" 
d="M932 237q-2 -42 -7 -164q-2 -46 -15 -71t-40 -35.5t-75 -10.5h-77q-46 0 -72.5 12t-38 40t-11.5 78v750h78v-736q0 -43 13.5 -57t47.5 -14h44q31 0 46 5.5t20.5 19.5t7.5 45q1 30 2.5 76t1.5 77zM334 554h203v-73h-203v-148h149v-343h-302v-57h-73v400h150v148h-204v73
h204v145q-99 -11 -182 -17l-6 72q111 8 225.5 22.5t194.5 31.5l13 -72q-76 -16 -169 -28v-154zM181 62h225v197h-225v-197z" />
    <glyph glyph-name="uni4E73" unicode="&#x4e73;" 
d="M939 233q0 -31 -5 -166q-3 -63 -29 -86t-92 -23h-82q-66 0 -91.5 26.5t-25.5 95.5v756h73v-745q0 -36 12 -48t47 -12h51q30 0 44 5t19 17.5t6 38.5l3 155zM70 778q124 5 253 16.5t222 28.5l11 -70q-93 -16 -226 -28.5t-256 -18.5zM539 684q-22 -52 -84 -178l-58 27
q21 39 45.5 90t40.5 87zM313 707q43 -103 56 -140l-59 -23q-21 57 -55 138zM151 521l-19 44q-31 73 -44 99l58 27q7 -14 51 -113q4 -10 7 -17t5 -12zM549 266l1 -34q-103 -15 -196 -27v-145q0 -56 -26.5 -80t-91.5 -24h-92l-14 69h86q39 0 52 10.5t13 42.5v117l-223 -30
l-4 74q93 9 227 27v50l140 111h-328v67h433v-65l-172 -142v-11q103 13 193 27z" />
    <glyph glyph-name="uni4E7E" unicode="&#x4e7e;" 
d="M939 642h-326q-31 -65 -73 -136h306v-69q-265 -308 -265 -376q0 -17 10 -24t36 -7h163q40 0 52.5 10.5t14.5 42.5q4 96 4 123l68 -14q0 -26 -1.5 -65t-3.5 -69q-3 -55 -28.5 -75.5t-90.5 -20.5h-196q-48 0 -80 21t-32 61q0 58 58 146.5t198 246.5h-214v67l-9 -14l-59 42
q48 74 83.5 153t63.5 172l70 -17q-17 -57 -43 -125h294v-73zM449 255h-139v-93h180v-69h-180v-160h-70v160h-179v69h179v93h-139v338h139v87h-171v65h171v103h70v-103h173v-65h-173v-87h139v-338zM381 455v75h-212v-75h212zM381 393h-212v-75h212v75z" />
    <glyph glyph-name="uni4E86" unicode="&#x4e86;" 
d="M96 777h786v-79l-333 -236v-382q0 -50 -13 -76.5t-42.5 -37.5t-85.5 -11h-140l-14 81h128q37 0 53.5 5.5t23 20.5t6.5 47v394l287 195h-656v79z" />
    <glyph glyph-name="uni4E88" unicode="&#x4e88;" 
d="M916 467v-75l-98 -225l-79 30l91 195h-284v-324q0 -48 -12 -74t-40.5 -37t-80.5 -11h-143l-15 77h130q34 0 51 5.5t23.5 21t6.5 48.5v294h-396v75h417q-169 128 -220 163l43 58q66 -47 177 -131l233 167h-574v74h697v-74l-294 -215l53 -42h314z" />
    <glyph glyph-name="uni4E89" unicode="&#x4e89;" 
d="M940 418v-67h-114v-182h-304v-108q0 -61 -29.5 -87t-100.5 -26h-121l-14 68h116q45 0 60 13.5t15 53.5v86h-321v66h321v116h-395v67h395v112h-269v44q-29 -25 -69 -55l-49 58q82 58 156.5 135.5t125.5 154.5l73 -26q-21 -34 -42 -62h352v-69l-108 -113h208v-179h114z
M318 709q-51 -58 -112 -112h312l109 112h-309zM757 530h-235v-112h235v112zM522 235h235v116h-235v-116z" />
    <glyph glyph-name="uni4E8B" unicode="&#x4e8b;" 
d="M941 288v-57h-88v-126h-316v-47q0 -63 -28.5 -88.5t-98.5 -25.5h-122l-13 66h118q42 0 56 13.5t14 50.5v31h-358v58h358v68h-413v57h413v68h-349v57h349v65h-303v173h303v64h-396v59h396v77h74v-77h389v-59h-389v-64h295v-173h-295v-65h316v-125h88zM230 597v-66h233v66
h-233zM761 531v66h-224v-66h224zM784 356h-247v-68h247v68zM537 163h247v68h-247v-68z" />
    <glyph glyph-name="uni4E8C" unicode="&#x4e8c;" 
d="M143 727h714v-83h-714v83zM61 110h878v-83h-878v83z" />
    <glyph glyph-name="uni4E8D" unicode="&#x4e8d;" 
d="M147 785h705v-76h-705v76zM930 510v-82h-369v-348q0 -48 -14.5 -75t-46.5 -39t-88 -12h-140l-16 78h133q52 0 70 15.5t18 58.5v322h-408v82h861z" />
    <glyph glyph-name="uni4E8E" unicode="&#x4e8e;" 
d="M938 466v-77h-382v-315q0 -48 -13.5 -75t-44.5 -38.5t-86 -11.5h-138l-15 78h132q34 0 52 7t24.5 22.5t6.5 44.5v288h-414v77h414v240h-343v75h737v-75h-312v-240h382z" />
    <glyph glyph-name="uni4E8F" unicode="&#x4e8f;" 
d="M149 778h699v-75h-699v75zM936 482h-592l-34 -134h498q-3 -42 -11 -125t-12 -107q-7 -64 -25.5 -98t-57 -48t-108.5 -14h-186l-16 79h180q49 0 75 8t38.5 29t16.5 63q8 95 14 138h-508l49 209h-195v75h874v-75z" />
    <glyph glyph-name="uni4E91" unicode="&#x4e91;" 
d="M147 784h705v-75h-705v75zM489 431q-168 -267 -260 -363l493 39q-87 135 -126 190l63 38q43 -59 114.5 -166t124.5 -192l-65 -47q-47 77 -68 109l-616 -52l-27 81q69 66 141 164t131 199h-325v76h862v-76h-442z" />
    <glyph glyph-name="uni4E92" unicode="&#x4e92;" 
d="M794 557l-36 -496h179v-74h-874v74h614l12 153h-493l80 489h-182v76h815v-76h-549l-25 -146h459zM322 481l-33 -191h406l16 191h-389z" />
    <glyph glyph-name="uni4E93" unicode="&#x4e93;" 
d="M147 792h704v-80h-704v80zM940 504v-81h-223v-491h-81v491h-273v-51q0 -121 -24 -203.5t-70.5 -137t-120.5 -99.5l-52 66q74 47 113.5 93t57 111.5t17.5 172.5v48h-225v81h881z" />
    <glyph glyph-name="uni4E94" unicode="&#x4e94;" 
d="M790 478l-14 -419h167v-74h-881v74h202l59 342h-200v77h213l38 223h-272v76h801v-76h-449l-38 -223h374zM709 401h-307l-59 -342h353z" />
    <glyph glyph-name="uni4E95" unicode="&#x4e95;" 
d="M942 345v-76h-212v-337h-81v337h-283q-9 -77 -31 -133t-63 -105t-112 -109l-60 60q67 55 103.5 95t56 84.5t27.5 107.5h-228v76h233q1 20 1 65v167h-203v77h203v183h79v-183h277v185h81v-185h182v-77h-182v-232h212zM649 345v232h-277v-160q0 -50 -1 -72h278z" />
    <glyph glyph-name="uni4E98" unicode="&#x4e98;" 
d="M96 793h806v-74h-806v74zM812 616v-451h-625v451h625zM735 423v123h-473v-123h473zM262 356v-123h473v123h-473zM65 -21v73h869v-73h-869z" />
    <glyph glyph-name="uni4E9A" unicode="&#x4e9a;" 
d="M651 716v-656h287v-75h-874v75h285v656h-258v75h820v-75h-260zM575 716h-148v-656h148v656zM159 601q32 -71 78 -177.5t80 -190.5l-72 -38q-27 72 -80 200.5t-73 169.5zM676 237q45 83 95 188t77 176l68 -38q-32 -74 -84 -183t-91 -181z" />
    <glyph glyph-name="uni4E9B" unicode="&#x4e9b;" 
d="M937 542q0 -15 -1 -33.5t-2 -34.5q-3 -27 -3 -46q-4 -54 -30.5 -77.5t-85.5 -23.5h-141q-50 0 -74.5 25.5t-24.5 82.5v412h75v-208q158 76 229 125l33 -73q-44 -28 -122 -67.5t-140 -65.5v-98q0 -36 13.5 -49t47.5 -13h81q39 0 53.5 13t17.5 50q3 36 3 97zM533 423l4 -39
q-67 -13 -399 -67l-66 -11l-10 75l77 12v367h73v-355l111 19v418h73v-169h133v-68h-133v-168l134 24zM820 240v-74h-638v74h638zM928 -24h-854v73h854v-73z" />
    <glyph glyph-name="uni4E9F" unicode="&#x4e9f;" 
d="M459 605l241 118h-555v71h700v-67l-310 -160v-361q0 -57 -23 -81t-80 -24h-100l-12 75h78q38 0 49.5 10.5t11.5 45.5v373zM112 579h256v-367h-256v367zM901 577v-66q-39 -108 -103 -192q94 -94 123 -125l-50 -51q-3 4 -7.5 8t-8.5 10q-27 27 -52 53.5t-48 50.5
q-67 -75 -150 -133l-41 55q86 58 145 124q-43 45 -118 120l46 44q64 -60 115 -111q50 69 81 146h-231v67h299zM177 282h125v225h-125v-225zM919 -24h-835v70h835v-70z" />
    <glyph glyph-name="uni4EA0" unicode="&#x4ea0;" 
d="M939 601v-82h-878v82h427q-32 97 -72 178l75 31q44 -84 88 -209h360z" />
    <glyph glyph-name="uni4EA1" unicode="&#x4ea1;" 
d="M937 586h-665v-523h607v-77h-690v600h-124v79h441q-24 66 -70 168l74 24q39 -78 84 -192h343v-79z" />
    <glyph glyph-name="uni4EA2" unicode="&#x4ea2;" 
d="M573 703h354v-76h-845v76h403l-61 130l76 19zM929 218q-5 -120 -7 -151q-6 -56 -29 -79t-69 -23h-99q-60 0 -83.5 24t-23.5 85v355h-268v-95q0 -113 -17 -178t-64 -114t-145 -108l-54 65q95 55 136.5 96.5t54.5 94.5t13 155v159h419v-406q0 -34 12.5 -46t44.5 -12h48
q31 0 40.5 10t11.5 42q2 28 4 70.5t2 70.5z" />
    <glyph glyph-name="uni4EA4" unicode="&#x4ea4;" 
d="M925 717v-77h-850v77h404q-35 82 -51 116l79 20q26 -55 57 -136h361zM867 315q-56 49 -147.5 123t-144.5 112l46 58q52 -37 142.5 -107.5t149.5 -119.5zM85 369q74 49 144 110.5t127 125.5l56 -51q-58 -67 -132 -133t-151 -120zM912 -69q-145 41 -242.5 83.5t-169.5 98.5
q-72 -56 -170 -101t-238 -87l-34 78q131 35 223.5 73.5t159.5 87.5q-83 82 -157 216l65 39q69 -127 151 -205q80 76 142 206l71 -34q-70 -138 -154 -221q69 -49 160 -84.5t222 -66.5z" />
    <glyph glyph-name="uni4EA5" unicode="&#x4ea5;" 
d="M569 711h360v-72h-470q-77 -91 -187 -190l278 11q63 68 122 153l62 -44q-110 -163 -254 -272.5t-366 -195.5l-36 69q132 49 228 101.5t172 118.5l-303 -14l-19 68q108 89 204 195h-290v72h413l-53 126l82 21zM838 396q-99 -133 -223 -233q79 -43 238 -134l56 -32l-44 -72
q-56 35 -155 94t-162 94q-156 -108 -386 -197l-40 73q235 85 389 191.5t270 262.5z" />
    <glyph glyph-name="uni4EA6" unicode="&#x4ea6;" 
d="M927 622h-258v-559q0 -65 -30.5 -92.5t-104.5 -27.5h-100l-15 76h96q43 0 60 14.5t17 54.5v534h-161q0 -97 -5 -197q-6 -139 -28 -223.5t-70 -148.5t-140 -139l-59 57q89 69 133 126.5t62.5 132t24.5 202.5q5 98 5 190h-284v73h413q-21 63 -49 137l83 20q29 -79 54 -157
h356v-73zM270 497q-26 -90 -66.5 -187.5t-90.5 -183.5l-64 38q100 164 152 354zM762 513q34 -61 86.5 -169.5t90.5 -193.5l-71 -37q-35 83 -86.5 194.5t-84.5 172.5z" />
    <glyph glyph-name="uni4EA7" unicode="&#x4ea7;" 
d="M935 658h-196q-18 -78 -54 -193h234v-76h-690v-88q0 -129 -21.5 -210t-79.5 -168l-70 44q40 56 60 103.5t27 103t7 144.5v147h182q-10 40 -39 148l-12 45h-204v76h413q-15 51 -33 103l81 12l38 -115h357v-76zM604 465q32 96 56 193h-297q41 -140 54 -193h187z" />
    <glyph glyph-name="uni4EA8" unicode="&#x4ea8;" 
d="M521 859l46 -113h358v-68h-850v68h406l-39 91zM183 398v208h635v-208h-635zM258 460h484v82h-484v-82zM107 267v66h759v-66l-314 -134v-92q0 -41 -10 -62.5t-35 -30.5t-72 -9h-146l-13 72h128q29 0 43 4.5t18.5 15t4.5 32.5v114l240 90h-603z" />
    <glyph glyph-name="uni4EA9" unicode="&#x4ea9;" 
d="M935 725v-74h-868v74h413q-29 73 -49 118l83 14l14 -32q-1 3 42 -100h365zM228 -63h-78v601h701v-601h-76v67h-547v-67zM464 306v159h-236v-159h236zM537 306h238v159h-238v-159zM228 235v-160h236v160h-236zM537 235v-160h238v160h-238z" />
    <glyph glyph-name="uni4EAB" unicode="&#x4eab;" 
d="M925 755v-68h-851v68h398q-17 50 -33 86l80 13q13 -30 37 -99h369zM813 623v-190h-629v190h629zM738 565h-479v-72h479v72zM943 194v-66h-390v-86q0 -40 -12 -62t-40 -31.5t-79 -9.5h-132l-14 69h126q43 0 57.5 11.5t14.5 46.5v62h-417v66h417v28l224 83h-564v64h704v-64
l-270 -111h375z" />
    <glyph glyph-name="uni4EAC" unicode="&#x4eac;" 
d="M933 734v-71h-866v71h408q-16 51 -38 108l84 13q24 -67 40 -121h372zM819 279h-265v-242q0 -37 -10.5 -57.5t-37.5 -29.5t-76 -9h-103l-15 76h95q30 0 44.5 4t20 15t5.5 32v211h-296v289h638v-289zM742 497h-484v-148h484v148zM341 180q-43 -49 -108 -106t-129 -104
l-48 65q62 40 125 93.5t105 103.5zM694 232q50 -36 126.5 -97t124.5 -103l-47 -64q-45 41 -121.5 105t-127.5 103z" />
    <glyph glyph-name="uni4EAD" unicode="&#x4ead;" 
d="M927 757v-65h-853v65h399q-21 58 -34 86l80 12l36 -98h372zM198 445v185h606v-185h-606zM268 499h466v74h-466v-74zM162 212h-71v172h820v-174h-72v108h-677v-106zM195 167v68h612v-68h-247v-120q0 -40 -11 -63t-37.5 -33t-74.5 -10h-121l-14 72h116q41 0 54 11t13 45v98
h-290z" />
    <glyph glyph-name="uni4EAE" unicode="&#x4eae;" 
d="M927 756v-65h-853v65h394l-27 86l80 15q2 -7 5 -16l7 -21l21 -64h373zM203 440v188h595v-188h-595zM277 496h446v74h-446v-74zM166 210h-72v162h809v-163h-75v97h-662v-96zM846 135l1 29l71 -16l-2 -39q0 -29 -3 -59q-4 -55 -30.5 -75.5t-92.5 -20.5h-79q-58 0 -81 20.5
t-23 74.5v126h-239v-36q0 -49 -24.5 -86t-83.5 -68t-163 -57l-33 70q99 23 147.5 46.5t65 54t16.5 83.5v58h390v-167q0 -30 10 -38.5t41 -8.5h45q37 0 50 10.5t15 43.5q2 34 2 55z" />
    <glyph glyph-name="uni4EB2" unicode="&#x4eb2;" 
d="M936 504v-71h-388v-119h359v-71h-359v-191q0 -44 -10 -67t-35 -32.5t-73 -9.5h-99l-14 76h87q33 0 46 4t17 16t4 43v161h-375v71h375v119h-409v71h263q-29 100 -53 165h-158v72h365l-13 33q-14 31 -28 70l82 12q13 -30 45 -115h321v-72h-148q-22 -70 -57 -165h255z
M350 669q18 -51 54 -165h199q33 79 61 165h-314zM350 165q-77 -80 -246 -198l-41 64q62 39 125.5 89.5t110.5 97.5zM675 213q43 -28 118.5 -81.5t131.5 -94.5l-44 -63q-74 59 -248 179z" />
    <glyph glyph-name="uni4EB3" unicode="&#x4eb3;" 
d="M930 750v-57h-861v57h401l-39 90l77 23q8 -20 17 -38l32 -75h373zM193 472v169h605v-169h-605zM270 527h452v59h-452v-59zM172 260h-73v160h795v-158h-75v101h-647v-103zM925 133l-442 -26v-43q0 -29 10 -38.5t41 -9.5h216q38 0 51.5 11t15.5 37l2 44l69 -18
q0 -22 -4 -52q-6 -48 -29.5 -66.5t-80.5 -18.5h-268q-53 0 -75.5 22t-22.5 76v51l-338 -20l-5 63l343 20v68l-31 -2l-174 -11l-4 59q138 7 291.5 20t280.5 28l8 -59q-114 -13 -296 -29v-70l439 25z" />
    <glyph glyph-name="uni4EB5" unicode="&#x4eb5;" 
d="M922 755v-61h-848v61h400q-26 54 -45 86l78 18q24 -45 52 -104h363zM246 405l-128 -20l-42 -7l-6 61l176 25v79h-145v60h145v73h68v-73h112v-60h-112v-68l100 15l5 -31l3 -27q-37 -5 -108 -16v-73q0 -50 -24 -69.5t-84 -19.5h-84l-11 66h89q30 0 38 8.5t8 35.5v41z
M750 409q-3 39 -3 96v36h-122q-4 -57 -24 -99q63 -24 128 -52l-23 -56q-37 17 -100 42q-7 4 -37 16q-25 -29 -62.5 -54.5t-94.5 -54.5l-37 55q47 22 78.5 40t52.5 38q-56 22 -74 28l21 52q50 -17 89 -32q16 36 19 77h-109v58h111l1 76h63l-1 -76h188v-86q0 -106 10 -147
q5 -24 12.5 -34.5t11.5 -10.5q9 0 14.5 8.5t12.5 36.5q4 15 7.5 41t5.5 48l52 -23q-8 -69 -16 -100q-12 -49 -29 -68.5t-47 -19.5q-27 0 -50 23t-36 70q-9 33 -12 72zM812 223q-48 -32 -148 -89q51 -32 117 -56t154 -42l-28 -71q-155 41 -253.5 98t-170.5 153
q-49 -36 -112 -69v-131l194 62l8 -64l-291 -97l-24 61q23 10 31.5 18t8.5 22v92q-90 -41 -209 -80l-27 66q150 46 260 100.5t191 127.5l50 -42q-28 -25 -29 -26q34 -46 76 -82q84 48 160 105z" />
    <glyph glyph-name="uni4EBA" unicode="&#x4eba;" 
d="M658 298.5q100 -153.5 277 -281.5l-58 -81q-149 120 -240 246t-134 272q-41 -147 -134 -273t-246 -244l-56 72q142 105 227 211.5t124 233t39 291.5v100h79v-131q0 -21 -2 -61q24 -201 124 -354.5z" />
    <glyph glyph-name="uni4EBB" unicode="&#x4ebb;" 
d="M506 824q-59 -122 -139 -232v-659h-77v560q-78 -95 -183 -188l-38 76q111 94 205.5 216t160.5 258z" />
    <glyph glyph-name="uni4EBF" unicode="&#x4ebf;" 
d="M340 823q-35 -107 -78 -205v-683h-76v529q-45 -81 -99 -163l-36 99q61 78 119 197.5t100 252.5zM933 270l-2 -51l-5 -118q-3 -53 -18.5 -81t-46.5 -39.5t-85 -11.5h-285q-66 0 -100.5 29t-34.5 81q0 48 26 107t111.5 178t260.5 333h-355v75h460v-76
q-184 -223 -274.5 -344.5t-117 -173.5t-26.5 -85q0 -29 17 -40t50 -11h250q37 0 56.5 7t28 25.5t10.5 55.5q2 34 3.5 84t0.5 73z" />
    <glyph glyph-name="uni4EC0" unicode="&#x4ec0;" 
d="M358 829q-32 -96 -82 -205v-688h-76v542q-58 -99 -113 -169l-34 87q64 80 126.5 206t105.5 255zM688 506h254v-78h-254v-495h-79v495h-261v78h261v341h79v-341z" />
    <glyph glyph-name="uni4EC1" unicode="&#x4ec1;" 
d="M349 841q-29 -116 -81 -235v-679h-76v522q-45 -83 -99 -159l-41 92q63 91 124.5 222t98.5 260zM391 720h511v-81h-511v81zM341 11v77h599v-77h-599z" />
    <glyph glyph-name="uni4EC2" unicode="&#x4ec2;" 
d="M348 826q-30 -107 -86 -227v-665h-76v520q-44 -74 -94 -145l-33 84q62 92 123 216t92 239zM883 638q-3 -95 -10 -268.5t-12 -272.5q-5 -74 -39 -103t-113 -29h-118l-14 76h107q55 0 76.5 19t25.5 69q2 33 9 215.5t7 217.5h-203q-9 -179 -31 -281.5t-70 -179t-145 -168.5
l-63 57q94 84 140 152t65.5 161t25.5 259h-186v76h189q6 140 6 206h76q0 -33 -5 -206h282z" />
    <glyph glyph-name="uni4EC3" unicode="&#x4ec3;" 
d="M352 818q-38 -111 -82 -206v-678h-76v531q-43 -77 -101 -157l-34 84q59 88 116.5 208t98.5 246zM939 770v-79h-181v-617q0 -70 -30.5 -97.5t-108.5 -27.5h-126l-17 79h124q32 0 48.5 6t23 20.5t6.5 42.5v594h-288v79h549z" />
    <glyph glyph-name="uni4EC4" unicode="&#x4ec4;" 
d="M239 697v-216q0 -143 -10 -233.5t-34 -161.5t-70 -153l-66 48q41 72 62 135t30 145.5t9 212.5v298h775v-75h-696zM715 237q82 -124 225 -218l-50 -74q-113 77 -191.5 179.5t-117.5 227.5q-75 -234 -301 -416l-52 64q156 123 233 263t77 310v80h77v-78q0 -18 -2 -52
q20 -162 102 -286z" />
    <glyph glyph-name="uni4EC5" unicode="&#x4ec5;" 
d="M336 824q-33 -104 -80 -210v-684h-75v535q-49 -88 -106 -159l-27 96q57 75 116 197.5t98 246.5zM947 3l-47 -73q-173 122 -271 236q-109 -120 -290 -237l-49 72q183 117 287 229q-70 95 -116.5 208t-78.5 261v78h495v-77q-29 -147 -75 -260.5t-120 -209.5
q98 -112 265 -227zM461 699q30 -128 70 -225.5t99 -179.5q65 85 104.5 182.5t61.5 222.5h-335z" />
    <glyph glyph-name="uni4EC6" unicode="&#x4ec6;" 
d="M373 821q-41 -117 -90 -216v-670h-77v531q-57 -92 -124 -169l-30 88q152 174 250 464zM891 273q-107 90 -243 193v-535h-78v914h78v-279q62 -45 219 -164l71 -54z" />
    <glyph glyph-name="uni4EC7" unicode="&#x4ec7;" 
d="M322 827q-31 -107 -74 -212v-682h-73v530q-41 -77 -94 -148l-31 89q55 78 110.5 200.5t88.5 242.5zM882 249l63 -13q-1 -25 -2.5 -81.5t-3.5 -98.5q-3 -36 -12 -55t-28.5 -26.5t-56.5 -7.5h-54q-49 0 -70.5 20t-21.5 69v512h-155v-18q-4 -172 -21.5 -274t-60.5 -179.5
t-129 -163.5l-54 64q79 78 117 144.5t53 157t19 254.5v15h-142v74h144l2 167v35h76l-2 -202h227v-563q0 -24 7 -31t31 -7h26q26 0 34 7.5t9 34.5z" />
    <glyph glyph-name="uni4EC9" unicode="&#x4ec9;" 
d="M335 820q-34 -98 -84 -209v-675h-75v526q-39 -71 -78 -132l-39 76q56 93 113.5 213.5t89.5 224.5zM939 248q0 -38 -1.5 -94.5t-2.5 -94.5q-2 -39 -12 -59t-31 -28.5t-60 -8.5h-41q-49 0 -71 22.5t-22 77.5v635h-195v-258q0 -144 -10 -225.5t-41 -146t-98 -136.5l-67 41
q64 71 93 129.5t38 131t9 207.5v335h344v-691q0 -29 8 -38.5t30 -9.5h17q18 0 26 4t11 14.5t4 35.5q1 33 2.5 85.5t1.5 86.5z" />
    <glyph glyph-name="uni4ECA" unicode="&#x4eca;" 
d="M52 480q135 76 240 170.5t174 203.5h71q143 -231 410 -373l-41 -72q-123 68 -232 166t-173 201q-66 -100 -172.5 -196t-234.5 -172zM457 586q49 -53 130 -161l-58 -50q-27 39 -62 85t-65 79zM809 269q-46 -75 -122.5 -173t-143.5 -171l-71 44q64 62 128.5 143.5
t109.5 154.5h-554v76h653v-74z" />
    <glyph glyph-name="uni4ECB" unicode="&#x4ecb;" 
d="M53 446q142 78 243.5 177t168.5 224h70q72 -133 173 -230t237 -165l-43 -76q-127 65 -229 162t-173 221q-76 -122 -174 -216.5t-228 -170.5zM622 471h78v-534h-78v534zM122 -12q73 55 110.5 100.5t52.5 102t15 147.5v130h77v-122q0 -109 -17.5 -180t-60.5 -127t-125 -114
z" />
    <glyph glyph-name="uni4ECD" unicode="&#x4ecd;" 
d="M332 814q-38 -121 -82 -220v-661h-73v516q-47 -81 -97 -142l-31 90q58 75 113.5 193.5t94.5 247.5zM771 478h130l-19 -392q-3 -52 -16.5 -78.5t-44.5 -37.5t-89 -11h-126l-14 72h115q41 0 61 6.5t29 24.5t12 56q13 247 14 288h-128v72l58 224h-220q-2 -242 -16.5 -371.5
t-53 -217t-120.5 -186.5l-63 53q81 98 116 175.5t47.5 193.5t14.5 353h-96v74h470v-70z" />
    <glyph glyph-name="uni4ECE" unicode="&#x4ece;" 
d="M899 -71q-96 106 -157 216t-92 245q-28 -124 -90.5 -235t-172.5 -228l-59 60q114 119 172.5 222.5t81 219t22.5 286.5v124h78v-128q0 -24 -2 -66q13 -213 78 -361.5t194 -280.5zM458 247q-54 80 -146 201q-18 -145 -60 -256.5t-127 -244.5l-70 48q78 121 118 215.5
t57.5 204.5t22.5 282l3 141h78l-5 -144q-4 -90 -7 -141q127 -156 187 -239z" />
    <glyph glyph-name="uni4ED1" unicode="&#x4ed1;" 
d="M536 841q67 -101 172 -191t232 -162l-45 -74q-116 68 -221 159.5t-171 185.5q-71 -96 -176.5 -186.5t-224.5 -161.5l-42 73q126 69 233 162.5t174 194.5h69zM766 233l78 -20l-9 -137q-4 -62 -40.5 -89t-114.5 -27h-301q-53 0 -84.5 13.5t-46.5 46t-15 90.5v375h80v-176
q100 34 218.5 84.5t195.5 92.5l35 -79q-81 -40 -219.5 -96t-229.5 -88v-109q0 -32 6.5 -48t22.5 -23t49 -7h267q58 0 79.5 17.5t23.5 64.5z" />
    <glyph glyph-name="uni4ED3" unicode="&#x4ed3;" 
d="M237 504h509l-6 -195q-1 -51 -15 -78.5t-44 -39t-84 -11.5h-136l-13 73h126q37 0 56.5 6.5t27.5 22.5t10 47l2 102h-375v-306q0 -39 6.5 -59t25 -28.5t58.5 -8.5h305q44 0 64.5 7t28.5 24.5t11 54.5q5 85 5 103l79 -22q-1 -26 -3.5 -58.5t-5.5 -57.5q-6 -51 -21 -77.5
t-46.5 -37.5t-90.5 -11h-341q-57 0 -89.5 13t-47 45t-14.5 91v388q-55 -41 -125 -82l-39 78q127 66 234 162t173 201h75q67 -105 172.5 -196t235.5 -157l-38 -79q-121 63 -230.5 157.5t-176.5 192.5q-101 -142 -263 -264z" />
    <glyph glyph-name="uni4ED4" unicode="&#x4ed4;" 
d="M339 825q-37 -110 -86 -221v-670h-76v520q-42 -74 -95 -144l-34 85q59 78 119 203t98 246zM940 425v-77h-249v-282q0 -44 -12 -68t-40 -34t-79 -10h-125l-14 78h114q33 0 49 5t22 18t6 39v254h-285v77h285v115l172 163h-386v76h497v-76l-204 -193v-85h249z" />
    <glyph glyph-name="uni4ED5" unicode="&#x4ed5;" 
d="M358 822q-36 -104 -86 -207v-681h-77v533q-53 -91 -102 -160l-33 83q60 88 124 214.5t103 241.5zM940 555v-76h-257v-411h239v-78h-557v78h240v411h-268v76h268v288h78v-288h257z" />
    <glyph glyph-name="uni4ED6" unicode="&#x4ed6;" 
d="M935 199q0 -26 -1.5 -62.5t-3.5 -63.5q-3 -43 -15.5 -66.5t-41.5 -33.5t-83 -10h-277q-75 0 -106 29t-31 103v345l-85 -27l-11 75l96 30v223h73v-201l135 42v261h73v-238l230 71q-2 -30 -4 -102t-5 -145q-1 -47 -2 -71.5t-1 -32.5q-2 -58 -28.5 -79t-91.5 -21h-47l-14 72
h39q31 0 45 4t19 16t7 40l8 221l-155 -49v-402h-73v379l-135 -43v-345q0 -36 7 -53t26 -24t58 -7h219q44 0 64.5 6t28 20.5t8.5 46.5q1 22 2 53.5t1 54.5zM324 820q-37 -116 -77 -207v-679h-73v530q-44 -79 -94 -151l-28 86q53 72 109 194.5t92 244.5z" />
    <glyph glyph-name="uni4ED7" unicode="&#x4ed7;" 
d="M907 -58q-194 76 -304 170q-46 -46 -113.5 -90.5t-163.5 -91.5l-41 68q91 44 155 85t107 84q-61 67 -101.5 153.5t-64.5 200.5l68 17q21 -102 56.5 -178.5t89.5 -135.5q41 62 57.5 140t18.5 198v28h-349v75h349v181h79v-181h184v-75h-185v-20q-2 -140 -23 -233.5
t-74 -166.5q105 -84 289 -150zM332 820q-33 -118 -80 -226v-659h-73v513q-49 -85 -101 -151l-27 93q58 73 116 198.5t93 251.5z" />
    <glyph glyph-name="uni4ED8" unicode="&#x4ed8;" 
d="M342 819q-39 -116 -77 -201v-685h-78v531q-48 -82 -103 -153l-30 94q53 68 112 188t99 247zM938 638v-78h-140v-489q0 -68 -32 -95t-111 -27h-127l-15 80h121q35 0 52 5.5t23.5 19.5t6.5 41v465h-383v78h383v196h82v-196h140zM536 202q-27 44 -72.5 113.5t-80.5 121.5
l63 43q65 -94 153 -233z" />
    <glyph glyph-name="uni4ED9" unicode="&#x4ed9;" 
d="M315 825q-32 -111 -75 -208v-684h-74v535q-44 -79 -89 -141l-30 85q57 81 111 198t86 235zM816 73v603h75v-733h-75v57h-457v675h75v-602h153v771h76v-771h153z" />
    <glyph glyph-name="uni4EDD" unicode="&#x4edd;" 
d="M337 565q-96 -88 -233 -176l-45 74q141 84 240 175.5t166 200.5h69q66 -109 169.5 -204t236.5 -171l-44 -73q-263 161 -396 363q-67 -101 -163 -189zM805 336h-265v-279h378v-76h-836v76h377v279h-265v78h611v-78z" />
    <glyph glyph-name="uni4EDE" unicode="&#x4ede;" 
d="M324 825q-33 -110 -82 -224v-667h-72v515q-42 -80 -84 -146l-27 98q52 97 104.5 216t83.5 228zM359 768h543q-4 -117 -15 -369.5t-14 -296.5q-3 -57 -18 -87t-47.5 -42t-92.5 -12h-124l-12 76h117q40 0 60.5 8.5t29 28t10.5 57.5l25 562h-190q-3 -122 -5 -165
q-8 -165 -33.5 -268.5t-77 -177.5t-145.5 -151l-61 60q93 73 140 139t67.5 155.5t31.5 246.5l1 33q3 117 3 128h-193v75zM468 581q-49 -204 -94 -312l-65 31q53 129 92 300z" />
    <glyph glyph-name="uni4EDF" unicode="&#x4edf;" 
d="M344 822q-35 -111 -78 -206v-683h-74v535q-45 -83 -100 -159l-33 79q57 87 116.5 212t97.5 242zM940 424v-78h-249v-410h-76v410h-281v78h281v255q-124 -19 -218 -28l-11 79q104 10 251 32.5t244 44.5l13 -79q-77 -17 -203 -37v-267h249z" />
    <glyph glyph-name="uni4EE1" unicode="&#x4ee1;" 
d="M936 715v-75h-437q-47 -75 -125 -170l-62 53q69 81 118 160.5t85 173.5l77 -29q-23 -62 -51 -113h395zM340 823q-30 -100 -78 -209v-676h-76v520q-41 -77 -89 -156l-38 87q58 88 113.5 213t91.5 246zM850 226l75 -18l-1 -22q-1 -23 -2.5 -55t-3.5 -60q-4 -57 -35 -79
t-105 -22h-292q-49 0 -77.5 23.5t-28.5 63.5q0 58 81 151t243 225h-293v73h407v-70q-189 -157 -269.5 -242t-80.5 -118q0 -19 12 -26t39 -7h251q32 0 47.5 4.5t21.5 17.5t7 40z" />
    <glyph glyph-name="uni4EE3" unicode="&#x4ee3;" 
d="M936 199q-17 -99 -30 -140q-19 -63 -48.5 -89t-73.5 -26q-37 0 -68.5 21t-66.5 72q-84 122 -119 418l-208 -21l-6 76l207 21q-6 55 -9 118l-10 196h76l9 -199q2 -43 8 -108l332 34l5 -76l-329 -33q16 -140 44.5 -236.5t62.5 -143.5q20 -29 36.5 -40t34.5 -11q17 0 27.5 5
t19 21.5t16.5 49.5q14 61 26 123zM353 817q-38 -113 -89 -224v-659h-75v516q-51 -87 -108 -161l-31 89q65 77 126.5 203t102.5 259zM826 611q-35 35 -84.5 81.5t-77.5 70.5l42 50q37 -31 87.5 -75t78.5 -71z" />
    <glyph glyph-name="uni4EE4" unicode="&#x4ee4;" 
d="M536 846q67 -105 171 -196t240 -160l-42 -77q-122 63 -231 158.5t-174 196.5q-67 -99 -174 -191t-241 -165l-35 78q129 66 235.5 157.5t179.5 198.5h71zM462 608q27 -28 63 -71t62 -78l-58 -48q-75 101 -124 153zM150 306v79h674v-83q-160 -162 -247 -236q72 -39 135 -77
l-44 -73q-92 57 -224 133t-211 116l39 69q37 -19 103 -55t100 -54q4 -3 28 -16q51 43 110.5 98.5t101.5 98.5h-565z" />
    <glyph glyph-name="uni4EE5" unicode="&#x4ee5;" 
d="M498 528q-30 61 -76 145.5t-77 131.5l63 41q51 -80 159 -278zM882 -46q-35 51 -175 223q-44 -66 -115 -125t-183 -123l-46 70q144 78 218 155.5t104.5 173t42.5 251.5q5 61 5 249h79v-66q0 -140 -4 -189q-7 -106 -20.5 -182t-39.5 -137q80 -95 193 -239zM466 367l43 -70
l-355 -310l-55 68q19 21 25.5 33t6.5 29v686h81v-651z" />
    <glyph glyph-name="uni4EE8" unicode="&#x4ee8;" 
d="M337 820q-32 -105 -82 -219v-667h-77v510q-46 -84 -90 -145l-29 107q53 81 112 207t90 236zM367 746h544v-77h-544v77zM885 423v-76h-497v76h497zM322 -7v77h618v-77h-618z" />
    <glyph glyph-name="uni4EEA" unicode="&#x4eea;" 
d="M341 822q-35 -125 -87 -240v-647h-74v507q-43 -71 -102 -146l-31 92q68 85 124.5 204.5t93.5 251.5zM630 579q-18 43 -50.5 110.5t-58.5 117.5l68 35q26 -49 59.5 -117t51.5 -109zM943 8l-40 -80q-167 103 -275 220q-54 -55 -125 -107.5t-168 -108.5l-43 69
q96 57 165 106.5t119 101.5q-78 100 -131.5 225t-87.5 287l70 24q30 -150 78.5 -267t123.5 -211q70 88 111.5 204.5t70.5 296.5l75 -17q-37 -196 -84 -322.5t-121 -220.5q102 -108 262 -200z" />
    <glyph glyph-name="uni4EEB" unicode="&#x4eeb;" 
d="M350 821q-41 -121 -89 -223v-662h-74v520q-48 -82 -97 -144l-31 83q57 76 117 200.5t99 249.5zM645 814q-53 -124 -131 -257.5t-151 -223.5l-64 50q77 89 151 216t120 246zM868 -63q-14 36 -40 92l-459 -33l-28 83q109 107 226.5 280t177.5 311l74 -35
q-66 -138 -167.5 -295t-196.5 -262l338 27q-40 89 -92 197l65 37q41 -83 88.5 -183t86.5 -184z" />
    <glyph glyph-name="uni4EEC" unicode="&#x4eec;" 
d="M313 829q-29 -100 -71 -201v-694h-75v532q-43 -84 -89 -154l-29 102q50 68 105.5 192t89.5 242zM435 847q51 -54 123 -149l-52 -50q-77 102 -124 156zM593 780h303v-697q0 -58 -11.5 -87t-39.5 -40t-81 -11h-130l-14 78h123q32 0 47.5 6t21.5 22.5t6 51.5v604h-225v73z
M442 -60h-79v696h79v-696z" />
    <glyph glyph-name="uni4EF0" unicode="&#x4ef0;" 
d="M309 829q-34 -121 -70 -214v-679h-72v517q-41 -81 -89 -148l-28 89q51 81 101.5 204.5t87.5 251.5zM589 761q-34 -19 -79 -38t-83 -31v-517l140 73l4 -85l-216 -107l-25 79q15 10 20 18t5 20v577q45 12 104 36t101 46zM604 759h295v-566q0 -63 -25 -87.5t-88 -24.5h-68
l-15 73h54q42 0 55.5 13t13.5 52v469h-150v-753h-72v824z" />
    <glyph glyph-name="uni4EF2" unicode="&#x4ef2;" 
d="M321 824q-38 -115 -76 -207v-685h-70v532q-39 -76 -81 -147l-35 80q126 244 191 452zM665 849v-186h230v-422h-230v-308h-79v308h-240v422h240v186h79zM421 587v-268h165v268h-165zM665 587v-268h154v268h-154z" />
    <glyph glyph-name="uni4EF3" unicode="&#x4ef3;" 
d="M308 823q-17 -88 -56 -194v-695h-75v522q-43 -86 -80 -149l-38 81q55 101 105.5 227.5t71.5 235.5zM859.5 196q1.5 53 1.5 86l76 -17l-6 -124l-3 -69q-3 -57 -31.5 -82t-93.5 -25h-65q-56 0 -81 22.5t-25 83.5v769h76v-349q52 44 103.5 96.5t79.5 90.5l49 -63
q-37 -47 -104.5 -111.5t-127.5 -111.5v-290q0 -36 10 -48.5t40 -12.5h38q34 0 46 13.5t14 50.5q2 38 3.5 91zM458 72l132 84l7 -88l-202 -120l-43 76q19 11 24.5 20t5.5 27v760h76v-281h136v-78h-136v-400z" />
    <glyph glyph-name="uni4EF5" unicode="&#x4ef5;" 
d="M940 372v-76h-251v-364h-81v364h-296v76h296v260h-121q-52 -108 -108 -194l-66 46q50 77 102.5 183.5t75.5 188.5l73 -25q-18 -59 -44 -124h393v-75h-224v-260h251zM343 822q-38 -114 -81 -210v-678h-75v526q-41 -76 -91 -152l-37 77q56 97 115.5 224.5t95.5 242.5z" />
    <glyph glyph-name="uni4EF6" unicode="&#x4ef6;" 
d="M942 321v-75h-246v-315h-80v315h-300v75h300v240h-158q-33 -105 -61 -172l-77 34q36 78 68.5 178t52.5 192l72 -18q-17 -77 -34 -138h137v221h80v-221h212v-76h-212v-240h246zM326 831q-29 -112 -76 -226v-680h-76v522q-47 -87 -97 -152l-29 90q56 83 114.5 215t90.5 255
z" />
    <glyph glyph-name="uni4EF7" unicode="&#x4ef7;" 
d="M650 843q50 -117 126.5 -209.5t171.5 -148.5l-42 -70q-96 63 -167.5 147.5t-121.5 196.5q-48 -106 -117 -188.5t-175 -160.5l-44 68q214 147 298 365h71zM333 820q-33 -104 -85 -217v-669h-75v522q-44 -78 -90 -146l-31 89q59 86 116 205t96 238zM784 -63h-76v529h76
v-529zM451 461h76v-121q0 -105 -12.5 -170.5t-43 -119t-91.5 -125.5l-68 48q57 62 86 110.5t41 106.5t12 148v123z" />
    <glyph glyph-name="uni4EFB" unicode="&#x4efb;" 
d="M338 821q-33 -102 -79 -206v-676h-77v525q-43 -77 -98 -150l-30 86q57 82 115.5 202t96.5 241zM939 361h-264v-299h244v-75h-565v75h241v299h-266v78h266v243q-129 -14 -221 -19l-7 76q125 7 266 24.5t254 40.5l18 -77q-106 -20 -230 -35v-253h264v-78z" />
    <glyph glyph-name="uni4EFD" unicode="&#x4efd;" 
d="M713 850q38 -134 92 -224t136 -152l-43 -78q-95 88 -157 191t-102 245zM322 819q-35 -128 -77 -224v-661h-75v510q-45 -75 -94 -137l-26 91q58 77 111.5 195.5t92.5 249.5zM577 799q-64 -184 -199 -347h455l-5 -95q-12 -241 -15 -267q-5 -77 -39 -106.5t-107 -29.5h-114
l-15 75h106q37 0 56 8.5t27 28.5t11 60q4 48 8.5 125.5t6.5 124.5h-204l-2 -25q-11 -104 -31.5 -171.5t-63 -125.5t-120.5 -123l-55 60q73 53 112.5 100.5t58.5 108.5t24 153l1 23h-95v76q-23 -28 -53 -60l-44 65q70 66 128.5 161.5t96.5 204.5z" />
    <glyph glyph-name="uni4EFF" unicode="&#x4eff;" 
d="M554 621l-4 -127l-2 -32h322q-3 -64 -8.5 -178t-9.5 -188q-3 -55 -18 -83t-47.5 -38.5t-92.5 -10.5h-114l-13 74h100q41 0 62.5 7t32 25t13.5 52q3 26 9 132.5t6 130.5h-247q-9 -108 -28.5 -183.5t-56 -139.5t-99.5 -133l-63 57q72 75 107 139t48.5 145.5t21.5 231.5
l5 119h-147v74h284q-12 32 -52 147l80 13q20 -51 57 -160h245v-74h-391zM334 822q-41 -122 -77 -205v-683h-78v524q-40 -72 -96 -147l-32 86q116 162 205 446z" />
    <glyph glyph-name="uni4F01" unicode="&#x4f01;" 
d="M325.5 579q-112.5 -97 -230.5 -166l-42 73q127 71 236.5 165.5t176.5 190.5h70q72 -101 178 -192.5t234 -159.5l-42 -73q-115 64 -226.5 159.5t-177.5 187.5q-64 -88 -176.5 -185zM825 280h-265v-227h364v-74h-857v74h136v367h77v-367h201v519h79v-215h265v-77z" />
    <glyph glyph-name="uni4F09" unicode="&#x4f09;" 
d="M681 699h257v-73h-597v73h256l-56 131l75 20zM336 816q-33 -106 -79 -214v-671h-75v513q-47 -87 -88 -153l-35 84q68 136 118 246t83 220zM940 210q1 -23 -4 -159q-2 -54 -20 -74t-68 -20h-49q-46 0 -67 21t-21 74v373h-207v-91q0 -113 -10.5 -176t-41.5 -113.5
t-97 -112.5l-59 55q65 58 91 98.5t34 96.5t8 177v142h357v-425q0 -30 6 -38.5t26 -8.5h17q20 0 26 9t7 43q1 28 2.5 78t0.5 65z" />
    <glyph glyph-name="uni4F0A" unicode="&#x4f0a;" 
d="M323 825q-35 -120 -83 -237v-656h-74v497q-34 -67 -67 -121l-40 78q52 98 105 220.5t86 236.5zM939 547v-75h-77v-233h-307q-12 -72 -37.5 -123.5t-66.5 -94t-108 -90.5l-59 61q90 58 133 110t61 137h-169v76h180q5 59 7 157h-213v75h213v159h-155v74h521v-233h77z
M786 706h-215v-159h215v159zM786 315v157h-215q-2 -110 -6 -157h221z" />
    <glyph glyph-name="uni4F0D" unicode="&#x4f0d;" 
d="M323 835q-35 -124 -79 -229v-674h-74v523q-42 -73 -95 -140l-35 76q60 84 117.5 209.5t93.5 251.5zM854 472l-10 -417h101v-71h-649v71h134l46 343h-133v74h142l31 226h-172v74h568v-74h-319l-30 -226h291zM774 398h-221l-45 -343h259z" />
    <glyph glyph-name="uni4F0E" unicode="&#x4f0e;" 
d="M330 830q-35 -118 -81 -228v-669h-75v516q-35 -63 -89 -141l-26 105q50 74 103.5 191.5t90.5 244.5zM901 -69q-173 68 -285 156q-109 -80 -288 -156l-35 76q169 69 262 134q-108 108 -180 271v74h202v142h-246v75h246v146h79v-146h269v-75h-269v-142h204v-75
q-34 -85 -77.5 -151t-103.5 -121q97 -69 261 -127zM463 412q55 -135 154 -225q56 48 93 102.5t63 122.5h-310z" />
    <glyph glyph-name="uni4F0F" unicode="&#x4f0f;" 
d="M343 823q-37 -117 -87 -223v-666h-75v524q-38 -65 -97 -148l-27 100q52 69 112.5 194t97.5 246zM737.5 214q76.5 -120 202.5 -208l-54 -70q-97 70 -168 169t-110 213q-33 -103 -100 -196t-178 -191l-52 62q144 122 209.5 237t75.5 264h-248v77h250v275h78v-275h285v-77
h-288q0 -8 -1 -12q22 -148 98.5 -268zM840 615q-21 27 -65.5 74.5t-73.5 73.5l50 48q56 -52 142 -144z" />
    <glyph glyph-name="uni4F10" unicode="&#x4f10;" 
d="M939 196q-4 -24 -13.5 -68t-17.5 -73q-16 -59 -47 -87t-69 -28t-78 26.5t-78 84.5q-29 46 -47 97q-104 -71 -235 -129l-36 71q140 60 248 134q-27 108 -44 277l-189 -23l-6 75l187 23l-6 71q-7 75 -12 170l-2 27l77 1q0 -22 3 -81.5t8 -124.5l4 -54l344 42l8 -75
l-344 -42q15 -144 37 -237q116 94 197 220l59 -47q-100 -144 -233 -250q23 -65 54 -111q42 -62 82 -62q20 0 33 16.5t25 60.5q7 25 25 126zM353 815q-36 -111 -87 -218v-664h-75v525q-48 -80 -110 -156l-30 86q61 74 125 200.5t103 251.5zM809 641q-88 82 -164 139l42 54
q89 -67 169 -138z" />
    <glyph glyph-name="uni4F11" unicode="&#x4f11;" 
d="M898 60q-157 162 -249 378v-507h-77v508q-95 -220 -244 -385l-55 64q188 189 285 458h-229v77h243v195h77v-195h270v-77h-259q96 -265 289 -449zM330 815q-34 -107 -80 -212v-672h-76v525q-47 -80 -103 -150l-22 95q53 69 113.5 191.5t96.5 243.5z" />
    <glyph glyph-name="uni4F17" unicode="&#x4f17;" 
d="M106 421l-40 74q141 73 239.5 159t162.5 190h68q66 -107 165 -191t235 -151l-39 -75q-254 131 -394 331q-131 -190 -397 -337zM456 150q-62 77 -123 146q-23 -99 -72 -184.5t-136 -181.5l-62 56q75 76 119 143t67 140.5t29 169.5l5 77h76l-6 -82l-4 -45l29 -32
q90 -100 132 -149zM761.5 192q61.5 -110 178.5 -197l-50 -65q-173 135 -234 333q-27 -94 -82 -175.5t-146 -167.5l-60 60q123 108 178.5 210.5t65.5 242.5l1 36l2 47h75l-5 -73q15 -141 76.5 -251z" />
    <glyph glyph-name="uni4F18" unicode="&#x4f18;" 
d="M336 824q-37 -120 -85 -225v-666h-75v521q-47 -80 -99 -145l-25 93q57 71 115 194t95 249zM921 537h-346q-7 -136 -31 -234.5t-74 -185.5t-137 -183l-62 53q83 87 129.5 165.5t69 168.5t29.5 216h-186v74h189v11l3 223h77l-4 -230v-4h343v-74zM811 642q-16 17 -114 109
l-24 22l46 50q105 -93 140 -128zM932 237q0 -32 -1.5 -83t-2.5 -81q-2 -46 -14 -69.5t-37 -32t-71 -8.5h-72q-54 0 -80 25.5t-26 89.5v409h75v-387q0 -37 12 -50t45 -13h43q23 0 34 4.5t15.5 17t5.5 39.5l3 154z" />
    <glyph glyph-name="uni4F19" unicode="&#x4f19;" 
d="M741.5 222q69.5 -116 202.5 -216l-55 -72q-102 85 -167.5 176.5t-99.5 202.5q-35 -112 -105.5 -205.5t-174.5 -177.5l-56 64q109 80 172 162.5t90.5 185t27.5 246.5v252h80v-312q0 -15 -1 -23q17 -167 86.5 -283zM328 811q-33 -109 -77 -211v-668h-76v516
q-47 -81 -98 -147l-30 96q52 68 113 192.5t94 241.5zM925 650q-58 -118 -146 -271l-66 36q64 109 145 272zM453 374q-80 159 -140 266l64 38q52 -92 141 -264z" />
    <glyph glyph-name="uni4F1A" unicode="&#x4f1a;" 
d="M538 845q68 -95 173.5 -181t240.5 -153l-35 -72q-126 64 -236.5 153t-177.5 179q-68 -92 -176 -179.5t-241 -155.5l-35 71q136 67 241.5 153.5t175.5 184.5h70zM259 453v70h482v-70h-482zM84 256v72h833v-72h-449q-40 -56 -89 -111t-96 -97l409 19q-74 88 -95 112l57 46
q86 -95 209 -242l-56 -53l-57 68l-577 -29l-17 68q124 99 217 219h-289z" />
    <glyph glyph-name="uni4F1B" unicode="&#x4f1b;" 
d="M313 825q-32 -109 -64 -195v-695h-78v514q-42 -82 -87 -149l-34 94q48 67 100.5 191.5t87.5 257.5zM443 714v-664h492v-72h-569v809h555v-73h-478zM475 146q88 109 174 241q-68 101 -162 230l59 44q43 -59 147 -206q69 110 121 216l63 -36q-55 -110 -139 -245
q110 -158 165 -243l-63 -45q-57 90 -146 220q-83 -126 -164 -228z" />
    <glyph glyph-name="uni4F1E" unicode="&#x4f1e;" 
d="M322.5 603q-105.5 -85 -234.5 -156l-36 76q120 61 234 150t181 176h69q72 -89 177.5 -172t233.5 -154l-39 -74q-121 69 -229.5 156t-176.5 171q-74 -88 -179.5 -173zM463 610h76v-396h391v-76h-391v-207h-76v207h-389v76h389v396zM602 319q36 38 75.5 88t68.5 93l62 -46
q-78 -110 -149 -186zM336 268q-29 42 -69.5 95.5t-68.5 84.5l59 46q29 -35 72.5 -88.5t66.5 -84.5z" />
    <glyph glyph-name="uni4F1F" unicode="&#x4f1f;" 
d="M907 644h-290v-120h264v-71h-264v-119h286q-2 -38 -5.5 -95t-6.5 -96q-6 -61 -37.5 -85.5t-91.5 -24.5h-81l-15 72h63q35 0 52.5 6.5t24 19t9.5 36.5q2 16 4.5 43.5t3.5 48.5h-206v-325h-77v325h-240v75h240v119h-187v71h187v120h-210v73h210v131h77v-131h290v-73z
M333 828q-42 -127 -85 -226v-664h-73v514q-47 -84 -94 -145l-32 82q56 78 111.5 200.5t98.5 257.5z" />
    <glyph glyph-name="uni4F20" unicode="&#x4f20;" 
d="M944 445h-397q-18 -67 -33 -108h350v-68q-44 -68 -146 -211l139 -70l-32 -71q-86 48 -218.5 114t-225.5 107l31 67q60 -27 241 -115q26 35 61 86t61 92h-343v63q16 44 36 114h-160v71h179q16 64 29 120h-155v70h170q19 89 28 148l74 -9q-14 -87 -25 -139h301v-70h-315
q-11 -48 -29 -120h379v-71zM336 827q-37 -116 -82 -216v-678h-71v538q-49 -85 -98 -149l-34 78q59 84 115.5 201.5t98.5 245.5z" />
    <glyph glyph-name="uni4F22" unicode="&#x4f22;" 
d="M326 830q-36 -117 -78 -222v-673h-73v509q-41 -82 -77 -142l-39 85q52 94 103.5 215t88.5 247zM940 465v-73h-154v-325q0 -48 -10.5 -73t-37.5 -36t-79 -11h-113l-13 75h102q35 0 51.5 5t22.5 19t6 45v301h-9q-64 -117 -156.5 -212t-223.5 -182l-48 61q222 139 345 333
h-253v72q8 30 35 151l9 37l76 -11q-8 -36 -20 -88t-20 -88h265v243h-355v74h572v-74h-146v-243h154z" />
    <glyph glyph-name="uni4F24" unicode="&#x4f24;" 
d="M939 720v-75h-459q-50 -84 -119 -165l-58 51q57 62 108 146.5t88 175.5l73 -20q-22 -56 -50 -113h417zM344 823q-38 -110 -89 -218v-670h-74v529q-48 -82 -99 -150l-31 87q58 77 119 200.5t99 244.5zM612 588q-2 -65 -7 -140h283q-2 -63 -8.5 -196t-9.5 -167
q-4 -50 -19 -76t-47 -36.5t-92 -10.5h-117l-14 71h115q43 0 62 6.5t26 23t10 55.5q3 52 7 129t6 127h-207q-10 -109 -31.5 -178t-72 -130.5t-148.5 -136.5l-53 60q90 63 135.5 114.5t66 112t29.5 158.5h-188v74h193l5 140h76z" />
    <glyph glyph-name="uni4F25" unicode="&#x4f25;" 
d="M333 822q-33 -104 -84 -225v-666h-72v512q-38 -74 -80 -146l-38 79q62 120 114 234t89 232zM680 389q38 -127 99 -213t161 -153l-57 -55q-104 77 -168.5 176t-104.5 245h-106v-343l166 75l5 -82l-247 -107l-36 70q35 20 35 42v345h-130v74h130v377h77v-377h435v-74h-259z
M879 742q-65 -52 -152 -111t-156 -98l-41 64q69 36 157 95.5t145 109.5z" />
    <glyph glyph-name="uni4F26" unicode="&#x4f26;" 
d="M333 820q-37 -117 -79 -211v-677h-75v527q-45 -79 -82 -130l-38 86q49 68 106 190t93 243zM661 836q44 -95 120.5 -182.5t158.5 -142.5l-44 -66q-81 56 -153 136.5t-118 169.5q-49 -86 -121.5 -166.5t-158.5 -146.5l-44 65q82 62 161.5 152t125.5 181h73zM797 228l79 -19
l-9 -135q-5 -62 -38.5 -87t-109.5 -25h-157q-56 0 -87.5 12t-46 43.5t-14.5 90.5v376h75v-173q74 34 160.5 80.5t138.5 81.5l39 -72q-58 -36 -158.5 -88t-179.5 -87v-113q0 -33 7.5 -49.5t25.5 -22.5t52 -6h121q40 0 59.5 6t28 23t10.5 52z" />
    <glyph glyph-name="uni4F27" unicode="&#x4f27;" 
d="M345 820q-36 -111 -85 -215v-672h-76v525q-36 -64 -87 -138l-38 73q55 88 115.5 213t97.5 242zM823 199l75 -16l-7 -114q-5 -43 -19.5 -66t-45 -32t-86.5 -9h-206q-70 0 -100 27t-30 97v400q-32 -28 -86 -68l-35 71q91 65 173 157.5t130 189.5h72q42 -91 120.5 -183
t161.5 -156l-44 -69q-84 67 -156.5 152t-115.5 171q-71 -131 -205 -252h387q-2 -178 -4 -204q-4 -61 -31.5 -87.5t-96.5 -26.5h-101l-13 69h94q45 0 60 12.5t17 49.5q1 23 2 57.5t0 59.5h-255v-322q0 -31 6.5 -46t23 -21t50.5 -6h172q36 0 54.5 6t26.5 20.5t9 44.5z" />
    <glyph glyph-name="uni4F2A" unicode="&#x4f2a;" 
d="M903 608q-14 -399 -22 -520q-5 -72 -42 -99.5t-118 -27.5h-118l-15 73h110q40 0 61.5 7.5t32.5 26.5t14 55q5 53 11 192.5t9 219.5h-218q-11 -141 -40 -237.5t-82 -177t-148 -181.5l-59 54q95 100 144 175.5t73 158t35 208.5h-214v73h219l12 235l76 -1l-12 -234h291z
M322 821q-35 -120 -74 -214v-670h-70v522q-40 -76 -97 -154l-30 93q55 75 110.5 196.5t90.5 243.5zM444 642q-31 42 -107 129l47 43q21 -21 54 -59.5t56 -67.5zM726 204q-28 36 -66.5 82t-61.5 71l51 45q71 -79 129 -150z" />
    <glyph glyph-name="uni4F2B" unicode="&#x4f2b;" 
d="M440 605v-157h-82v236h250q-24 65 -62 145l81 25l11 -24q45 -97 62 -146h209v-236h-82v157h-387zM328 823q-35 -112 -78 -209v-683h-76v524q-40 -76 -81 -141l-34 82q55 101 108.5 218.5t88.5 229.5zM314 0v81h626v-81h-626z" />
    <glyph glyph-name="uni4F2F" unicode="&#x4f2f;" 
d="M890 703v-768h-77v70h-349v-71h-77v769h163q25 75 44 151l82 -14q-15 -59 -42 -137h256zM326 829q-35 -115 -81 -222v-674h-72v531q-44 -76 -94 -144l-33 87q56 72 113 192.5t97 248.5zM813 393v238h-349v-238h349zM464 323v-247h349v247h-349z" />
    <glyph glyph-name="uni4F30" unicode="&#x4f30;" 
d="M935 659v-75h-273v-197h207v-457h-77v65h-333v-65h-77v457h206v197h-261v75h261v186h74v-186h273zM327 820q-39 -121 -78 -208v-678h-75v529q-48 -83 -98 -147l-32 89q59 81 114.5 196t93.5 242zM459 68h333v245h-333v-245z" />
    <glyph glyph-name="uni4F32" unicode="&#x4f32;" 
d="M316 819q-34 -119 -69 -203v-683h-73v527q-34 -64 -78 -133l-37 77q54 90 104 204t85 234zM891 504h-434q-1 -138 -11.5 -229.5t-38 -170.5t-80.5 -170l-69 42q54 86 80.5 159t36 160.5t9.5 232.5v266h507v-290zM819 576v147h-362v-147h362zM923 210l-7 -146
q-3 -41 -15 -63t-38 -31t-74 -9h-133q-61 0 -88 25t-27 83v398h71v-192q65 32 142 78t121 79l38 -62q-53 -36 -142 -86t-159 -84v-107q0 -36 14.5 -49t51.5 -13h100q43 0 57.5 12.5t15.5 53.5q2 30 2.5 69t0.5 60z" />
    <glyph glyph-name="uni4F34" unicode="&#x4f34;" 
d="M670 252h269v-73h-269v-248h-78v248h-277v73h277v144h-236v71h236v382h78v-382h239v-71h-239v-144zM337 817q-39 -119 -83 -215v-669h-75v527q-45 -73 -102 -147l-29 89q63 80 119 193t97 243zM914 755q-25 -50 -60 -116.5t-60 -111.5l-65 33q85 155 119 227zM465 530
q-65 133 -113 219l62 34q23 -37 56.5 -101.5t59.5 -119.5z" />
    <glyph glyph-name="uni4F36" unicode="&#x4f36;" 
d="M334 830q-34 -114 -88 -230v-661h-73v520q-45 -77 -99 -148l-23 92q57 80 115.5 203.5t94.5 245.5zM645 846q99 -200 310 -335l-42 -68q-99 63 -175.5 145t-127.5 178q-94 -174 -288 -322l-45 65q195 139 296 337h72zM577 593q76 -91 115 -144l-57 -46q-21 29 -53.5 70.5
t-58.5 72.5zM337 303v70h527v-72q-41 -50 -98 -113t-108 -115l120 -83l-44 -66q-74 56 -181.5 129.5t-175.5 114.5l44 60q52 -32 175 -113q45 47 96.5 103t75.5 85h-431z" />
    <glyph glyph-name="uni4F38" unicode="&#x4f38;" 
d="M661 849v-146h233v-536h-233v-236h-72v236h-233v536h233v146h72zM324 828q-42 -138 -86 -232v-662h-73v522q-35 -59 -88 -133l-33 84q62 84 115 197.5t90 243.5zM589 469v163h-163v-163h163zM824 469v163h-163v-163h163zM426 401v-164h163v164h-163zM661 401v-164h163
v164h-163z" />
    <glyph glyph-name="uni4F3A" unicode="&#x4f3a;" 
d="M328 829q-38 -125 -78 -222v-671h-74v518q-41 -73 -89 -139l-40 84q62 84 115 198.5t93 246.5zM366 782h523v-712q0 -48 -11 -73.5t-38 -36t-78 -10.5h-123l-13 72h113q34 0 50.5 5.5t23 20t6.5 43.5v618h-453v73zM320 587h446v-69h-446v69zM371 400h327v-315h-327v315z
M439 155h190v175h-190v-175z" />
    <glyph glyph-name="uni4F3C" unicode="&#x4f3c;" 
d="M322 824q-28 -100 -75 -213v-679h-72v527q-45 -83 -94 -149l-33 90q54 78 112 202t92 244zM631 560q-53 108 -123 233l58 35q77 -134 122 -226zM892 -51q-40 66 -142 207q-36 -59 -92.5 -113.5t-142.5 -117.5l-52 61q127 90 189 164.5t87.5 171.5t32.5 266q2 61 3.5 124
t0.5 102h75q1 -24 -1 -95t-4 -133q-6 -123 -19.5 -208t-40.5 -151q85 -108 163 -217zM621 381l34 -73l-256 -225l-51 58q16 16 21.5 27.5t5.5 23.5v576h75v-540z" />
    <glyph glyph-name="uni4F3D" unicode="&#x4f3d;" 
d="M277 834q-23 -101 -59 -206v-695h-67v525q-19 -44 -62 -132l-45 65q53 109 96.5 228t69.5 230zM420 845v-181h169q-1 -104 -5 -297.5t-7 -300.5q-2 -42 -13 -65t-35 -32t-66 -9h-67l-12 71h61q29 0 42.5 5.5t18.5 19.5t6 43l12 492h-104q-1 -25 -1 -54q-3 -172 -14 -270
t-34.5 -164.5t-71.5 -152.5l-59 36q45 78 67 141t32 155.5t12 257.5v51h-81v73h82l1 181h67zM658 -50v776h242v-776h-65v89h-111v-89h-66zM724 652v-541h111v541h-111z" />
    <glyph glyph-name="uni4F43" unicode="&#x4f43;" 
d="M310 826q-33 -119 -68 -209v-683h-75v519q-36 -68 -77 -131l-40 79q57 88 105.5 202t82.5 244zM360 -55v825h531v-825h-74v68h-382v-68h-75zM590 429v265h-155v-265h155zM663 429h154v265h-154v-265zM590 352h-155v-265h155v265zM663 352v-265h154v265h-154z" />
    <glyph glyph-name="uni4F46" unicode="&#x4f46;" 
d="M331 825q-39 -124 -85 -228v-668h-74v522q-43 -75 -100 -149l-26 93q58 81 113.5 198t95.5 247zM388 780h488v-573h-488v573zM802 530v176h-341v-176h341zM461 457v-175h341v175h-341zM313 -18v74h626v-74h-626z" />
    <glyph glyph-name="uni4F4D" unicode="&#x4f4d;" 
d="M926 680v-74h-594v74h265q-22 83 -49 160l79 12l7 -22q6 -19 22 -69.5t24 -80.5h246zM328 830q-39 -126 -78 -218v-679h-74v527q-43 -76 -95 -143l-33 84q58 77 111.5 195.5t92.5 251.5zM943 49v-71h-633v71h319q33 87 79.5 245t68.5 260l76 -23q-24 -98 -68 -242.5
t-78 -239.5h236zM503 128q-19 78 -53.5 203t-57.5 193l72 20q23 -68 56.5 -188.5t54.5 -206.5z" />
    <glyph glyph-name="uni4F4E" unicode="&#x4f4e;" 
d="M328 831q-37 -118 -82 -220v-677h-73v532q-47 -82 -97 -150l-29 86q56 81 114.5 206t93.5 245zM942 176q-4 -26 -11 -63t-14 -66q-12 -49 -33.5 -71.5t-53.5 -22.5q-31 0 -62 34t-56 104q-43 116 -61 310h-197v-304l157 107l23 -73l-68 -45l23 -29q30 -36 69 -85l-56 -39
q-65 87 -91 117l-121 -79l-40 60q18 17 23 27.5t5 27.5v665q119 7 253 24t250 41l17 -74q-90 -20 -193 -34q3 -143 11 -233h218v-74h-212q19 -185 60 -293q11 -28 25.5 -47t22.5 -19q11 0 17.5 12.5t12.5 43.5q5 23 10 51.5t7 49.5zM454 475h190q-8 114 -11 223
q-78 -10 -179 -19v-204z" />
    <glyph glyph-name="uni4F4F" unicode="&#x4f4f;" 
d="M624 675q-33 74 -77 154l66 36l82 -153zM327 813q-33 -99 -69 -186v-692h-75v535q-43 -80 -101 -157l-34 87q56 76 111.5 195t93.5 244zM665 305v-252h276v-72h-626v72h273v252h-227v76h227v219h-251v74h581v-74h-253v-219h221v-76h-221z" />
    <glyph glyph-name="uni4F50" unicode="&#x4f50;" 
d="M935 622h-351q-28 -111 -72 -208h394v-73h-210v-283h239v-72h-585v72h268v283h-142q-60 -114 -153 -221l-62 57q91 103 150 209t95 236h-184v74h202q15 66 28 153l78 -9q-13 -82 -28 -144h333v-74zM343 819q-36 -117 -93 -237v-642h-77v503q-43 -69 -89 -124l-34 82
q59 75 122 199t99 241z" />
    <glyph glyph-name="uni4F51" unicode="&#x4f51;" 
d="M339 826q-36 -116 -84 -218v-674h-77v528q-47 -79 -98 -142l-32 89q59 74 119.5 193.5t97.5 239.5zM935 622h-333q-37 -105 -89 -200h363v-484h-75v68h-296v-68h-76v353q-50 -67 -107 -127l-51 63q167 172 249 395h-181v76h205q20 68 32 143l78 -10q-10 -62 -29 -133h310
v-76zM505 80h296v264h-296v-264z" />
    <glyph glyph-name="uni4F53" unicode="&#x4f53;" 
d="M900 99q-79 88 -147 197t-113 224v-345h152v-72h-152v-172h-76v172h-153v72h153v345q-44 -117 -108.5 -221t-155.5 -206l-49 72q183 187 278 431h-214v71h249v179h76v-179h271v-71h-233q46 -119 115.5 -226.5t152.5 -192.5zM322 827q-32 -112 -82 -231v-661h-72v513
q-42 -77 -88 -139l-36 84q55 79 110.5 201.5t89.5 245.5z" />
    <glyph glyph-name="uni4F55" unicode="&#x4f55;" 
d="M317 824q-29 -107 -71 -210v-679h-77v518q-42 -76 -91 -142l-33 84q51 72 109 200.5t92 248.5zM947 773v-74h-84v-615q0 -53 -13 -81.5t-44 -40.5t-90 -12h-127l-14 75h122q38 0 56.5 6t25.5 22.5t7 51.5v594h-439v74h600zM367 562h300v-391h-300v391zM436 240h164v252
h-164v-252z" />
    <glyph glyph-name="uni4F57" unicode="&#x4f57;" 
d="M632 859l68 -140h218v-216h-71v144h-430v-144h-72v216h274l-60 121zM325 820q-27 -87 -73 -195v-691h-74v534q-46 -87 -79 -138l-40 77q49 79 104.5 198.5t88.5 234.5zM825 240l73 -17l-9 -144q-4 -49 -18 -74t-44.5 -35t-89.5 -10h-167q-55 0 -85.5 13t-44 43t-13.5 84
v452h79v-235q85 39 168 86t143 92l39 -70q-65 -47 -164.5 -100.5t-185.5 -90.5v-120q0 -33 6.5 -50t23.5 -23.5t50 -6.5h133q44 0 64.5 5.5t28 22.5t9.5 54q4 88 4 124z" />
    <glyph glyph-name="uni4F58" unicode="&#x4f58;" 
d="M250 543q-73 -46 -161 -88l-37 72q141 64 240 140.5t174 178.5h75q75 -101 172.5 -176t233.5 -136l-38 -77q-127 62 -231 141.5t-175 169.5q-95 -123 -245 -220h488v-72h-496v67zM915 287h-366v-225q0 -47 -11 -72t-37.5 -35t-78.5 -10h-103l-16 74h84q37 0 53.5 5.5
t22 19.5t5.5 43v200h-388v73h835v-73zM345 201q-43 -57 -106.5 -123t-121.5 -115l-51 62q55 43 114.5 103.5t104.5 119.5zM686 243q159 -132 243 -206l-51 -59q-93 83 -240 208z" />
    <glyph glyph-name="uni4F59" unicode="&#x4f59;" 
d="M911 275h-357v-219q0 -47 -12 -72t-40 -35t-79 -10h-108l-17 79h94q37 0 53.5 5t22.5 18.5t6 42.5v191h-385v76h385v124h-211v73h478q-155 106 -240 222q-137 -185 -408 -320l-36 74q137 63 234 139t171 177h77q71 -99 170.5 -176.5t234.5 -138.5l-38 -73q-86 43 -161 93
v-70h-191v-124h357v-76zM339 190q-43 -56 -106 -120t-121 -113l-49 59q56 42 115.5 103t102.5 120zM696 237q44 -34 117.5 -98t124.5 -111l-50 -59q-52 49 -123.5 112t-115.5 99z" />
    <glyph glyph-name="uni4F5A" unicode="&#x4f5a;" 
d="M679 331q28 -109 90.5 -186.5t172.5 -142.5l-48 -69q-96 61 -159 135.5t-98 167.5q-35 -87 -105.5 -162.5t-180.5 -145.5l-50 66q133 77 201 156.5t90 180.5h-272v75h282l1 28l2 151h-148q-21 -70 -51 -140l-64 25q32 69 56 151t35 165l68 -9q-10 -58 -24 -116h128l2 184
h71q0 -94 -1 -184h229v-76h-230q0 -125 -2 -149q0 -20 -1 -30h265v-75h-259zM334 822q-34 -120 -81 -226v-662h-72v516q-39 -70 -79 -133l-41 74q61 95 114.5 214t87.5 239z" />
    <glyph glyph-name="uni4F5B" unicode="&#x4f5b;" 
d="M713 325h201l-2 -37l-9 -162q-4 -54 -28.5 -72t-81.5 -18h-41l-13 72h39q33 0 44.5 9t14.5 35q8 96 8 101h-132v-321h-68v321h-118q-6 -78 -27 -134t-60 -101.5t-106 -94.5l-53 59q68 50 104 88t53 80t21 103h-162l20 265h144v129h-163v69h163v129h69v-129h115v130h68
v-130h169v-267h-169v-124zM296 826q-29 -103 -68 -208v-685h-70v525q-38 -74 -79 -135l-34 83q47 74 97.5 193t85.5 245zM645 647h-115v-129h115v129zM713 518h101v129h-101v-129zM461 449h-81l-12 -124h93v124zM530 325h115v124h-115v-114v-10z" />
    <glyph glyph-name="uni4F5C" unicode="&#x4f5c;" 
d="M931 622h-307v-162h257v-77h-257v-162h278v-78h-278v-213h-75v692h-60q-65 -128 -146 -225l-51 58q64 79 117.5 180t91.5 213l72 -22q-24 -72 -49 -129h407v-75zM334 809q-34 -106 -80 -205v-668h-76v522q-40 -68 -93 -140l-37 78q59 87 115.5 201.5t94.5 235.5z" />
    <glyph glyph-name="uni4F5D" unicode="&#x4f5d;" 
d="M889 725q-1 -108 -4 -355t-4 -283q-2 -53 -17 -82.5t-48.5 -41.5t-93.5 -12h-138l-16 79h122q48 0 71 7.5t32.5 27t10.5 60.5q1 30 3.5 230t3.5 294h-344q-42 -78 -85 -140h298v-375h-315v352q-12 -17 -38 -49l-53 51q61 74 115 172.5t88 195.5l72 -21q-20 -57 -45 -110
h385zM318 829q-37 -121 -78 -220v-674h-72v522q-36 -66 -73 -117l-36 74q45 72 97 190t89 242zM610 440h-175v-237h175v237z" />
    <glyph glyph-name="uni4F5E" unicode="&#x4f5e;" 
d="M312 822q-28 -102 -70 -213v-677h-74v509q-44 -85 -80 -140l-29 96q55 97 102 214.5t75 231.5zM379 783h500v-72h-500v72zM316 591h618v-71h-618v71zM830 321q-21 -71 -49 -123t-69 -92q148 -71 225 -111l-42 -68q-116 63 -246 129q-57 -37 -139.5 -67t-201.5 -58l-26 76
q101 19 171.5 39.5t120.5 46.5q-126 62 -203 95q34 61 64 133h-148v70h175q27 75 39 122l80 -14q-11 -45 -33 -108h392v-70h-110zM578 169l65 -30q37 33 62 77t43 105h-228q-24 -59 -48 -103z" />
    <glyph glyph-name="uni4F5F" unicode="&#x4f5f;" 
d="M945 334l-28 -78q-184 62 -303 151q-116 -84 -295 -158l-34 72q157 62 268 136q-63 57 -120 136q-43 -56 -95 -108l-42 57q59 58 118.5 147t90.5 165l72 -23q-22 -48 -43 -87h327v-70q-43 -66 -87.5 -119.5t-98.5 -99.5q107 -72 270 -121zM321 829q-35 -117 -81 -225
v-669h-75v514q-35 -64 -73 -121l-41 70q52 84 106.5 207t88.5 240zM612 502q89 71 159 173h-279q-3 -4 -6 -9t-8 -11q62 -93 134 -153zM479 307l39 -11q56 -17 127 -37.5t138 -40.5l-21 -73q-209 66 -304 91zM377 136q90 -24 224.5 -63.5t221.5 -67.5l-19 -73
q-82 27 -377 114l-68 20z" />
    <glyph glyph-name="uni4F60" unicode="&#x4f60;" 
d="M303 477q55 77 104 176.5t76 191.5l75 -14q-21 -64 -45 -121h407v-72l-72 -167l-70 25l62 142h-359q-56 -115 -115 -203zM318 819q-36 -116 -72 -200v-681h-77v526q-43 -73 -88 -135l-31 80q52 75 106 192t86 237zM593 557h77v-506q0 -55 -26.5 -78t-89.5 -23h-104
l-15 75h92q40 0 53 10t13 43v479zM796 429q107 -248 145 -350l-69 -31q-56 160 -141 352zM502 400q-62 -203 -149 -348l-68 29q43 68 82 157t68 182z" />
    <glyph glyph-name="uni4F63" unicode="&#x4f63;" 
d="M300 822q-30 -114 -68 -208v-680h-72v524q-41 -73 -80 -128l-30 88q48 73 96 183.5t83 235.5zM351 784h538v-729q0 -59 -24 -83.5t-83 -24.5h-75l-16 75h67q36 0 47.5 11t11.5 45v148h-165v-269h-68v269h-165q-7 -92 -28 -161t-63 -138l-59 51q35 57 52 105.5t23.5 116
t6.5 187.5v397zM584 535v176h-161v-176h161zM652 535h165v176h-165v-176zM584 298v166h-161v-104q0 -42 -1 -62h162zM652 464v-166h165v166h-165z" />
    <glyph glyph-name="uni4F64" unicode="&#x4f64;" 
d="M330 824q-33 -104 -79 -213v-679h-75v520q-45 -83 -87 -145l-30 101q51 78 106 197.5t91 238.5zM940 213q-1 -29 -3.5 -80t-4.5 -83q-3 -37 -12 -56.5t-28.5 -27.5t-55.5 -8h-38q-36 0 -54 8.5t-25.5 30.5t-5.5 65l13 430h-228l-47 -433l233 76l2 -78l-312 -96l-31 64
q18 11 26 21.5t9 26.5l67 633h-105v72h590v-72h-409l-15 -143h293q-2 -32 -8.5 -215.5t-8.5 -273.5q0 -29 7 -36.5t29 -7.5h15q19 0 26.5 2.5t10 11t4.5 30.5q2 33 4 80t3 73zM649 196q-53 74 -136 186l48 36q49 -62 139 -182z" />
    <glyph glyph-name="uni4F65" unicode="&#x4f65;" 
d="M243 522q-68 -49 -148 -95l-43 73q279 153 411 345h73q71 -103 172.5 -187t237.5 -153l-41 -76q-77 43 -143 90v-67h-519v70zM249 526h502q-157 113 -251 240q-94 -125 -251 -240zM504 119q-16 51 -45.5 132t-51.5 137l71 27q22 -51 52 -131t48 -135zM839 380
q-84 -183 -159 -337h239v-76h-843v76h517q79 154 170 370zM229 405q29 -65 61.5 -142.5t57.5 -142.5l-74 -31q-24 64 -55 141t-58 142z" />
    <glyph glyph-name="uni4F67" unicode="&#x4f67;" 
d="M618 619v-150h322v-73h-319v-464h-80v464h-234v73h233v379h78v-157h274v-72h-274zM357 821q-38 -110 -86 -210v-678h-74v539q-49 -85 -103 -151l-35 78q59 81 122.5 205t101.5 242zM664 318q60 -33 137.5 -82t129.5 -85l-46 -66q-50 39 -124 88t-138 85z" />
    <glyph glyph-name="uni4F69" unicode="&#x4f69;" 
d="M277 825q-27 -119 -69 -229v-656h-63v511q-26 -54 -73 -131l-31 84q54 83 99 198.5t72 237.5zM962 180q-4 -32 -10 -72t-11 -64q-9 -47 -28.5 -69t-41.5 -22t-44.5 26t-30.5 71q-11 58 -15 107.5t-4 159.5v407h-404v-388q0 -208 -82 -381l-63 36q79 168 79 350v451h534
v-465q0 -155 10 -218q4 -34 9 -51.5t13 -17.5t13 14.5t12 53.5q4 25 9 86zM411 565v64h332v-64h-142v-109h128v-321q0 -38 -5 -57t-19.5 -27t-43.5 -8h-32l-13 63h21q23 0 29 7t6 35v246h-72v-453h-58v453h-65v-353h-57v415h122v109h-131z" />
    <glyph glyph-name="uni4F6C" unicode="&#x4f6c;" 
d="M321 818q-34 -109 -75 -208v-678h-76v516q-39 -72 -78 -131l-33 80q49 86 100.5 203t88.5 240zM702 428q-84 -89 -180 -158v-54q195 61 328 130l29 -67q-73 -36 -170.5 -71.5t-186.5 -61.5v-53q0 -40 15.5 -52.5t59.5 -12.5h130q31 0 46.5 4.5t22 16.5t8.5 37l4 103
l77 -19l-6 -109q-4 -44 -16.5 -66.5t-39.5 -31.5t-76 -9h-184q-65 0 -91.5 26t-26.5 91v146q-67 -44 -148 -88l-37 69q201 103 334 230h-302v71h222v141h-159v69h159v131h73v-131h166v-69h-166v-141h76q105 120 177 276l70 -32q-63 -136 -147 -244h177v-71h-238z" />
    <glyph glyph-name="uni4F6F" unicode="&#x4f6f;" 
d="M938 238v-75h-271v-230h-80v230h-279v75h279v145h-220v71h220v150h-243v72h163q-18 32 -43.5 74t-45.5 73l64 36q4 -5 7 -10.5t7 -11.5q15 -23 42.5 -65.5t36.5 -58.5l-64 -37h149q71 113 108 179l69 -31q-38 -68 -89 -148h160v-72h-241v-150h219v-71h-219v-145h271z
M331 815q-37 -115 -77 -204v-676h-76v525q-47 -82 -97 -150l-33 83q57 87 113 203t95 238z" />
    <glyph glyph-name="uni4F70" unicode="&#x4f70;" 
d="M320 827q-30 -110 -73 -214v-683h-75v525q-46 -82 -88 -139l-35 87q54 78 108.5 197.5t88.5 242.5zM931 781v-72h-263l-30 -137h241v-641h-75v69h-333v-69h-76v641h162l30 137h-228v72h572zM471 325h333v174h-333v-174zM471 250v-179h333v179h-333z" />
    <glyph glyph-name="uni4F73" unicode="&#x4f73;" 
d="M317 490h275v144h-219v70h219v139h75v-139h227v-70h-227v-144h276v-73h-626v73zM326 822q-26 -102 -69 -203v-689h-75v535q-45 -80 -96 -155l-34 88q139 208 203 441zM667 209v-161h277v-71h-633v71h281v161h-219v70h219v107h75v-107h227v-70h-227z" />
    <glyph glyph-name="uni4F74" unicode="&#x4f74;" 
d="M321 828q-32 -113 -74 -213v-685h-73v532q-41 -76 -93 -146l-31 87q53 79 104.5 194.5t88.5 244.5zM837 163l94 5l-1 -78l-93 -5v-155h-76v150l-451 -26l-3 81l99 5v562h-68v74h583v-74h-84v-539zM761 567v135h-280v-135h280zM761 495h-280v-135h280v135zM481 289v-145
l280 15v130h-280z" />
    <glyph glyph-name="uni4F76" unicode="&#x4f76;" 
d="M330 833q-33 -114 -77 -216v-683h-73v530q-45 -85 -96 -162l-25 99q49 77 104 199.5t92 245.5zM940 703v-72h-268v-141h232v-73h-551v73h242v141h-270v72h270v142h77v-142h268zM466 -69h-73v378h485v-378h-74v64h-338v-64zM804 64v175h-338v-175h338z" />
    <glyph glyph-name="uni4F7B" unicode="&#x4f7b;" 
d="M313 828q-29 -102 -68 -200v-687h-72v531q-39 -74 -86 -141l-34 84q50 76 101 190.5t86 237.5zM946 159l-3 -50l-3 -43q-3 -42 -14 -63.5t-36.5 -30.5t-73.5 -9h-53q-63 0 -88 22.5t-25 82.5v773h74v-416q58 -34 156 -98l53 -34l-43 -67q-40 28 -60 43q-81 58 -106 75
v-254q0 -32 10.5 -42.5t41.5 -10.5h38q28 0 40 4t16.5 16t6.5 40l4 79zM474 426v412h71v-430q0 -130 -18.5 -213t-63 -144.5t-127.5 -120.5l-58 60q75 52 114 96t57.5 101t22.5 147l-161 -125l-36 69zM924 690q-29 -56 -66 -118.5t-67 -105.5l-59 34q54 80 129 224zM406 459
q-19 42 -51.5 107.5t-58.5 115.5l61 29q86 -167 110 -219z" />
    <glyph glyph-name="uni4F7C" unicode="&#x4f7c;" 
d="M673 707h251v-76h-594v76h264l-44 123l77 20zM324 812q-33 -114 -77 -214v-670h-77v513q-37 -66 -83 -129l-36 80q52 75 105 192.5t92 244.5zM561 563q-87 -121 -228 -223l-43 60q132 100 213 209zM722 608q64 -55 224 -204l-50 -58q-67 67 -226 209zM800 388
q-51 -130 -134 -228q52 -46 120 -85t160 -75l-40 -75q-179 75 -292 181q-109 -103 -281 -183l-42 74q167 72 269 164q-80 92 -135 221l69 28q48 -116 118 -196q73 85 117 203z" />
    <glyph glyph-name="uni4F7E" unicode="&#x4f7e;" 
d="M700 843q44 -92 108 -174t132 -140l-43 -70q-24 20 -53 49v-449q0 -45 -10 -68t-34.5 -32.5t-73.5 -9.5h-106l-14 71h99q29 0 42.5 4.5t18 16.5t4.5 38v60h-317v-199h-75v578q-28 -30 -65 -60l-47 58q158 134 240 311l65 -32q-56 -128 -155 -237h382q-102 118 -162 253z
M326 823q-35 -125 -84 -236v-656h-74v508q-33 -60 -78 -122l-43 70q57 80 113.5 204t91.5 247zM770 380v108h-317v-108h317zM453 314v-108h317v108h-317z" />
    <glyph glyph-name="uni4F7F" unicode="&#x4f7f;" 
d="M304 825q-28 -111 -71 -219v-677h-70v528q-37 -68 -85 -138l-31 84q49 69 98.5 187.5t87.5 253.5zM921 -58q-226 33 -359 103q-40 -34 -101 -62.5t-153 -56.5l-35 71q153 41 221 89q-77 56 -129 135l52 43q50 -77 127 -128q21 30 29 68t9 91h-239v262h239v96h-274v71h274
v119h71v-119h278v-71h-278v-96h238v-262h-238q-1 -64 -11 -111t-33 -84q123 -59 333 -81zM582 491h-170v-127h170v127zM821 364v127h-168v-127h168z" />
    <glyph glyph-name="uni4F83" unicode="&#x4f83;" 
d="M304 830q-44 -134 -73 -208v-691h-72v522q-30 -64 -70 -135l-30 102q34 58 82.5 180.5t87.5 246.5zM353 782h512v-338h-512v338zM430 515h355v194h-355v-194zM387 392h69v-104q-1 -96 -13 -155t-40.5 -104t-84.5 -98l-55 49q51 44 77 84t35.5 90t10.5 131zM628 -44h-68
v435h68v-435zM940 198q0 -43 -4 -163q-2 -47 -20 -63t-65 -16h-35q-46 0 -65 18t-19 65v352h71v-326q0 -23 7 -29.5t25 -6.5h11q20 0 25.5 6t7.5 28q2 38 2 116v33z" />
    <glyph glyph-name="uni4F84" unicode="&#x4f84;" 
d="M326 815q-39 -121 -83 -217v-669h-71v527q-48 -85 -96 -152l-30 90q59 88 112.5 202t93.5 243zM661 41h278v-70h-628v70h276v167h-227v71h227v148l-221 -12l-20 64q102 97 190 226h-187v72h565v-72h-287q-40 -58 -88.5 -120.5t-82.5 -97.5l311 17q-45 65 -83 111l60 40
q39 -52 89.5 -122.5t80.5 -116.5l-59 -43l-43 67l-151 -9v-152h228v-71h-228v-167z" />
    <glyph glyph-name="uni4F88" unicode="&#x4f88;" 
d="M301 585q90 57 161 125.5t119 141.5l65 -24q-21 -33 -56 -76h309v-63q-98 -118 -240.5 -201.5t-353.5 -147.5l-26 64q370 102 533 286h-277l-45 -44q44 -29 114 -79l-54 -49q-79 60 -112 84q-47 -39 -95 -70zM325 829q-41 -128 -83 -227v-666h-73v514q-33 -62 -69 -120
l-41 65q59 111 108.5 221.5t82.5 226.5zM919 374v-64q-59 -86 -135 -152.5t-192 -122.5t-286 -104l-29 65q156 40 260.5 85.5t173.5 100t126 128.5h-261q-46 -43 -55 -51l115 -85l-54 -50q-40 34 -115 91q-66 -51 -130 -88l-41 56q208 120 327 282l63 -25q-24 -33 -51 -66
h284z" />
    <glyph glyph-name="uni4F89" unicode="&#x4f89;" 
d="M736 669q37 -69 88 -118.5t123 -82.5l-37 -62q-75 37 -134 95v-39h-316v43q-55 -54 -143 -105l-41 60q78 42 133.5 93t92.5 116h-170v70h204q18 43 35 112l69 -15q-15 -60 -29 -97h312v-70h-187zM323 828q-36 -121 -79 -222v-672h-74v520q-34 -63 -80 -130l-37 80
q52 79 107.5 198t90.5 240zM581 669q-38 -77 -96 -139h264q-54 60 -89 139h-79zM310 308v69h600v-69h-404l-21 -82h358l-4 -30l-20 -138q-6 -41 -22 -64.5t-48 -33.5t-86 -10h-156l-13 71h164q46 0 63 11.5t23 40.5q4 18 9.5 43t8.5 44h-369l35 148h-118z" />
    <glyph glyph-name="uni4F8B" unicode="&#x4f8b;" 
d="M297 829q-32 -113 -67 -209v-687h-69v526q-34 -71 -81 -146l-30 97q44 74 94 194.5t82 239.5zM830 835h69v-766q0 -68 -28.5 -94.5t-100.5 -26.5h-98l-14 74h95q46 0 61.5 14t15.5 55v744zM314 718v71h330v-71h-168q-11 -69 -32 -147h168v-79q-22 -133 -55 -226.5
t-86 -172t-140 -164.5l-50 53q132 122 196 268q-28 25 -79 67l-33 27q-31 -68 -62 -117l-43 62q45 78 87 198.5t61 230.5h-94zM679 728h67v-572h-67v572zM423 499q-13 -43 -30 -88q17 -15 67 -55q13 -11 24 -20t20 -16q26 83 40 179h-121z" />
    <glyph glyph-name="uni4F8D" unicode="&#x4f8d;" 
d="M942 447h-148v-113h136v-72h-136v-196q0 -46 -12 -70.5t-41 -34.5t-85 -10h-106l-14 71h100q35 0 51.5 6t22.5 20t6 43v171h-393v72h393v113h-416v73h282v123h-226v73h226v128h78v-128h236v-73h-236v-123h282v-73zM330 818q-42 -119 -80 -205v-675h-76v524
q-42 -73 -91 -138l-35 82q115 151 210 437zM438 244q34 -32 129 -134l-55 -55q-64 74 -127 139z" />
    <glyph glyph-name="uni4F8F" unicode="&#x4f8f;" 
d="M680 361q46 -86 113 -158.5t149 -125.5l-42 -72q-158 117 -245 280v-350h-76v339q-88 -160 -257 -284l-49 65q183 123 279 306h-254v73h281v162h-143q-29 -73 -60 -126l-68 28q35 57 64.5 134t49.5 160l69 -19q-13 -54 -30 -105h118v179h76v-179h233v-72h-233v-162h271
v-73h-246zM316 827q-34 -121 -76 -223v-667h-74v511q-39 -69 -77 -124l-37 81q48 68 104.5 194.5t88.5 246.5z" />
    <glyph glyph-name="uni4F91" unicode="&#x4f91;" 
d="M936 656h-369q-29 -62 -58 -111h365v-488q0 -43 -10 -66t-35 -32t-72 -9h-97l-14 72h88q29 0 42.5 4.5t18.5 16.5t5 38v52h-315v-192h-73v462q-50 -62 -100 -110l-43 70q135 130 214 293h-154v73h187q22 55 42 122l76 -17q-11 -37 -37 -105h339v-73zM318 830
q-29 -113 -71 -223v-680h-75v517q-35 -67 -84 -135l-38 83q52 72 109 203t88 254zM485 375h315v98h-315v-98zM485 303v-100h315v100h-315z" />
    <glyph glyph-name="uni4F94" unicode="&#x4f94;" 
d="M354 550l-19 65q125 113 232 244l56 -41q-68 -88 -179 -198l322 17l-58 72l-29 35l53 47q120 -144 189 -232l-55 -50l-47 62zM321 830q-36 -121 -79 -221v-675h-74v518q-45 -83 -81 -138l-28 94q51 89 99.5 202t85.5 240zM939 204v-73h-264v-197h-77v197h-305v73h305v136
h-169q-26 -59 -63 -116l-63 38q36 55 67 123.5t50 135.5l68 -24q-8 -29 -28 -85h138v114h77v-114h225v-72h-225v-136h264z" />
    <glyph glyph-name="uni4F97" unicode="&#x4f97;" 
d="M290 830q-31 -117 -64 -208v-686h-71v518q-22 -46 -62 -119l-42 74q49 86 93.5 197.5t76.5 238.5zM329 789h564v-729q0 -44 -11 -67.5t-36.5 -33t-70.5 -9.5h-99l-15 72h90q30 0 44.5 5t19.5 16.5t5 35.5v638h-417v-775h-74v847zM447 600h325v-67h-325v67zM483 424h254
v-321h-254v321zM544 171h131v185h-131v-185z" />
    <glyph glyph-name="uni4F9B" unicode="&#x4f9b;" 
d="M324 832q-35 -117 -79 -217v-682h-76v530q-35 -63 -87 -138l-33 81q58 86 111.5 203.5t92.5 245.5zM789 580v-254h149v-75h-642v75h144v254h-111v72h111v193h75v-193h199v193h75v-193h124v-72h-124zM714 580h-199v-254h199v254zM293 -4q52 38 112 99t104 118l57 -50
q-43 -54 -105 -117.5t-117 -109.5zM716 211q44 -40 107.5 -104t105.5 -110l-53 -60q-39 46 -103 113t-108 108z" />
    <glyph glyph-name="uni4F9D" unicode="&#x4f9d;" 
d="M315 831q-38 -126 -75 -218v-680h-73v524q-37 -68 -86 -137l-37 78q111 151 197 449zM822.5 172.5q52.5 -62.5 122.5 -116.5l-54 -65q-85 70 -141.5 145t-96 169.5t-69.5 225.5q-33 -68 -83 -140v-344l157 84l15 -75l-245 -124l-34 61q34 26 34 57v249q-60 -68 -135 -128
l-45 67q107 81 178.5 176t124.5 214h-234v71h268q-31 90 -48 128l75 18q40 -104 54 -146h260v-71h-293q26 -147 68 -251q82 64 152 139l48 -56q-75 -77 -170 -148q39 -77 91.5 -139.5z" />
    <glyph glyph-name="uni4FA0" unicode="&#x4fa0;" 
d="M668 294q33 -100 99 -169t179 -120l-42 -74q-107 52 -174.5 119.5t-105.5 158.5q-70 -150 -290 -275l-45 68q130 73 196 146t87 146h-266v72h278v19v258h-252v73h252v130h77v-130h249v-73h-249v-265v-12h274v-72h-267zM327 819q-33 -109 -82 -218v-667h-74v521
q-40 -72 -86 -140l-35 84q56 83 113.5 203t92.5 238zM715 432q30 44 62 93.5t56 89.5l57 -32q-25 -42 -59.5 -97t-59.5 -90zM408 614q25 -35 59 -88.5t56 -91.5l-59 -37q-26 44 -114 182z" />
    <glyph glyph-name="uni4FA3" unicode="&#x4fa3;" 
d="M326 836q-45 -139 -89 -241v-662h-74v505q-36 -69 -75 -132l-29 107q47 77 99.5 198t92.5 247zM396 800h458v-323h-458v323zM470 548h312v181h-312v-181zM367 -65v422h518v-423h-73v75h-372v-74h-73zM440 283v-201h372v201h-372z" />
    <glyph glyph-name="uni4FA5" unicode="&#x4fa5;" 
d="M306 697l151 19q-17 55 -34 128l76 9q12 -57 32 -128l361 45l8 -69l-345 -45q17 -45 46 -93l10 -17q124 56 209 119l38 -56q-89 -67 -201 -119q32 -32 66 -48.5t61 -16.5q31 0 45.5 11.5t22.5 41.5q8 22 22 77l62 -30l-8 -27q-15 -49 -19 -60q-16 -44 -45.5 -63
t-77.5 -19q-46 0 -100.5 26.5t-100.5 76.5q-116 -47 -269 -82l-23 68q130 27 249 72q-3 4 -7 12q-35 64 -55 118l-166 -22zM307 829q-33 -113 -75 -215v-672h-74v514q-32 -61 -75 -128l-33 79q108 184 184 442zM860 166l63 -15l-5 -91q-2 -40 -12.5 -60.5t-33 -28
t-63.5 -7.5h-70q-54 0 -76.5 23t-22.5 78v185h-117v-14q-1 -78 -20 -131.5t-63.5 -94.5t-125.5 -80l-44 63q73 33 111 64.5t53.5 73.5t15.5 108v11h-153v71h615v-71h-200v-163q0 -24 4 -35.5t14 -15t31 -3.5h40q25 0 36.5 3.5t15.5 14.5t5 36z" />
    <glyph glyph-name="uni4FA6" unicode="&#x4fa6;" 
d="M793 502h-359v-338h-73v407h197v280h75v-100h293v-67h-293v-113h233v-407h-73v338zM319 830q-40 -132 -79 -224v-672h-72v525q-42 -74 -86 -132l-33 84q56 76 106.5 189.5t91.5 249.5zM892 -61q-124 90 -279 194q-33 -58 -101.5 -106.5t-184.5 -94.5l-34 69
q121 48 181.5 91.5t81.5 94t21 131.5v126h74v-140q0 -62 -12 -103q119 -78 297 -197z" />
    <glyph glyph-name="uni4FA7" unicode="&#x4fa7;" 
d="M274 829q-26 -103 -61 -198v-698h-65v545q-29 -62 -70 -135l-32 88q44 73 87.5 184t72.5 229zM831 838h64v-785q0 -42 -10.5 -64t-35.5 -31t-73 -9h-69l-14 69h70q42 0 55 11.5t13 47.5v761zM555 712h-192v-518h-59v590h313v-588h-62v516zM691 750h59v-584h-59v584z
M488 372q0 -82 -11 -150q74 -76 181 -192l-53 -51q-57 68 -148 171q-22 -61 -63.5 -109.5t-112.5 -101.5l-46 55q86 64 125.5 112.5t53 110t13.5 171.5v268h61v-284z" />
    <glyph glyph-name="uni4FA8" unicode="&#x4fa8;" 
d="M329 827q-38 -125 -85 -229v-665h-73v523q-44 -76 -96 -145l-33 78q62 87 120.5 211t95.5 250zM914 223q-84 40 -139 87v-373h-73v386h58q-78 70 -131 177h-22q-22 -51 -54.5 -94t-78.5 -84h59v-86q0 -75 -14 -127t-47.5 -95.5t-95.5 -88.5l-56 50q55 39 84 71.5t43 76.5
t14 111v77q-56 -46 -131 -94l-44 62q96 56 151.5 106.5t87.5 114.5h-206v71h234q18 62 30 145q-133 -12 -219 -16l-4 72q123 6 270 20.5t244 30.5l10 -72q-94 -14 -222 -28q-13 -95 -30 -152h297v-71h-226q41 -70 96.5 -117t147.5 -92z" />
    <glyph glyph-name="uni4FA9" unicode="&#x4fa9;" 
d="M331 815q-35 -106 -83 -212v-671h-72v530q-43 -75 -95 -149l-22 104q46 64 101 179.5t95 239.5zM496.5 599q-77.5 -77 -184.5 -145l-40 66q108 65 186.5 146t117.5 163h68q41 -87 123.5 -167.5t172.5 -134.5l-34 -64q-88 53 -168 128.5t-125 158.5q-39 -74 -116.5 -151z
M803 448h-395v68h395v-68zM298 250v71h616v-71h-333q-43 -74 -144 -201l316 17q-43 57 -87 116l56 41l58 -76q91 -117 124 -162l-55 -47q-28 38 -47 63l-460 -27l-17 65q39 37 87 97.5t82 113.5h-196z" />
    <glyph glyph-name="uni4FAA" unicode="&#x4faa;" 
d="M941 361l-28 -72q-189 53 -299 128q-122 -80 -304 -134l-27 71q165 45 272 108q-90 77 -157 202h-77v72h272l-38 108l76 13l38 -121h257v-72h-88q-60 -116 -164 -202q102 -62 267 -101zM313 828q-32 -103 -79 -218v-672h-73v514q-32 -63 -67 -125l-37 76q118 229 181 444
zM481 664q56 -99 134 -162q86 66 142 162h-276zM443 316h76v-48q0 -80 -14 -138t-51 -107.5t-104 -91.5l-62 54q62 37 95.5 76t46.5 86.5t13 116.5v52zM787 -61h-77v375h77v-375z" />
    <glyph glyph-name="uni4FAC" unicode="&#x4fac;" 
d="M818 167.5q53 -54.5 122 -100.5l-49 -68q-120 87 -191.5 196.5t-113.5 287.5q-33 -75 -76 -137v-295l155 74l12 -77l-240 -109l-33 62q19 14 27 25.5t8 30.5v201q-64 -70 -152 -137l-44 67q143 114 216.5 218.5t105.5 236.5h-156v-135h-71v205h241q12 71 17 139l75 -2
q-8 -77 -19 -137h239v-188h-74v118h-179q-5 -23 -10 -37q24 -144 67 -247q78 63 151 136l46 -60q-69 -66 -166 -142q39 -71 92 -125.5zM313 829q-34 -111 -80 -221v-673h-73v519q-31 -59 -77 -136l-37 79q129 228 191 450z" />
    <glyph glyph-name="uni4FAE" unicode="&#x4fae;" 
d="M943 307h-94l-6 -160h82v-66h-85q0 -11 -0.5 -16t-0.5 -7q-4 -66 -33 -91t-101 -25h-147l-13 66h137q46 0 64.5 15t20.5 51v7h-432l24 226h-73v66h80l21 199q-25 -33 -51 -63l-44 66q48 52 96.5 129.5t79.5 150.5l68 -21q-15 -37 -33 -75h420v-69h-458q-29 -49 -57 -89
h451l-8 -228h92v-66zM308 826q-37 -123 -72 -206v-686h-71v537q-32 -61 -86 -138l-31 86q55 79 106.5 192.5t80.5 233.5zM453 534l-17 -161h345q7 138 7 161h-335zM575 524q68 -52 119 -93l-40 -51q-66 57 -118 95zM771 147l2 36q1 27 2.5 58t2.5 66h-349l-17 -160h359z
M639 154q-21 19 -56 47t-64 49l36 50q70 -50 123 -95z" />
    <glyph glyph-name="uni4FAF" unicode="&#x4faf;" 
d="M323 817q-39 -136 -82 -237v-649h-72v503q-30 -54 -74 -118l-35 83q56 89 107.5 206.5t83.5 230.5zM302 609h450l8 115h-373v66h450l-13 -181h114v-66h-636v66zM669 197q64 -136 271 -190l-32 -73q-195 61 -281 188q-34 -59 -105 -105.5t-193 -89.5l-36 69
q139 46 205.5 92.5t84.5 108.5h-285v67h293q1 28 1 113h-152q-30 -50 -68 -101l-60 39q80 95 128 218l66 -24q-13 -34 -30 -66h412v-66h-223q0 -50 -3 -113h272v-67h-265z" />
    <glyph glyph-name="uni4FB5" unicode="&#x4fb5;" 
d="M312 826q-35 -129 -80 -238v-659h-70v513q-31 -58 -77 -127l-35 85q52 75 105 196.5t86 246.5zM356 801h510v-309h-518v61h447v64h-418v58h418v64h-439v62zM920 427v-156h-66v96h-493v-96h-66v156h625zM915 -65q-98 20 -170 42.5t-131 53.5q-115 -61 -300 -102l-28 66
q160 30 261 78q-84 60 -159 165v60h449v-58q-70 -107 -159 -169q96 -42 261 -68zM472 238q64 -85 137 -131q81 50 144 131h-281z" />
    <glyph glyph-name="uni4FBF" unicode="&#x4fbf;" 
d="M314 825q-32 -120 -78 -232v-663h-70v516q-41 -75 -84 -133l-30 93q48 68 102 192t88 246zM922 -58q-122 15 -210.5 37t-157.5 56q-39 -30 -99.5 -55t-154.5 -52l-29 71q149 36 215 76q-65 44 -132 119l53 43q37 -38 67.5 -65t65.5 -49q33 45 41 125h-231v386h235v94
h-251v67h601v-67h-280v-94h234v-386h-237q-8 -101 -47 -159q119 -51 335 -69zM585 474v95h-165v-95h165zM818 474v95h-163v-95h163zM420 415v-102h165v20v82h-165zM655 313h163v102h-163v-89v-13z" />
    <glyph glyph-name="uni4FC3" unicode="&#x4fc3;" 
d="M321 819q-36 -121 -79 -222v-663h-73v517q-45 -77 -89 -134l-31 86q51 69 109.5 194.5t91.5 241.5zM946 41l-14 -73h-237q-97 0 -160.5 35.5t-104.5 117.5q-33 -98 -102 -190l-55 50q64 86 92.5 175.5t36.5 232.5l72 -7q-4 -81 -17 -155q24 -76 61.5 -117.5t88.5 -57.5
v410h-220v330h490v-330h-196v-159h232v-73h-232v-189h11h254zM803 718h-342v-183h342v183z" />
    <glyph glyph-name="uni4FC4" unicode="&#x4fc4;" 
d="M319 826q-35 -120 -84 -234v-655h-73v510q-35 -62 -75 -120l-40 75q52 71 111.5 199t90.5 244zM949 182q-14 -89 -20 -125q-11 -60 -35.5 -87.5t-57.5 -27.5q-34 0 -61.5 26t-52.5 86q-14 36 -23 68q-60 -56 -137 -110l-39 67q93 62 157 122q-20 112 -33 285h-146v-135
l103 26l9 -72l-112 -29v-216q0 -40 -10.5 -62t-36 -32t-71.5 -10h-80l-14 74h71q30 0 44.5 4.5t19.5 16.5t5 36v170l-129 -34l-14 74l143 36v153h-143v73h143v131q-61 -13 -106 -20l-11 70q64 9 134.5 25.5t125.5 35.5l14 -68q-40 -14 -85 -26v-148h141l-6 88q-3 58 -5 115
t-3 82h72q0 -57 7 -200l5 -85h222v-73h-217q11 -136 25 -222q74 83 124 175l58 -35q-68 -122 -166 -224q15 -63 33 -103q14 -29 24 -40t21 -11q12 0 19 13.5t15 59.5q12 78 14 104zM866 613q-16 21 -42.5 52.5t-38.5 46.5l-41 49l52 45l49 -57q54 -62 74 -87z" />
    <glyph glyph-name="uni4FC5" unicode="&#x4fc5;" 
d="M950 89l-49 -71q-87 77 -148.5 166.5t-105.5 198.5v-330q0 -44 -10.5 -66.5t-37.5 -31.5t-79 -9h-98l-15 74h89q33 0 49.5 4.5t22.5 16.5t6 36v201q-128 -103 -260 -198l-39 69q146 100 299 218v232h-258v73h258v176h73v-176h288v-73h-288v-27q25 -97 70 -190
q89 89 145 167l58 -51q-32 -39 -79 -89.5t-89 -90.5q83 -138 198 -229zM820 680q-85 85 -122 119l46 49q58 -53 123 -120zM312 826q-27 -106 -66 -211v-676h-74v511q-38 -72 -83 -141l-42 84q55 77 110.5 204.5t82.5 244.5zM374 551q15 -18 46 -59.5t49 -64.5l34 -46
l-57 -48q-50 71 -128 172z" />
    <glyph glyph-name="uni4FCA" unicode="&#x4fca;" 
d="M349 555l-11 66q63 48 125.5 111t111.5 126l64 -37q-102 -116 -191 -193l318 22q-63 63 -85 83l46 43q66 -59 204 -200l-48 -51q-18 20 -58 62zM327 827q-33 -116 -81 -225v-666h-74v522q-38 -66 -91 -134l-27 87q52 68 111 193t93 242zM705 554q179 -109 242 -152
l-32 -60q-79 54 -245 152zM283 401q55 26 115.5 67t105.5 82l42 -55q-51 -44 -110.5 -86t-115.5 -73zM843 294q-33 -61 -71.5 -108.5t-87.5 -86.5q101 -54 258 -93l-32 -70q-180 55 -287 120q-110 -69 -309 -128l-36 72q182 49 282 101q-67 54 -114 124q-52 -58 -112 -104
l-44 54q60 45 121.5 118t97.5 142l62 -28q-15 -29 -30 -53h302v-60zM622 139q82 57 140 151h-264l-6 -9q50 -85 130 -142z" />
    <glyph glyph-name="uni4FCE" unicode="&#x4fce;" 
d="M189.5 510q-30.5 -55 -77.5 -120l-53 62q69 90 107 181.5t51 208.5l71 -12q-8 -59 -23 -123q45 -53 156 -184l-51 -61q-48 67 -129 162q-21 -59 -51.5 -114zM864 795v-749h76v-74h-600v74h104v749h420zM787 544v177h-268v-177h268zM519 297h268v176h-268v-176zM356 76
q-42 55 -111 140q-38 -136 -127 -255l-59 50q76 99 108 198t42 241l70 -8q-4 -67 -16 -145q95 -106 142 -163zM787 226h-268v-180h268v180z" />
    <glyph glyph-name="uni4FCF" unicode="&#x4fcf;" 
d="M669 848v-283h221v-507q0 -43 -10 -66t-33.5 -33t-66.5 -10h-112l-13 73h99q36 0 48 11.5t12 48.5v59h-367v-197h-77v621h222v283h77zM313 819q-30 -107 -69 -200v-682h-76v520q-34 -64 -78 -131l-39 80q50 71 104.5 195t84.5 238zM484 596q-53 71 -136 169l52 49
q54 -61 140 -169zM913 767q-82 -113 -137 -173l-55 47q71 80 137 171zM447 388h367v105h-367v-105zM447 318v-108h367v108h-367z" />
    <glyph glyph-name="uni4FD0" unicode="&#x4fd0;" 
d="M293 821q-31 -119 -63 -207v-678h-70v519q-35 -66 -74 -121l-35 79q48 71 97.5 192t75.5 234zM829 818h68v-756q0 -44 -11 -68.5t-38.5 -35t-78.5 -10.5h-95l-11 72h87q34 0 50.5 5t22.5 18.5t6 41.5v733zM494 485v-60l137 -144l-41 -59l-96 110v-392h-67v402
q-51 -120 -128 -225l-43 68q48 59 91 138t73 162h-133v71h140v139q-42 -9 -119 -22l-12 70q68 9 152.5 27t149.5 38l12 -69q-43 -13 -116 -30v-153h132v-71h-132zM670 723h66v-558h-66v558z" />
    <glyph glyph-name="uni4FD1" unicode="&#x4fd1;" 
d="M306 827q-27 -99 -68 -207v-684l-74 1v518q-40 -76 -74 -128l-42 76q48 75 103 202t85 242zM698 565h190v-522q0 -54 -23.5 -73.5t-85.5 -19.5h-73l-14 71h62q37 0 48.5 8.5t11.5 37.5v77h-161v-184h-73v184h-160v-199h-74v620h219l-146 89l49 55l143 -89l149 112h-407
v70h526v-70l-203 -153zM580 384v111h-160v-111h160zM653 384h161v111h-161v-111zM420 316v-105h160v105h-160zM653 316v-105h161v105h-161z" />
    <glyph glyph-name="uni4FD7" unicode="&#x4fd7;" 
d="M314 811q-34 -115 -74 -210v-667h-74v518q-37 -63 -82 -125l-34 81q49 67 105.5 189t87.5 235zM297 619q52 41 111.5 98.5t102.5 111.5l51 -51q-111 -128 -220 -221zM881 564q-147 139 -228 211l47 54q90 -79 228 -209zM913 266q-44 25 -73 46v-380h-73v58h-310v-58h-73
v377q-40 -28 -72 -47l-41 66q101 59 178.5 134.5t127.5 164.5h69q53 -90 131 -165t174 -127zM820 326q-128 95 -206 229q-79 -132 -207 -229h413zM457 255v-195h310v195h-310z" />
    <glyph glyph-name="uni4FD8" unicode="&#x4fd8;" 
d="M304 822q-30 -100 -66 -190v-693h-75v530q-43 -83 -92 -155l-27 95q49 73 101.5 193.5t86.5 240.5zM908 757q-110 -21 -266 -34.5t-304 -19.5l-8 69q367 17 564 54zM731 545q52 82 92 163l64 -30q-46 -89 -95 -168zM614 523q-9 24 -30.5 71t-38.5 80l64 26l40 -83
q9 -18 17 -35t14 -30zM428 510q-23 45 -83 149l62 29q9 -17 19.5 -35t20.5 -36q24 -40 42 -75zM939 262v-69h-279v-145q0 -40 -10.5 -62t-36.5 -31.5t-73 -9.5h-113l-13 72h105q39 0 52.5 10t13.5 42v124h-291v69h291v44l171 109h-395v67h517v-64l-218 -141v-15h279z" />
    <glyph glyph-name="uni4FDA" unicode="&#x4fda;" 
d="M306 821q-33 -118 -68 -206v-680h-73v519q-38 -74 -84 -137l-30 91q45 68 100.5 194.5t82.5 239.5zM659 153v-113h279v-70h-643v70h289v113h-246v70h246v108h-220v458h518v-458h-223v-108h250v-70h-250zM584 594v126h-150v-126h150zM659 594h153v126h-153v-126zM434 527
v-126h150v126h-150zM659 527v-126h153v126h-153z" />
    <glyph glyph-name="uni4FDC" unicode="&#x4fdc;" 
d="M655 756h230v-343h-530v343h228v91h72v-91zM309 823q-31 -111 -67 -204v-686h-71v524q-40 -79 -81 -145l-31 90q52 94 102 211.5t79 228.5zM583 614v79h-159v-79h159zM817 614v79h-162v-79h162zM583 554h-159v-78h159v78zM655 554v-78h162v78h-162zM940 278h-444l-14 -69
h378q-12 -115 -18 -149q-7 -43 -23.5 -66.5t-49.5 -33.5t-91 -10h-157l-12 68h160q55 0 76 13t27 47q4 16 7 35t4 35h-382l23 130h-126v64h642v-64z" />
    <glyph glyph-name="uni4FDD" unicode="&#x4fdd;" 
d="M321 818q-36 -120 -78 -216v-668h-72v524q-42 -74 -91 -138l-34 78q52 77 110.5 203t88.5 237zM687 294q86 -136 264 -234l-40 -69q-168 102 -253 242v-297h-75v294q-49 -73 -112 -130.5t-153 -111.5l-42 64q100 56 163.5 111.5t112.5 130.5h-240v69h271v114h-205v315
h490v-315h-210v-114h276v-69h-247zM793 720h-340v-172h340v172z" />
    <glyph glyph-name="uni4FDE" unicode="&#x4fde;" 
d="M544 842q74 -80 176 -143t224 -105l-32 -72q-94 32 -193 89v-59h-435v55q-95 -57 -193 -96l-31 75q126 43 229 109.5t174 146.5h81zM716 613q-133 79 -214 168q-84 -90 -208 -168h422zM784 496h67v-438q0 -43 -10.5 -66.5t-36 -33t-73.5 -9.5h-109l-13 66h109
q29 0 43 4.5t18.5 17.5t4.5 40v419zM149 -57v535h340v-431q0 -56 -21.5 -77t-78.5 -21h-78l-12 60h72q33 0 43 10t10 41v67h-209v-184h-66zM594 458h66v-362h-66v362zM423 331v84h-208v-84h208zM215 273v-87h209l-1 87h-208z" />
    <glyph glyph-name="uni4FDF" unicode="&#x4fdf;" 
d="M350 565l-16 74q68 41 126.5 99.5t100.5 121.5l60 -36q-33 -49 -76.5 -97.5t-88.5 -86.5l314 11l-37 43q-39 45 -50 57l51 45q124 -141 187 -218l-50 -49l-46 56zM321 825q-34 -119 -74 -216v-674h-75v515q-37 -67 -67 -112l-41 76q49 77 101 196t82 233zM666 209
q37 -71 105.5 -120.5t169.5 -79.5l-35 -74q-195 67 -283 200q-33 -64 -104 -111.5t-191 -89.5l-40 73q126 38 193.5 85t90.5 117h-278v73h290v7q1 10 1 53l1 56h-147q-36 -61 -67 -104l-61 40q86 113 130 234l66 -25q-15 -40 -31 -74h410v-71h-225l-1 -75q-1 -16 -1 -37v-4
h271v-73h-264z" />
    <glyph glyph-name="uni4FE1" unicode="&#x4fe1;" 
d="M947 728v-72h-636v72h285q-2 5 -4.5 11t-5.5 14q-22 58 -34 81l78 15q27 -66 47 -121h270zM312 822q-33 -119 -72 -213v-675h-72v525q-41 -74 -88 -141l-30 92q54 77 107.5 198t82.5 236zM872 504h-505v65h505v-65zM872 354h-505v67h505v-67zM443 -64h-74v333h503v-333
h-74v57h-355v-57zM798 60v141h-355v-141h355z" />
    <glyph glyph-name="uni4FE3" unicode="&#x4fe3;" 
d="M312 822q-29 -104 -71 -206v-683h-71v527q-35 -73 -86 -160l-25 96q50 97 101.5 219.5t79.5 226.5zM383 799h482v-261h-482v261zM457 607h332v123h-332v-123zM677 200q38 -73 102 -119t161 -70l-29 -73q-193 60 -286 204q-35 -68 -109.5 -117.5t-200.5 -90.5l-35 75
q128 33 195 78t91 113h-255v71h270l1 24q1 8 3 82h-243v68h558v-68h-240l-1 -44q0 -34 -1 -40q0 -15 -1 -22h274v-71h-254z" />
    <glyph glyph-name="uni4FE6" unicode="&#x4fe6;" 
d="M936 374h-118v-92h111v-70h-111v-161q0 -42 -11 -66t-37 -34t-73 -10h-99l-15 72h94q29 0 43.5 5t19.5 16.5t5 35.5v142h-288q-59 -93 -145 -176l-52 57q129 122 199 281h-160v68h187q12 34 25 82h-162v63h177q9 42 15 84h-203v67h212q3 29 10 110l75 -6q-6 -72 -10 -104
h289v-67h-297q-8 -56 -14 -84h278v-63h-292q-9 -39 -23 -82h370v-68zM308 824q-28 -108 -69 -215v-673h-73v512q-37 -69 -76 -129l-37 87q59 89 106 202.5t77 235.5zM745 282v92h-204q-16 -42 -42 -92h246zM524 202l123 -105l-45 -53l-120 107z" />
    <glyph glyph-name="uni4FE8" unicode="&#x4fe8;" 
d="M320 823q-33 -120 -78 -224v-670h-72v521q-41 -72 -84 -135l-37 85q52 70 110 195.5t90 244.5zM753 441h179v-68h-500v-89q0 -122 -20 -195.5t-76 -157.5l-65 37q37 53 56 97t26.5 98t7.5 140v138h160v272h-174v68h584v-68h-178v-272zM685 713h-95v-272h95v272zM450 476
q-17 30 -50 82.5t-55 85.5l53 39q49 -73 106 -167zM767 512q26 34 58 84t50 83l56 -36q-21 -37 -54 -88t-56 -80z" />
    <glyph glyph-name="uni4FE9" unicode="&#x4fe9;" 
d="M294 827q-30 -126 -68 -225v-670h-71v511q-31 -60 -74 -123l-30 94q41 57 92.5 184.5t79.5 243.5zM934 720h-193q0 -92 -1 -137h163v-532q0 -45 -10.5 -68t-35 -32.5t-70.5 -9.5h-89l-15 71h86q38 0 50.5 11.5t12.5 48.5v112l-37 -35q-22 42 -82 137q-27 -104 -94 -219
l-57 35q42 72 66 130t35 124t12 156h-118q-1 -54 -6 -102q3 -4 64 -99l21 -33l-45 -49q-16 29 -53 89q-24 -117 -90 -223l-48 34v-187h-71v641h163v137h-180v70h622v-70zM675 583l1 137h-115l-2 -137h116zM400 152q49 84 68 162t22 198h-90v-360zM832 512h-93
q-2 -79 -10 -140q62 -92 103 -157v297z" />
    <glyph glyph-name="uni4FEA" unicode="&#x4fea;" 
d="M285 835q-27 -117 -63 -222v-684h-68v519q-29 -61 -73 -130l-33 89q43 72 90 197.5t75 243.5zM299 715v74h634v-74h-634zM312 -54v659h258v-579q0 -45 -18.5 -60.5t-68.5 -15.5h-51l-14 69h39q31 0 40 8t9 35v162l-43 -20l-86 202v-460h-65zM637 -54v659h263v-579
q0 -45 -19.5 -60.5t-73.5 -15.5h-49l-13 69h36q35 0 45 8t10 35v164l-44 -21l-89 202v-461h-66zM506 251v280h-129v-116l46 23zM836 253v278h-133v-115l48 24z" />
    <glyph glyph-name="uni4FED" unicode="&#x4fed;" 
d="M327 828q-34 -115 -83 -224v-668h-77v516q-47 -80 -91 -140l-31 91q56 67 113.5 193t92.5 252zM315 451l-40 65q198 140 299 328h68q106 -197 308 -324l-36 -71q-201 135 -306 316q-101 -172 -293 -314zM409 518h402v-68h-402v68zM607 134q-15 59 -36.5 133.5
t-37.5 120.5l66 22q20 -60 75 -255zM870 377q-22 -67 -56 -160t-64 -166h174v-72h-621v72h370q61 147 128 350zM432 102q-15 55 -39 134.5t-43 133.5l65 22q7 -22 66 -206l19 -62z" />
    <glyph glyph-name="uni4FEE" unicode="&#x4fee;" 
d="M383 444q141 41 227 88q-55 43 -100 102q-39 -48 -86 -89l-41 55q54 47 104 116t82 138l62 -25q-18 -39 -32 -64h282v-60q-60 -104 -150 -172q88 -46 217 -74l-24 -67q-159 41 -254 99q-105 -64 -259 -112zM297 828q-32 -119 -75 -231v-665h-68v514q-34 -66 -71 -122
l-34 85q45 64 99 191.5t83 243.5zM670 569q78 55 128 134h-237l-11 -17q47 -67 120 -117zM365 93h-63v603h63v-603zM773 388q-146 -97 -317 -155l-30 62q187 60 315 146zM421 145q105 31 207.5 81t188.5 111l36 -52q-84 -63 -189 -114.5t-212 -83.5zM373 -10
q151 40 286.5 101.5t239.5 139.5l36 -52q-202 -161 -535 -250z" />
    <glyph glyph-name="uni4FEF" unicode="&#x4fef;" 
d="M940 734v-70h-546v-217q0 -131 -6 -210.5t-22.5 -145.5t-50.5 -140l-64 47q34 64 49.5 121.5t20 125t4.5 185.5v304h286q-17 55 -37 107l76 12q7 -17 29 -84l12 -35h249zM302 815q-36 -128 -80 -232v-648h-67v509q-34 -63 -80 -126l-28 92q48 62 99.5 182.5t81.5 240.5z
M615 627q-27 -82 -63 -158v-532h-64v416q-29 -44 -60 -83l-32 70q45 54 86.5 137.5t68.5 169.5zM860 626v-137h79v-67h-79v-359q0 -45 -10.5 -69.5t-35.5 -35.5t-71 -11h-88l-14 70h82q30 0 45 5t21 19t6 43v338h-195v67h195v137h65zM695 160q-70 145 -90 179l54 30
q47 -88 93 -178z" />
    <glyph glyph-name="uni4FF1" unicode="&#x4ff1;" 
d="M303 816q-26 -105 -67 -208v-674h-72v520q-33 -62 -81 -129l-35 84q50 65 101 182.5t83 240.5zM848 794v-571h101v-66h-665v66h102v571h462zM777 646v80h-321v-80h321zM456 506h321v80h-321v-80zM777 365v80h-321v-80h321zM777 303h-321v-80h321v80zM279 -6
q65 28 126 67.5t109 79.5l43 -56q-49 -39 -113.5 -80.5t-130.5 -75.5zM706 139q53 -30 142 -84q83 -50 93 -56l-39 -63q-87 59 -232 145z" />
    <glyph glyph-name="uni4FF3" unicode="&#x4ff3;" 
d="M730 205h211v-77h-211v-194h-74v905h74v-158h190v-78h-190v-159h177v-75h-177v-164zM311 817q-34 -121 -73 -216v-666h-74v510q-43 -77 -79 -126l-33 86q47 69 100 191.5t84 238.5zM307 680h164v152h75v-893h-75v189h-190v77h190v164h-161v75h161v159h-164v77z" />
    <glyph glyph-name="uni4FF8" unicode="&#x4ff8;" 
d="M758 408q35 -58 81.5 -97.5t107.5 -63.5l-34 -63q-73 34 -129 89t-100 135h-158q-74 -123 -228 -219l-38 61q119 77 181 158h-151v64h191q14 25 33 74h-171v61h189q7 30 16 76h-221v63h231q7 41 12 98l73 -1q-2 -25 -11 -97h270l-1 -63h-279q-9 -47 -16 -76h266v-61h-283
q-10 -33 -29 -74h368v-64h-170zM297 823q-34 -121 -75 -226v-665h-71v506q-32 -63 -69 -124l-32 83q51 94 97 207.5t78 234.5zM784 211h-143v-79h247v-63h-247v-137h-71v137h-251v63h251v79h-148v62h148v96h71v-96h143v-62z" />
    <glyph glyph-name="uni4FFA" unicode="&#x4ffa;" 
d="M873 105l2 46l66 -14q0 -14 -4 -78q-3 -42 -14 -65t-35.5 -32.5t-68.5 -9.5h-150q-58 0 -81.5 23.5t-23.5 77.5v56h-214v326q-40 -30 -62 -44l-38 65q151 91 227 208h-169v66h206q29 60 44 122l73 -15q-13 -48 -37 -107h323v-66h-200q41 -66 100 -118t132 -84l-34 -68
q-27 13 -66 39v-324h-216v-40q0 -31 12.5 -42.5t47.5 -11.5h116q36 0 48.5 12.5t14.5 47.5zM305 826q-28 -102 -70 -212v-679h-72v517q-34 -67 -69 -122l-40 70q48 88 100 212t80 232zM561 664q-58 -100 -152 -182h155v110h69v-110h154q-92 81 -147 182h-79zM418 325h146v95
h-146v-95zM780 420h-147v-95h147v95zM418 265v-95h146v95h-146zM633 265v-95h147v95h-147z" />
    <glyph glyph-name="uni4FFE" unicode="&#x4ffe;" 
d="M932 173v-68h-232v-175h-74v175h-326v68h112l-33 51q98 45 141 91h-152v430h175q23 52 43 113l80 -19q-3 -8 -23 -60l-14 -34h251v-430h-271q-54 -87 -174 -142h191v107h74v-107h232zM326 825q-31 -105 -79 -215v-677h-73v528q-39 -70 -86 -138l-35 83q50 72 108.5 199.5
t89.5 239.5zM589 680h-149v-118h149v118zM662 562h148v118h-148v-118zM440 380h123q20 48 25 119h-148v-119zM810 380v119h-150q-3 -65 -21 -119h171z" />
    <glyph glyph-name="uni500C" unicode="&#x500c;" 
d="M853 553v-226h-387v-95h407v-301h-73v51h-334v-51h-75v622h-61v182h278l-48 99l75 25l58 -124h233v-182h-73zM308 821q-26 -97 -72 -212v-678h-73v516q-36 -71 -70 -130l-34 93q45 81 95.5 202.5t77.5 229.5zM852 564v101h-448v-101h448zM466 393h314v106h-314v-106z
M800 46v120h-334v-120h334z" />
    <glyph glyph-name="uni500D" unicode="&#x500d;" 
d="M767 473h171v-73h-624v73h167l-37 184h-88v69h245q-13 40 -39 108l73 20q29 -72 46 -128h235v-69h-117zM327 817q-34 -108 -89 -229v-658h-74v515q-31 -56 -84 -131l-33 83q59 82 113.5 196t93.5 246zM724 657h-204l35 -184h139zM462 -71h-76v369h477v-369h-76v57h-325
v-57zM787 53v177h-325v-177h325z" />
    <glyph glyph-name="uni500F" unicode="&#x500f;" 
d="M391 437q138 41 228 92q-55 42 -101 101q-42 -50 -82 -86l-43 56q52 46 103 117.5t83 142.5l62 -25q-12 -29 -34 -71h282v-63q-61 -103 -148 -172q89 -48 207 -78l-24 -69q-141 40 -243 104q-102 -65 -259 -114zM293 830q-30 -119 -72 -230v-666h-69v508
q-36 -71 -68 -119l-32 89q41 61 91.5 187.5t80.5 245.5zM296 705h67v-596h-67v596zM678 567q76 55 127 135h-235l-12 -18q49 -68 120 -117zM861 318l-50 -35l-71 95l48 33zM682 279h250v-69h-258l-5 -21l141 -104q69 -53 121 -90l-43 -61q-49 41 -244 189q-30 -57 -89 -103
t-158 -90l-37 67q119 46 173 94.5t70 118.5h-190v69h199v9q3 72 3 113h70q0 -40 -3 -112v-10z" />
    <glyph glyph-name="uni5012" unicode="&#x5012;" 
d="M270 822q-27 -102 -53 -181v-710h-68v537q-32 -69 -73 -136l-24 95q38 61 77 174t68 238zM826 825h67v-763q0 -45 -10.5 -69.5t-36.5 -35t-73 -10.5h-85l-14 69h76q45 0 60.5 13.5t15.5 52.5v743zM481 442v-127h134v-70h-134v-154l21 2q123 13 137 16l4 -71
q-70 -7 -211.5 -22t-169.5 -19l-7 72q19 0 158 15v161h-127v70h127v122l-126 -11l-13 57q27 41 59 101t55 110h-102v71h345v-71h-173q-65 -139 -108 -204l188 16q-18 38 -57 114l54 26q20 -38 52 -102.5t56 -118.5l-56 -27q-10 25 -23 51zM681 717h63v-563h-63v563z" />
    <glyph glyph-name="uni5014" unicode="&#x5014;" 
d="M301 823q-30 -109 -69 -219v-668h-70v496q-23 -49 -56 -111l-45 78q55 100 94.5 204t72.5 238zM903 548h-486v-59q0 -183 -23 -297.5t-82 -241.5l-69 35q41 79 62.5 145t30.5 149t9 212v302h558v-245zM833 615v111h-416v-111h416zM844 47v166h61v-279h-61v46h-385v234h63
v-167h129v224h-169v208h60v-141h109v190h64v-190h111v140h60v-207h-171v-224h129z" />
    <glyph glyph-name="uni5018" unicode="&#x5018;" 
d="M653 840v-280h240v-496q0 -46 -11 -70.5t-37 -34t-75 -9.5h-91l-14 70h87q31 0 46 5t20 17.5t5 39.5v407h-414v-544h-70v615h240v280h74zM295 819q-32 -121 -66 -206v-677h-70v522q-39 -72 -83 -137l-29 87q50 72 96.5 184t80.5 243zM458 607q-47 61 -127 148l52 49
q87 -95 129 -148zM900 756q-29 -41 -112 -130q3 4 -20 -23l-55 49q96 96 133 149zM496 390h240v-297h-240v297zM555 162h123v159h-123v-159z" />
    <glyph glyph-name="uni5019" unicode="&#x5019;" 
d="M292 826q-33 -121 -71 -221v-670h-68v514q-35 -71 -71 -131l-33 88q43 71 94.5 197.5t81.5 241.5zM823 619h114v-67h-529v67h344l10 110h-296v67h372zM304 729h65v-642h-65v642zM713 198q57 -141 234 -191l-37 -70q-87 32 -145.5 79t-92.5 112q-31 -60 -95.5 -107
t-174.5 -91l-37 67q114 41 176 90t82 111h-220v67h230q1 25 1 118h-115q-28 -53 -54 -91l-56 36q63 89 104 204l60 -14q-8 -25 -24 -69h344v-66h-184l-4 -111v-7h228v-67h-220z" />
    <glyph glyph-name="uni501A" unicode="&#x501a;" 
d="M311 826q-28 -102 -70 -206v-685h-71v531q-44 -85 -92 -154l-30 86q48 68 103.5 197t85.5 247zM340 537q105 30 153.5 60.5t66.5 80.5h-220v67h234l1 9q1 17 2 43t1 45h75l-3 -95v-2h254v-67h-264l-6 -21q185 -88 242 -120l-35 -58q-67 39 -236 125q-30 -38 -86 -67.5
t-149 -58.5zM938 469v-68h-84v-341q0 -45 -11.5 -69.5t-38 -34.5t-76.5 -10h-100l-13 68h90q33 0 49 5t22 19t6 43v320h-485v68h641zM358 319h304v-252h-304v252zM418 126h182v133h-182v-133z" />
    <glyph glyph-name="uni501C" unicode="&#x501c;" 
d="M294 823q-33 -123 -66 -212v-681h-72v513q-38 -74 -68 -121l-38 81q46 69 95.5 195.5t75.5 241.5zM342 794h556v-736q0 -44 -12 -68.5t-39.5 -35t-76.5 -10.5h-90l-15 71h93q42 0 55.5 11.5t13.5 48.5v654h-414v-300q0 -135 -7.5 -220t-26 -148.5t-53.5 -130.5l-69 37
q37 70 54.5 129t24 138t6.5 222v338zM439 387v63h146v99h-122v61h122v89h68v-89h120v-61h-120v-99h145v-63h-359zM486 312h265v-248h-265v248zM547 125h143v126h-143v-126z" />
    <glyph glyph-name="uni501F" unicode="&#x501f;" 
d="M310 826q-31 -110 -70 -207v-685h-72v528q-36 -70 -84 -139l-34 84q49 71 103.5 196t82.5 239zM777 652v-126h163v-69h-642v69h156v126h-123v68h123v119h72v-119h178v119h73v-119h134v-68h-134zM704 652h-178v-126h178v126zM449 -66h-75v437h478v-435h-75v49h-328v-51z
M777 208v95h-328v-95h328zM449 146v-97h328v97h-328z" />
    <glyph glyph-name="uni5021" unicode="&#x5021;" 
d="M321 822q-37 -118 -80 -215v-674h-71v528q-40 -74 -89 -146l-25 95q57 78 106 192t84 240zM390 793h465v-349h-465v349zM784 649v81h-323v-81h323zM461 588v-81h323v81h-323zM354 -63v416h537v-415h-71v47h-394v-48h-72zM820 199v90h-394v-90h394zM426 138v-90h394v90
h-394z" />
    <glyph glyph-name="uni5025" unicode="&#x5025;" 
d="M834 653h-424v-108h-76v182h263l-34 101l77 21l35 -122h235v-182h-76v108zM312 823q-29 -101 -73 -211v-678h-73v521q-33 -63 -83 -140l-34 90q50 68 105 193t84 242zM584 538q-98 -98 -238 -195l-39 63q131 88 229 186zM694 586q44 -31 120 -89t114 -89l-43 -60
q-45 37 -116.5 92t-117.5 87zM659 249v-202h270v-72h-619v72h270v202h-201v72h483v-72h-203z" />
    <glyph glyph-name="uni5026" unicode="&#x5026;" 
d="M660 170q29 0 38.5 9.5t12.5 41.5q3 30 3 45h-234v-180q0 -38 14 -51t57 -13h176q36 0 53 4.5t23 16t7 35.5q1 17 2 42t1 42l69 -16l-6 -96q-2 -38 -15 -58.5t-40.5 -29t-76.5 -8.5h-207q-67 0 -95.5 25.5t-28.5 86.5v204q-51 -47 -123 -98l-39 61q144 94 219 202h-179
v64h216q23 47 34 86h-220v64h235q20 91 33 202l68 -9q-6 -59 -31 -193h284v-64h-298q-11 -43 -29 -86h355v-64h-187q70 -97 201 -172l-36 -68q-77 51 -134 107l-6 -100q-5 -55 -25 -75.5t-72 -20.5h-106l-11 64h98zM306 827q-33 -118 -73 -215v-680h-71v532
q-37 -68 -83 -134l-31 85q49 68 103 191t84 238zM450 658q-21 28 -73 94l-19 24l54 40q36 -46 50 -63l42 -53zM866 781q-44 -63 -97 -124l-54 38q1 1 16 19q52 59 82 102zM753 331q-50 53 -79 104h-123q-35 -59 -76 -104h278z" />
    <glyph glyph-name="uni5028" unicode="&#x5028;" 
d="M311 830q-31 -116 -74 -226v-671h-73v511q-32 -63 -73 -125l-41 80q50 79 103.5 203t84.5 243zM931 373h-214v-111h167v-331h-71v52h-268v-53h-73v332h171v111h-210q-7 -136 -29.5 -234t-68.5 -199l-67 44q36 79 55.5 147.5t28.5 156t9 219.5v288h543v-249h-187v-107h214
v-66zM828 611v119h-392v-119h392zM643 439v107h-207v-47q0 -41 -1 -60h208zM545 47h268v148h-268v-148z" />
    <glyph glyph-name="uni5029" unicode="&#x5029;" 
d="M654 577v-67h280v-57h-631v57h279v67h-224v54h224v64h-246v57h246v90h72v-90h249v-57h-249v-64h227v-54h-227zM307 825q-29 -105 -71 -212v-679h-72v519q-36 -70 -72 -128l-43 74q50 71 104 196.5t85 243.5zM366 -57v447h499v-349q0 -53 -22 -73t-80 -20h-109l-11 58h85
q39 0 52.5 10.5t13.5 38.5v30h-358v-142h-70zM794 266v65h-358v-65h358zM436 208v-65h358v65h-358z" />
    <glyph glyph-name="uni502A" unicode="&#x502a;" 
d="M304 829q-34 -113 -66 -196v-701h-75v528q-33 -69 -83 -157l-21 103q119 246 168 438zM940 193l-6 -146q-2 -50 -26 -70t-84 -20h-73q-54 0 -76 20.5t-22 74.5v245h-106l-1 -16q-6 -91 -25 -148t-64.5 -104t-134.5 -98l-46 66q76 41 117 78.5t59 85t21 120.5q0 10 1 16
h-132v469q53 11 117 31t110 43l22 -75q-37 -19 -85 -37.5t-87 -28.5v-123h159v-67h-159v-144h377v144h-162v67h162v134h-167v74h243v-487h-144v-216q0 -30 9 -39.5t40 -9.5h35q35 0 45.5 9.5t12.5 40.5q1 19 1 126z" />
    <glyph glyph-name="uni502C" unicode="&#x502c;" 
d="M652 158h288v-69h-288v-157h-77v157h-283v69h283v95h-218v347h207v245h77v-93h289v-65h-289v-87h235v-347h-224v-95zM332 818q-42 -126 -82 -214v-671h-74v523q-42 -75 -98 -157l-19 105q51 71 106.5 192.5t91.5 243.5zM802 459v78h-371v-78h371zM802 398h-371v-82h371
v82z" />
    <glyph glyph-name="uni502D" unicode="&#x502d;" 
d="M315 824q-30 -107 -74 -213v-681h-73v521q-29 -58 -70 -128l-39 72q50 85 102 209t81 236zM288 407q90 33 152 68.5t114 84.5h-236v63h273v98q-148 -10 -228 -13l-5 66q105 3 261.5 15.5t259.5 26.5l10 -66q-86 -11 -230 -23v-104h274v-63h-237q46 -43 104.5 -76.5
t148.5 -68.5l-30 -63q-91 39 -152 77t-108 85v-142h-68v141q-50 -51 -113.5 -91.5t-157.5 -80.5zM601 368q-10 -24 -29 -61h369v-63h-129q-35 -97 -96 -157q119 -45 221 -86l-38 -64q-86 37 -246 103q-58 -35 -141 -61t-203 -47l-26 69q191 33 284 73q-81 33 -175 67
q26 39 64 103h-166v63h201q20 37 40 83zM538 244q-23 -42 -44 -73l117 -43l30 -12q32 24 54 55t38 73h-195z" />
    <glyph glyph-name="uni502E" unicode="&#x502e;" 
d="M311 826q-28 -105 -73 -215v-675h-72v521q-38 -71 -76 -129l-43 67q58 87 108.5 204t82.5 241zM680 246q102 -117 268 -200l-39 -66q-146 74 -257 204v-252h-72v252q-53 -62 -117 -113.5t-150 -99.5l-41 69q93 47 160.5 96.5t118.5 109.5h-248v68h277v89h-220v392h512
v-392h-220v-89h277v-68h-249zM580 631v99h-149v-99h149zM652 631h149v99h-149v-99zM431 569v-101h149v101h-149zM652 569v-101h149v101h-149z" />
    <glyph glyph-name="uni503A" unicode="&#x503a;" 
d="M649 565v-70h290v-57h-646v57h283v70h-233v57h233v68h-245v57h245v100h73v-100h266v-57h-266v-68h236v-57h-236zM311 822q-37 -133 -81 -238v-653h-71v509q-36 -63 -73 -113l-34 83q52 69 103 186t84 239zM850 366v-265h-70v201h-335v-203h-69v267h474zM630 142
q52 -26 104 -50q171 -84 194 -96l-33 -65q-51 30 -138.5 76t-151.5 77q-32 -49 -98.5 -83.5t-195.5 -76.5l-30 69q124 33 185.5 65t83.5 71t27 103l3 40l67 -2l-2 -40q-3 -50 -15 -88z" />
    <glyph glyph-name="uni503C" unicode="&#x503c;" 
d="M297 832q-32 -119 -68 -214v-679h-72v517q-36 -70 -81 -138l-32 91q52 78 98.5 194t77.5 244zM860 602v-569h88v-66h-671v66h90v569h209v92h-252v65h252v87h75v-87h271v-65h-271v-92h209zM786 458v79h-345v-79h345zM441 322h345v77h-345v-77zM786 178v84h-345v-84h345z
M786 121h-345v-88h345v88z" />
    <glyph glyph-name="uni503E" unicode="&#x503e;" 
d="M278 830q-28 -108 -59 -195v-691h-66v524q-39 -84 -76 -152l-30 86q43 75 91.5 205.5t71.5 238.5zM489 242l10 -80l-164 -133l-39 60q16 14 23.5 29t7.5 35v672h68v-239h102v-72h-102v-350zM657 606q5 20 10.5 50t8.5 43l6 29h-179v64h429v-64h-181q-19 -94 -26 -122h169
v-452h-66v389h-233v-388h-65v451h127zM941 -5l-49 -53q-43 47 -183 187q-25 -54 -75.5 -99.5t-137.5 -95.5l-43 62q99 52 147 98t64 100.5t16 143.5v147h64v-161q0 -75 -11 -126z" />
    <glyph glyph-name="uni5043" unicode="&#x5043;" 
d="M309 828q-36 -124 -74 -218v-673h-70v515q-33 -69 -79 -146l-27 97q47 82 97 206t80 238zM400 728v-696h540v-65h-609v828h594v-67h-525zM838 292q-30 -70 -75 -111l119 -48l29 -12l-28 -58q-72 34 -175 77q-84 -49 -257 -80l-17 56q136 23 205 52q-74 30 -142 54
q27 39 44 70h-118v53h147l27 58h-113v266h391v-266h-205l-29 -58h291v-53h-94zM813 564v51h-265v-51h265zM813 509h-265v-50h265v50zM702 204q41 33 68 88h-158q-18 -30 -28 -45q46 -16 118 -43z" />
    <glyph glyph-name="uni5047" unicode="&#x5047;" 
d="M293 827q-33 -126 -67 -213v-682h-68v531q-32 -61 -78 -131l-31 85q49 72 95 184.5t79 237.5zM578 208v-70h-184v-200h-69v857h259v-278h-190v-119h168v-69h-168v-121h184zM629 794h257v-275h-258v71h191v134h-190v70zM518 586v139h-124v-139h124zM946 8l-37 -72
q-104 62 -165 130q-72 -72 -177 -130l-39 63q108 59 172 123q-62 89 -98 229v69h291v-71q-18 -70 -43 -126t-61 -104q57 -57 157 -111zM670 351q26 -107 75 -178q53 71 81 178h-156z" />
    <glyph glyph-name="uni5048" unicode="&#x5048;" 
d="M321 825q-41 -131 -86 -234v-659h-70v516q-38 -67 -69 -112l-34 82q48 75 98 191t85 232zM900 390q-2 -61 -6.5 -168t-7.5 -169q-3 -43 -16 -66t-42 -32.5t-82 -9.5h-72l-13 63h54q56 0 77.5 16.5t23.5 59.5l12 244h-170q-8 -31 -24 -59l112 -78l41 -29l-39 -51
q-42 35 -145 110q-40 -53 -127 -108l-33 52q62 37 96 72.5t53 90.5h-165q-19 -21 -45 -46h40v-196h322v-62h-390v233q-35 -29 -52 -41l-43 58q59 43 102.5 90.5t77.5 105.5h-63v330h478v-330h-330q-23 -44 -49 -80h425zM781 663v77h-330v-77h330zM451 605v-78h330v78h-330z
" />
    <glyph glyph-name="uni504C" unicode="&#x504c;" 
d="M312 826q-33 -115 -75 -220v-670h-72v515q-40 -75 -82 -139l-34 88q57 94 108.5 209.5t82.5 232.5zM795 839v-105h142v-72h-142v-82h-75v82h-190v-83h-74v83h-135v72h135v105h74v-105h190v105h75zM649 584q-23 -60 -32 -81h320v-72h-354q-36 -69 -75 -119h363v-372h-73
v59h-299v-59h-74v281q-52 -49 -121 -100l-39 65q80 57 135.5 115.5t97.5 129.5h-186v72h223q18 38 40 98zM499 68h299v173h-299v-173z" />
    <glyph glyph-name="uni504E" unicode="&#x504e;" 
d="M297 821q-30 -106 -73 -214v-676h-69v519q-28 -61 -68 -133l-28 96q42 78 88 192.5t77 233.5zM349 797h514v-371h-514v371zM574 639v99h-153v-99h153zM642 639h149v99h-149v-99zM574 586h-153v-100h153v100zM642 586v-100h149v100h-149zM940 13l-37 -63
q-109 37 -178.5 79t-116.5 102.5t-84 153.5h-87v-251l173 63l4 -70l-248 -96l-31 64q18 11 25 21.5t7 26.5v242h-107v65h675v-65h-340q34 -78 77 -125q103 62 166 109l40 -52q-70 -48 -159 -101q76 -61 221 -103z" />
    <glyph glyph-name="uni504F" unicode="&#x504f;" 
d="M898 422v-392q0 -50 -21.5 -70t-74.5 -20h-29l-14 65h30q29 0 37 8.5t8 33.5v116h-87v-175h-58v175h-85v-174h-60v174h-85v-219h-63v433q-18 -212 -101 -409l-55 52q51 115 73 228.5t22 288.5v210h247l-26 91l80 10l33 -101h218v-232h-485q0 -48 -3 -93h499zM294 816
q-35 -127 -70 -220v-659h-68v511q-24 -46 -71 -117l-32 83q50 74 96.5 190t75.5 234zM816 580v105h-414v-105h414zM459 360v-136h85v136h-85zM604 360v-136h85v136h-85zM747 360v-136h87v136h-87z" />
    <glyph glyph-name="uni5055" unicode="&#x5055;" 
d="M303 827q-31 -109 -66 -206v-690h-72v519q-32 -67 -67 -124l-37 73q48 85 93 203t79 244zM938 631q-1 -46 -6 -99q-3 -51 -27 -70.5t-82 -19.5h-88q-55 0 -76.5 21t-21.5 74v309h66v-154q48 23 100 52.5t85 51.5l33 -61q-36 -23 -99 -56.5t-119 -60.5v-59q0 -32 10 -42.5
t43 -10.5h61q33 0 44 11.5t13 44.5q2 34 2 81zM582 569l10 -66l-236 -89l-25 63q16 8 23 19t7 28v318h67v-119h164v-67h-164v-147zM643 442l-30 -83h254v-425h-67v51h-356v-51h-68v425h161q21 59 31 94zM444 202h356v93h-356v-93zM444 141v-96h356v96h-356z" />
    <glyph glyph-name="uni505A" unicode="&#x505a;" 
d="M946 -1l-43 -66q-96 92 -153 192q-60 -93 -169 -196l-47 60q120 108 179 208q-49 114 -73 276q-26 -48 -44 -74l-39 67q46 68 83 175t53 209l68 -12q-16 -88 -40 -166h220v-68h-56q-11 -134 -33 -231t-63 -179q59 -106 157 -195zM270 826q-21 -90 -49 -173v-718h-71v537
q-37 -78 -74 -137l-32 93q43 71 86.5 186.5t68.5 229.5zM298 38v370h94v182h-126v67h126v187h68v-187h126v-67h-126v-182h94v-370h-256zM752 272q28 66 45 146.5t26 185.5h-125l-13 -32q17 -177 67 -300zM362 108h129v230h-129v-230z" />
    <glyph glyph-name="uni505C" unicode="&#x505c;" 
d="M928 747v-64h-605v64h265q-14 62 -22 88l80 12q7 -22 18 -70l8 -30h256zM307 831q-35 -124 -73 -224v-667h-69v516q-38 -70 -81 -128l-35 83q49 73 100 190.5t86 243.5zM852 624v-180h-473v180h473zM781 569h-332v-72h332v72zM300 223v158h629v-159h-69v96h-491v-95h-69z
M395 176v59h438v-59h-165v-132q0 -39 -10.5 -60t-36 -30.5t-73.5 -9.5h-107l-14 68h104q41 0 53.5 10.5t12.5 42.5v111h-202z" />
    <glyph glyph-name="uni5065" unicode="&#x5065;" 
d="M717 54h-67v91h-171v59h171v78h-142v59h142v78h-137v57h137v81h-167v57h167v82h-137v57h137v92h67v-92h164v-139h62v-57h-62v-138h-164v-78h183v-59h-183v-78h200v-59h-200v-91zM263 822q-25 -107 -57 -201v-683h-64v521q-32 -71 -69 -132l-29 89q41 68 83.5 186
t67.5 235zM944 32l-12 -64h-295q-88 0 -152.5 23.5t-112.5 78.5q-30 -54 -89 -136l-48 54q59 76 95 141q-47 84 -78 217l58 20q25 -101 54 -163q17 46 27.5 99.5t16.5 124.5h-139v63l133 213h-122v63h194v-64l-131 -212h126v-66q-10 -97 -24.5 -163.5t-39.5 -125.5
q39 -51 97.5 -77t141.5 -26h300zM817 696h-100v-82h100v82zM817 557h-100v-81h100v81z" />
    <glyph glyph-name="uni506C" unicode="&#x506c;" 
d="M521 482q-69 -97 -180 -181l-47 53q97 68 160 149l-61 19l20 57l77 -23q37 60 60 130h-91q-56 -97 -128 -177l-56 46q60 65 108.5 142.5t81.5 161.5l70 -16q-18 -45 -41 -92h413l-28 -347q-4 -40 -17.5 -61.5t-41.5 -31t-76 -9.5h-68l-11 64h63q46 0 63.5 13.5t22.5 52.5
q5 44 11.5 123.5t10.5 130.5h-79q-22 -120 -57 -195l78 -27l-21 -63q-14 5 -67 23l-22 8q-47 -75 -134 -150l-51 47q77 59 122 125zM306 826q-33 -118 -78 -233v-657h-70v498q-30 -62 -61 -118l-38 83q113 223 172 441zM617 686q-23 -81 -62 -150l83 -25q36 73 54 175h-75z
M603 297l94 -138l-53 -36q-24 41 -92 139zM240 27q31 54 58.5 116.5t43.5 116.5l63 -18q-17 -59 -44 -124.5t-56 -120.5zM842 260q42 -84 98 -205l-61 -24q-50 115 -95 200zM718 164l61 -13q0 -24 -5 -94q-2 -55 -29 -76t-95 -21h-100q-61 0 -85 22t-24 83v194h67v-178
q0 -34 12.5 -46t46.5 -12h81q38 0 52 11t15 44z" />
    <glyph glyph-name="uni5076" unicode="&#x5076;" 
d="M308 825q-37 -121 -76 -217v-674h-71v524q-36 -67 -86 -136l-32 82q56 84 106.5 196.5t86.5 240.5zM645 340h250v-300q0 -53 -23.5 -75t-85.5 -22h-89l-13 66h74q40 0 54 11.5t14 44.5v210h-182v-118l30 2l39 3l-21 65l53 17q20 -52 60 -187l-56 -13q-7 25 -17 56
q-15 -1 -32 -3t-35 -3q-200 -17 -222 -20l-6 67l56 4l82 6v124h-177v-339h-69v404h246v85h-216v371h502v-371h-216v-85zM575 642v92h-146v-92h146zM645 642h146v92h-146v-92zM429 580v-92h146v92h-146zM645 580v-92h146v92h-146z" />
    <glyph glyph-name="uni5077" unicode="&#x5077;" 
d="M653 841q53 -77 128 -142t164 -108l-33 -68q-91 48 -169.5 115t-129.5 140q-64 -87 -157 -165h314v-59h-319v55q-56 -46 -145 -101l-36 68q103 59 176.5 123t126.5 142h80zM313 825q-37 -124 -85 -237v-656h-67v519q-28 -53 -77 -126l-35 83q57 78 106 192t83 240z
M817 499h61v-457q0 -40 -10.5 -61t-33.5 -29t-65 -8h-84l-11 64h79q38 0 51 11t13 43v437zM330 -59v543h271v-464q0 -46 -18.5 -62.5t-66.5 -16.5h-62l-15 63h52q29 0 38 7.5t9 29.5v92h-144v-192h-64zM678 108v358h60v-358h-60zM538 336v89h-144v-89h144zM394 278v-90h144
v90h-144z" />
    <glyph glyph-name="uni507B" unicode="&#x507b;" 
d="M278 411q74 30 143.5 71t122.5 88h-235v66h265v208h70v-208h283v-66h-256q100 -91 269 -157l-28 -67q-165 70 -268 165v-134h-70v138q-101 -98 -263 -171zM294 825q-29 -115 -64 -212v-677h-69v511q-36 -76 -75 -141l-27 96q45 86 92.5 205t74.5 234zM464 644
q-24 32 -114 138l48 40l55 -65q36 -41 62 -73zM871 782q-24 -31 -60 -72.5t-62 -66.5l-47 42q25 25 60 66t57 69zM580 369q-18 -40 -28 -60h381v-67h-126q-21 -50 -45.5 -86.5t-57.5 -66.5q86 -33 217 -85l-31 -63q-104 45 -250 103q-57 -33 -142 -59t-215 -52l-24 67
q198 36 297 76q-73 28 -186 69q40 59 63 97h-149v67h187q27 48 40 77zM516 242q-28 -48 -43 -70q79 -26 158 -56q33 24 55.5 54t41.5 72h-212z" />
    <glyph glyph-name="uni507E" unicode="&#x507e;" 
d="M644 585h-70v100h-232v64h232v99h70v-99h246v-64h-246v-100zM302 820q-31 -106 -68 -203v-690h-70v528q-37 -74 -67 -121l-37 71q44 77 91.5 195.5t80.5 238.5zM810 630v-78h128v-64h-128v-72h-69v72h-263v-74h-69v74h-119v64h119v78h69v-78h263v78h69zM856 381v-267h-72
v203h-350v-203h-71v267h493zM628 155q61 -29 153 -75.5t156 -79.5l-34 -63q-48 28 -142.5 78t-160.5 83q-35 -52 -105.5 -90t-200.5 -75l-29 70q121 29 185 62t89 70t34 92q2 11 3 27.5t1 27.5h71q0 -24 -5 -62q-4 -34 -15 -65z" />
    <glyph glyph-name="uni507F" unicode="&#x507f;" 
d="M855 568h-472v-115h-70v183h269v207h74v-207h271v-184h-72v116zM309 820q-37 -124 -76 -220v-665h-70v512q-41 -75 -85 -138l-31 80q65 106 106.5 205.5t85.5 242.5zM459 644l-92 142l53 31q32 -46 75 -113l17 -26zM874 782q-27 -49 -90 -141l-53 36q21 29 48 69.5
t41 66.5zM827 457v-66h-415v66h415zM590 219q-31 -45 -71 -95.5t-76 -86.5l323 19l-78 101l59 34q32 -38 81 -102.5t88 -117.5l-55 -40l-48 63l-458 -27l-16 64q90 82 167 188h-206v68h640v-68h-350z" />
    <glyph glyph-name="uni5080" unicode="&#x5080;" 
d="M938 146q0 -20 -2 -48.5t-4 -47.5q-4 -36 -14.5 -55t-33 -27t-65.5 -8h-130q-61 0 -86 21.5t-25 76.5v146q-38 -74 -104.5 -138t-168.5 -128l-41 65q117 70 186 146t98 173h-204v432h187q24 72 31 104l79 -11q-9 -35 -28 -93h254v-432h-246q-3 -14 -11 -40h36v-114
q50 60 81 146l56 -24q-28 -69 -71 -132l92 7l-34 71l47 25q31 -58 62 -125v23zM300 820q-25 -96 -64 -203v-681h-70v512q-33 -69 -69 -129l-37 75q47 82 93.5 203t77.5 243zM568 569v120h-157v-120h157zM637 569h162v120h-162v-120zM411 387h150q7 42 7 94v26h-157v-120z
M799 387v120h-162v-26q0 -44 -5 -94h167zM807 24q39 0 53.5 11t15.5 42l1 29l-38 -17q-6 15 -12 25l-181 -16v-22q0 -31 13 -41.5t49 -10.5h99z" />
    <glyph glyph-name="uni5085" unicode="&#x5085;" 
d="M348 613h233v67h-261v62h261v105h69v-105h119l-43 80l56 24l58 -104h94v-62h-284v-67h228v-343h-68v41h-160v-53h-69v53h-165v-60h-68v362zM309 822q-29 -106 -71 -210v-681h-71v527q-46 -85 -93 -151l-30 86q58 83 110.5 203t85.5 246zM581 487v68h-165v-68h165z
M810 487v68h-160v-68h160zM416 433v-67h165v67h-165zM650 433v-67h160v67h-160zM948 213v-65h-136v-98q0 -42 -10.5 -64.5t-36 -32t-74.5 -9.5h-108l-15 67h99q33 0 48 5t20.5 17.5t5.5 38.5v76h-316q76 -58 131 -102l-42 -53q-60 52 -136 109l35 46h-132v65h460v46h71v-46
h136z" />
    <glyph glyph-name="uni5088" unicode="&#x5088;" 
d="M288 818q-30 -120 -57 -201v-686h-71v505q-26 -55 -56 -109l-44 71q46 82 88 198.5t69 236.5zM320 622h166v102h-175v66h604v-66h-199v-102h166v-238h-562v238zM551 622h102v102h-102v-102zM486 558h-104v-111h104v111zM653 558h-102v-111h102v111zM819 447v111h-103
v-111h103zM665 219q49 -57 116 -103.5t157 -84.5l-39 -66q-167 83 -262 191v-222h-68v233q-50 -62 -115.5 -111t-162.5 -97l-38 63q101 46 165.5 91.5t113.5 105.5h-245v65h282v71h68v-71h282v-65h-254z" />
    <glyph glyph-name="uni508D" unicode="&#x508d;" 
d="M374 501v-80h-69v144h155l-26 118h-124v65h274l-44 92l72 21q18 -36 52 -113h247v-65h-135l-26 -118h152v-144h-71v80h-457zM281 823q-29 -110 -67 -208v-678h-67v527q-36 -69 -75 -131l-42 67q52 81 100 198t79 240zM706 683h-201l27 -118h148zM932 304h-412
q-2 -15 -4 -45q-2 -11 -4 -37h337l-5 -59l-8 -107q-4 -54 -33.5 -79t-96.5 -25h-126l-13 66h121q42 0 59.5 12.5t20.5 44.5l4 81h-271q-17 -74 -65 -127.5t-141 -103.5l-46 58q68 37 105.5 68.5t58 72.5t29.5 105q3 25 8 75h-166v65h306q-30 64 -44 88l72 12q25 -50 46 -100
h268v-65z" />
    <glyph glyph-name="uni50A3" unicode="&#x50a3;" 
d="M246 225q128 82 196 180h-151v62h188q17 33 34 80h-170v62h189q10 37 18 80h-233v63h243q7 48 11 96l75 -2l-15 -94h265v-63h-274q-5 -28 -17 -80h265v-62h-283q-14 -42 -31 -80h366v-62h-177q36 -51 84 -91t112 -75l-33 -66q-64 40 -118 89l-97 -66l-30 54l84 55
q-45 48 -78 100h-146q-32 -54 -75 -101l91 -56l-34 -52l-101 65q-49 -47 -122 -96zM293 827q-33 -135 -68 -233v-663h-71v496q-26 -51 -64 -113l-39 76q53 90 97.5 205.5t73.5 243.5zM568 353h69v-307q0 -53 -24 -75.5t-78 -22.5h-65l-14 70h63q30 0 39.5 9t9.5 37v289z
M278 43l245 131l29 -56l-242 -138zM685 174l231 -135l-37 -58l-123 75q-60 35 -104 63z" />
    <glyph glyph-name="uni50A5" unicode="&#x50a5;" 
d="M849 595h-478v-81h-69v149h268v188h76v-188h274v-150h-71v82zM289 831q-28 -101 -57 -187v-708h-72v529q-25 -52 -62 -113l-39 71q38 60 82 173.5t81 248.5zM439 673q-12 13 -35 41.5t-33 41.5q-14 20 -29 38l54 37q10 -10 32.5 -37l37.5 -45q10 -13 17.5 -22t11.5 -14z
M870 794q-20 -30 -49 -69t-44 -55l-54 40q18 19 45 55t46 65zM938 164l-3 -86l-2 -40q-3 -50 -25 -69t-80 -19h-82q-55 0 -75.5 21t-20.5 74v178h-106l-3 -37q-8 -63 -35 -108t-70.5 -79t-111.5 -69l-48 60q63 29 101 54t61 59t30 83l3 37h-97v270h464v-270h-115v-159
q0 -28 9 -36.5t40 -8.5h45q34 0 44.5 8.5t11.5 38.5l3 113zM768 426h-324v-138h324v138z" />
    <glyph glyph-name="uni50A7" unicode="&#x50a7;" 
d="M837 677h-439v-86h-73v153h261l-29 97l78 14l29 -111h247v-150h-74v83zM298 827q-31 -118 -65 -206v-691h-74v520q-34 -68 -72 -125l-39 78q48 70 96.5 190.5t80.5 247.5zM750 220h186v-66h-659v66h118v346q94 6 216.5 21t197.5 31l9 -66q-63 -14 -169.5 -28t-181.5 -20
v-82h431v-66h-148v-136zM678 356h-211v-136h211v136zM269 -10q58 27 124 68t111 77l37 -56q-44 -35 -111.5 -78t-123.5 -73zM690 131q172 -97 238 -138l-36 -62q-49 33 -117.5 74t-118.5 68z" />
    <glyph glyph-name="uni50A8" unicode="&#x50a8;" 
d="M761 472q-46 -51 -103 -100h221v-438h-63v59h-199v-59h-64v356q-45 -32 -89 -61l-30 61q146 91 237 182h-205v65h159v128h-117v64h117v117h66v-117h117v-64h-117v-128h39q87 105 142 247l62 -25q-51 -125 -121 -222h124v-65h-176zM299 829q-34 -134 -77 -241v-651h-66
v506q-38 -72 -79 -128l-28 87q52 78 101.5 201t77.5 242zM411 609q-57 121 -92 179l55 33q35 -56 95 -174zM408 115l80 66l19 -73l-157 -126l-38 55q30 27 30 57v373h-86v72h152v-424zM617 214h199v96h-199v-96zM617 153v-99h199v99h-199z" />
    <glyph glyph-name="uni50A9" unicode="&#x50a9;" 
d="M937 78v-67h-316v-74h-67v565q-20 -47 -46 -97l-45 54q43 82 80.5 185.5t57.5 207.5l64 -12q-18 -81 -40 -149h119l-39 130l64 17l38 -147h119v-70h-123v-135h110v-64h-110v-133h110v-64h-110v-147h134zM288 826q-26 -108 -69 -223v-667h-69v509q-37 -73 -68 -119l-31 83
q43 67 90 189.5t76 240.5zM483 670q-19 -201 -59 -350l12 -29q80 -195 90 -220l-58 -37q-8 22 -13 33q-23 64 -61 156q-42 -124 -110 -253l-50 59q75 136 120 295q-72 176 -99 238l55 28l70 -164q24 116 36 246h-131v74h198v-76zM621 486h116v135h-116v-135zM621 289h116
v133h-116v-133zM737 225h-116v-147h116v147z" />
    <glyph glyph-name="uni50AC" unicode="&#x50ac;" 
d="M831 805h70v-179h-542v179h68v-113h169v152h68v-152h167v113zM309 820q-30 -112 -72 -215v-673h-71v519q-45 -85 -94 -153l-23 98q50 74 101.5 196.5t84.5 247.5zM940 52v-61h-489v-59h-71v420q-40 -55 -90 -111l-36 71q63 62 106.5 132t73.5 152l64 -17q-18 -47 -34 -82
h189q-12 42 -29 88l65 13q16 -44 33 -101h200v-61h-213v-88h200v-60h-200v-87h200v-59h-200v-90h231zM451 348h189v88h-189v-88zM451 201h189v87h-189v-87zM640 142h-189v-90h189v90z" />
    <glyph glyph-name="uni50B2" unicode="&#x50b2;" 
d="M901 -63q-87 91 -141 191q-56 -96 -154 -198l-46 56q107 107 164 215q-53 125 -69 273q-4 -7 -9 -16t-11 -19l-53 43q45 72 78 174t47 194l65 -12q-14 -79 -39 -161h207v-70h-47q-11 -126 -33.5 -225t-62.5 -184q54 -106 148 -194zM591 297l-4 -61q-4 -79 -10 -155
q-5 -59 -28.5 -80.5t-79.5 -21.5h-68l-11 57h59q35 0 48 12t18 47q8 92 10 140h-121q-10 -84 -37 -152t-79 -146l-51 52q56 84 80.5 148t29.5 155l5 87h-89v61h151v88h-122v63h122v84h-130v62h130v110h67v-110h136v-62h-136v-84h105v-63h-105v-88h124v-61h-192
q-3 -64 -4 -82h182zM288 823q-30 -117 -67 -211v-679h-65v533q-38 -75 -84 -142l-27 91q49 71 96.5 186.5t78.5 239.5zM761 281q51 128 69 326h-119q-1 -6 -5 -13q7 -184 55 -313z" />
    <glyph glyph-name="uni50BA" unicode="&#x50ba;" 
d="M432 699l-13 -25l82 -71l-31 -48l-79 71q-26 -40 -40 -59q70 -65 79 -74l-36 -42q-30 32 -77 73q-2 -2 -38 -44l-45 54q56 56 109.5 144t81.5 166l59 -19q-10 -31 -24 -64h168v-63q-25 -73 -55.5 -131.5t-71.5 -110.5h246q-47 69 -76.5 160t-46.5 218l64 5q3 -42 9 -79
h221v-66q-15 -27 -52.5 -86t-68.5 -106q56 -79 143 -139l-38 -61q-94 67 -152 150v-62h-258v55q-71 -88 -196 -180l-39 56q108 66 188 166t119 212h-132zM301 822q-32 -118 -72 -224v-667h-67v511q-26 -53 -59 -110l-42 67q48 80 94 198.5t78 243.5zM710 695q20 -77 53 -137
q71 108 88 137h-141zM887 214h-234v-169q0 -40 -7.5 -60.5t-29 -29.5t-64.5 -9h-83l-15 74h72q33 0 43.5 11t10.5 45v138h-240v69h547v-69zM756 194q35 -30 91 -83.5t89 -88.5l-49 -52q-27 31 -82 85.5t-95 92.5zM492 153q-31 -44 -79 -97t-95 -94l-52 52q41 32 91 84t81 95
z" />
    <glyph glyph-name="uni50BB" unicode="&#x50bb;" 
d="M529 384q-101 -70 -225 -129l-31 60q98 41 220 119h-142v331h177q24 54 37 92l72 -15l-31 -77h279v-331h-388zM314 821q-34 -122 -79 -224v-665h-70v523q-41 -74 -80 -129l-35 82q51 70 107 192t87 238zM818 705h-399v-210h399v210zM771 654q-46 -29 -86 -50l100 -54
l-27 -48q-44 25 -131 71q-91 -48 -152 -73l-24 50q53 22 116 54q-65 32 -101 49l27 48l133 -67q80 44 119 68zM721 432q103 -47 225 -110l-27 -57q-51 27 -118 60t-113 53zM842 239q-71 -100 -156 -160q112 -54 255 -76l-26 -69q-182 43 -297 105q-58 -31 -134 -58t-180 -53
l-26 64q159 34 274 88q-61 43 -105 94q-59 -50 -115 -83l-37 59q59 32 128.5 92.5t98.5 108.5l58 -26q-10 -18 -24 -36h286v-50zM620 116q82 49 133 114h-247l-9 -9q50 -58 123 -105z" />
    <glyph glyph-name="uni50CF" unicode="&#x50cf;" 
d="M844.5 148.5q38.5 -55.5 98.5 -109.5l-42 -55q-61 55 -102 117.5t-73 154.5l-48 -27q18 -61 18 -144q0 -79 -31 -110t-106 -31h-89l-12 62h86q34 0 52 8.5t26 29.5t8 61q0 39 -5 65q-122 -122 -331 -206l-29 59q212 73 346 206q-7 19 -18 43q-63 -53 -131.5 -92
t-159.5 -77l-26 55q178 68 289 160q-7 11 -23 33q-39 -27 -95 -50.5t-141 -51.5l-25 58q104 31 164.5 59t93.5 64h-186v154l-49 -36l-33 63q73 50 135.5 113.5t101.5 132.5l67 -24q-6 -12 -36 -59h259v-57l-80 -85h170v-202h-272q-10 -17 -28 -39q43 -54 67 -104
q125 69 202 125l36 -55q-33 -22 -117 -73q30 -80 68.5 -135.5zM303 821q-29 -108 -69 -208v-681h-70v529q-44 -84 -93 -151l-26 86q52 80 102.5 199t83.5 245zM495 716q-42 -48 -83 -84h224l79 84h-220zM418 484h156q16 37 21 94h-177v-94zM822 484v94h-166q-5 -57 -17 -94
h183z" />
    <glyph glyph-name="uni50D6" unicode="&#x50d6;" 
d="M341 638h235v62h-257v62h257v85h73v-85h282v-62h-282v-62h245v-59h-553v59zM308 824q-34 -118 -71 -213v-681h-71v519q-26 -54 -70 -130l-34 76q50 89 94.5 206.5t80.5 243.5zM939 272v-59h-648v59h183q-5 24 -23 81h-92v173h504v-173h-95q-5 -18 -25 -81h196zM794 472
h-366v-66h366v66zM700 353h-182l21 -81h136zM422 -71h-72v231h521v-231h-72v42h-377v-42zM799 26v78h-377v-78h377z" />
    <glyph glyph-name="uni50DA" unicode="&#x50da;" 
d="M840 184h-192v-143q0 -40 -7.5 -61t-28.5 -29.5t-64 -8.5h-82l-14 69h73q30 0 41.5 11.5t11.5 42.5v119h-190v232q-46 -31 -90 -56l-33 63q92 52 147 100l-98 98l44 44q19 -17 48.5 -45.5t51.5 -52.5q48 54 78 120h-223v66h247q12 40 22 96l73 -4q-10 -57 -20 -92h299
v-66h-250q31 -64 83 -119q60 50 104 92l46 -46q-56 -51 -102 -89q55 -45 137 -84l-33 -65q-40 19 -79 45v-237zM309 821q-34 -121 -77 -222v-664h-65v528q-34 -63 -81 -134l-35 80q48 71 101.5 191.5t86.5 237.5zM612 687q-42 -108 -123 -188h255q-80 80 -128 188h-4z
M450 371h324v68h-324v-68zM774 311h-324v-69h324v69zM483 119q-52 -60 -174 -162l-45 58q43 32 90.5 74.5t80.5 79.5zM758 167q83 -66 181 -155l-44 -57q-56 58 -180 159z" />
    <glyph glyph-name="uni50E6" unicode="&#x50e6;" 
d="M931 526h-195q-3 -153 -18 -256t-47 -181t-88 -157l-55 45q55 79 84 147.5t42 160t17 241.5h-68v69h69l3 249h63l-1 -249h194v-69zM482 722h125v-70h-326v70h134l-29 107l67 14zM277 819q-28 -107 -63 -205v-675h-66v515q-30 -60 -60 -110l-39 70q46 78 88 189.5
t76 238.5zM874 653q-39 65 -90 140l49 32q45 -60 93 -138zM572 322h-95v-268q0 -41 -10 -63.5t-33 -31.5t-64 -9h-41l-13 68h38q25 0 37 4.5t16 15.5t4 35v249h-106v247h267v-247zM511 508h-144v-129h144v129zM942 217l-4 -179q-2 -77 -78 -77h-24q-38 0 -55.5 17t-17.5 58
v448h60v-415q0 -25 4 -32t19 -7h14q13 0 19 9t7 33l1 154zM565 125q-49 91 -72 127l48 31q14 -22 48 -82l26 -44zM376 256q-35 -119 -87 -225l-56 24q55 108 87 220z" />
    <glyph glyph-name="uni50E7" unicode="&#x50e7;" 
d="M899 726v-327h-572v327h150l-67 95l64 32l86 -127h101q34 43 88 129l65 -29q-23 -40 -66 -100h151zM297 821q-25 -94 -64 -202v-685h-70v516q-39 -81 -66 -130l-36 74q43 88 90 209t77 234zM585 662h-193v-199h193v199zM647 463h187v199h-187v-199zM671 515q58 80 86 127
l48 -31q-42 -70 -85 -128zM464 640q60 -74 90 -121l-49 -37q-20 30 -46 67t-41 55zM438 -68h-71v395h490v-395h-69v48h-350v-48zM788 183v81h-350v-81h350zM438 122v-81h350v81h-350z" />
    <glyph glyph-name="uni50EC" unicode="&#x50ec;" 
d="M306 829q-28 -106 -71 -211v-681h-71v521q-42 -84 -78 -144l-35 86q46 75 98.5 201.5t81.5 246.5zM377 543q-30 -48 -71 -99l-43 58q59 71 107.5 165.5t72.5 178.5l65 -18q-18 -57 -42 -114h187l-40 112l67 20l44 -132h197v-63h-221v-86h204v-60h-204v-85h204v-61h-204
v-85h235v-67h-558v336zM448 565h181v86h-181v-86zM448 420h181v85h-181v-85zM448 274h181v85h-181v-85zM864 172q66 -156 85 -206l-66 -25q-35 90 -83 206zM276 -45q21 43 44 103.5t37 107.5l65 -21q-28 -90 -80 -214zM710 163q42 -135 55 -183l-64 -16q-25 94 -53 182z
M552 155q7 -29 28 -155l6 -36l-67 -12q-9 76 -31 193z" />
    <glyph glyph-name="uni50ED" unicode="&#x50ed;" 
d="M288 823q-29 -110 -63 -203v-684h-69v517q-30 -62 -64 -122l-44 66q47 83 94.5 204.5t76.5 237.5zM466 555q-19 -66 -55.5 -116t-99.5 -99l-40 53q52 39 83 76.5t49 85.5h-106v51l23 92l53 -9l-19 -77h66q11 50 15 117h-126v59h284v-59h-100q-5 -71 -13 -117h113v-57
h-127zM944 483q0 -23 -3 -56q-3 -41 -18.5 -56t-54.5 -15h-46q-31 0 -44.5 16t-13.5 53v80q-21 -45 -54 -83.5t-83 -80.5l-35 52q49 40 79.5 78t48.5 84h-98v51l18 90l50 -9l-14 -75h62q11 45 17 117h-135v59h309v-59h-117q-4 -64 -15 -117h137v-57h-151q-4 -16 -12 -33h45
v-75q0 -23 5 -30.5t21 -7.5h16q20 0 27 7.5t9 30.5l2 49zM523 523v-84l82 55l9 -54l-141 -91l-21 38q10 9 13.5 17.5t3.5 21.5v97h54zM421 -70h-71v389h509v-389h-72v45h-366v-45zM787 178v78h-366v-78h366zM421 120v-83h366v83h-366z" />
    <glyph glyph-name="uni50EE" unicode="&#x50ee;" 
d="M295 602h166l-19 96h-114v58h261l-26 80l78 13l25 -93h237v-58h-111l-19 -96h163v-58h-641v58zM295 829q-31 -117 -64 -208v-684h-71v519q-28 -56 -69 -120l-42 68q48 82 97.5 204t78.5 236zM533 602h170l19 96h-209zM648 87v-65h290v-58h-653v58h292v65h-246v58h246v65
h-228v277h526v-277h-227v-65h245v-58h-245zM577 376v58h-157v-58h157zM648 376h157v58h-157v-58zM420 323v-60h157v60h-157zM648 323v-60h157v60h-157z" />
    <glyph glyph-name="uni50F3" unicode="&#x50f3;" 
d="M284 818q-35 -146 -67 -234v-653h-66v497q-23 -47 -57 -106l-36 80q45 84 86.5 197.5t69.5 233.5zM311 638h170v89h-173v65h607v-65h-201v-89h169v-224h-572v224zM545 638h104v89h-104v-89zM481 578h-107v-103h107v103zM649 578h-104v-103h104v103zM819 475v103h-105
v-103h105zM663 198q50 -54 116 -97.5t159 -82.5l-39 -63q-93 45 -156 88.5t-111 98.5v-208h-68v205q-47 -54 -107.5 -95.5t-149.5 -88.5l-39 63q91 41 151 82.5t107 97.5h-245v64h145q-42 52 -79 89l50 42q34 -34 97 -110l-26 -21h96v127h68v-127h93l-25 22q54 52 96 104
l51 -37q-27 -33 -81 -89h154v-64h-257z" />
    <glyph glyph-name="uni50F5" unicode="&#x50f5;" 
d="M290 830q-31 -124 -70 -226v-668h-69v515q-36 -68 -73 -122l-31 89q45 69 94 190.5t77 236.5zM316 808h607v-60h-607v60zM873 696v-221h-528v221h528zM576 609v43h-161v-43h161zM642 609h162v43h-162v-43zM576 564h-161v-45h161v45zM642 564v-45h162v45h-162zM272 425
h674v-57h-674v57zM878 313v-237h-538v237h538zM576 216v52h-165v-52h165zM642 216h166v52h-166v-52zM576 172h-165v-49h165v49zM642 172v-49h166v49h-166zM273 -37v60h675v-60h-675z" />
    <glyph glyph-name="uni50FB" unicode="&#x50fb;" 
d="M291 835q-32 -132 -74 -236v-660h-66v515q-34 -65 -77 -128l-28 86q45 68 95 193.5t78 243.5zM938 376h-136v-145h132v-69h-132v-230h-67v230h-125v69h125v145h-138v69h83l-31 221h-40v70h136q-20 78 -27 103l68 8q18 -58 29 -111h116v-70h-43l-36 -221h86v-69zM388 480
q-1 -56 -10 -124h200v-337h-163v-75h-62v296q-23 -82 -73 -202l-52 50q38 91 57 149t29.5 129.5t10.5 174.5v245h249v-306h-186zM511 550v167h-123v-167h123zM829 666h-122l30 -221h58zM518 86v200h-103v-200h103z" />
    <glyph glyph-name="uni5106" unicode="&#x5106;" 
d="M271 835q-27 -117 -58 -213v-690h-67v510q-27 -64 -60 -128l-27 95q37 76 78.5 197t66.5 242zM940 608h-44q-10 -148 -28.5 -246t-55.5 -178q47 -96 128 -178l-36 -67q-80 87 -129 177q-53 -87 -153 -185l-42 43q-14 -12 -36.5 -17t-57.5 -5h-90l-13 65h87q43 0 58 13
t16 54q2 69 4 216t1 171h-197q-21 -44 -53 -91h182v-290h-187v282q-10 -14 -32 -42l-46 42q39 46 69.5 103t48.5 117l60 -17q-4 -14 -14 -40h234v-53q39 81 69.5 177t45.5 187l66 -13q-14 -72 -38 -154h183v-71zM266 662v66h81v108h60v-108h98v108h59v-108h100v-66h-100v-67
h-59v67h-98v-64h-60v64h-81zM813 416q14 82 22 192h-101l-20 -55q20 -169 61 -284q24 65 38 147zM739 187q-48 114 -69 263q-16 -36 -25 -54l-31 43q0 -31 -2 -109q-2 -227 -4 -267q-2 -36 -8 -54q91 87 139 178zM431 323h-86v-175h86v175z" />
    <glyph glyph-name="uni5107" unicode="&#x5107;" 
d="M306 828q-33 -131 -76 -242v-654h-67v502q-36 -71 -71 -127l-32 76q49 87 97.5 212t78.5 248zM344 803h544v-213h-544v213zM510 751h-104v-110h104v110zM667 641v110h-99v-110h99zM724 641h104v110h-104v-110zM936 472h-639v58h639v-58zM938 17l-30 -62
q-120 46 -195 104.5t-127 150.5q-40 -39 -83 -70v-132l157 55l6 -61l-228 -82l-25 49q15 9 20.5 17.5t5.5 23.5v86q-71 -44 -149 -80l-31 61q79 31 151 73.5t124 90.5h-169v179h497v-179h-223q35 -60 75 -101q81 47 158 98l36 -51q-73 -46 -146 -87q62 -47 176 -83zM794 366
h-363v-71h363v71z" />
    <glyph glyph-name="uni510B" unicode="&#x510b;" 
d="M937 658v-57h-539v-156h248l-32 74l63 10q20 -49 33 -84h225v-51h-537v-21q0 -110 -9 -184t-27.5 -131.5t-53.5 -125.5l-65 36q37 64 55.5 116.5t26 117.5t7.5 170v208q-22 -19 -48 -39l-37 61q71 57 133 125.5t109 140.5l65 -24q-24 -38 -37 -56h309v-58l-71 -72h182z
M288 833q-31 -125 -62 -217v-681h-68v514q-24 -51 -60 -114l-37 76q47 81 90 199t69 237zM738 731h-263q-30 -40 -62 -73h252zM863 456q-29 21 -74.5 50.5t-81.5 51.5l27 42q75 -45 159 -99zM426 503q33 16 77 44t75 52l33 -40q-61 -48 -153 -100zM887 298h-440v49h440v-49z
M887 204h-440v48h440v-48zM518 -66h-68v223h428v-222h-68v42h-292v-43zM810 30v75h-292v-75h292z" />
    <glyph glyph-name="uni5112" unicode="&#x5112;" 
d="M292 831q-26 -108 -69 -223v-672h-70v511q-36 -72 -73 -129l-30 83q46 85 95.5 209t76.5 235zM573 621h-209v-128h-64v187h273v65h-228v59h529v-59h-233v-65h274v-187h-64v128h-210v-207h-68v207zM398 572h137v-41h-137v41zM680 572h135v-41h-135v41zM535 440h-137v41
h137v-41zM815 440h-135v41h135v-41zM932 323h-300q-15 -48 -24 -75h278v-230q0 -40 -18 -57t-61 -17h-50l-11 60h32q24 0 33 8t9 28v149h-102v-220h-58v220h-103v-221h-59v221h-103v-246h-67v305h207q8 21 24 75h-274v58h647v-58z" />
    <glyph glyph-name="uni5121" unicode="&#x5121;" 
d="M294 831q-33 -128 -80 -247v-648h-67v497q-33 -65 -69 -123l-27 92q43 77 94.5 204t79.5 240zM341 805h517v-345h-517v345zM567 663v81h-157v-81h157zM630 663h159v81h-159v-81zM567 606h-157v-85h157v85zM630 606v-85h159v85h-159zM340 -54h-57v442h292v-441h-54v45
h-181v-46zM619 -54v442h296v-441h-57v45h-184v-46h-55zM406 218v106h-66v-106h66zM455 218h66v106h-66v-106zM743 218v106h-69v-106h69zM791 218h67v106h-67v-106zM406 161h-66v-107h66v107zM455 161v-107h66v107h-66zM743 161h-69v-107h69v107zM791 161v-107h67v107h-67z
" />
    <glyph glyph-name="uni513F" unicode="&#x513f;" 
d="M58 -9q92 71 136.5 131t61.5 141t17 221v346h82v-346q0 -155 -20.5 -249t-70 -163t-147.5 -147zM647 120q0 -45 14.5 -60t55.5 -15h54q33 0 49 6t22.5 21t8.5 46q2 20 4 76t1 77l75 -14q0 -35 -2 -83.5t-4 -83.5q-3 -48 -17.5 -73.5t-44.5 -36.5t-83 -11h-75
q-51 0 -80.5 12t-43.5 41.5t-14 82.5v724h80v-709z" />
    <glyph glyph-name="uni5140" unicode="&#x5140;" 
d="M933 242q0 -32 -1.5 -76.5t-3.5 -76.5q-2 -48 -15 -73t-41.5 -35.5t-81.5 -10.5h-82q-73 0 -103.5 29t-30.5 103v592h-200v-210q0 -159 -19.5 -249t-73.5 -155.5t-165 -138.5l-56 62q100 61 148 117.5t66.5 137.5t18.5 225v211h-224v74h854v-74h-269v-578q0 -41 15 -56
t54 -15h56q33 0 48.5 5t21.5 19t7 45l1 29q4 74 4 113z" />
    <glyph glyph-name="uni5141" unicode="&#x5141;" 
d="M932 227q0 6 -3 -105l-2 -40q-2 -45 -16.5 -70.5t-44.5 -36t-83 -10.5h-95q-70 0 -100.5 29t-30.5 104v346l-172 -8q0 -53 -1 -71q-4 -115 -28 -186t-79.5 -127.5t-165.5 -125.5l-51 69q98 54 148.5 101.5t72 108.5t24.5 160q1 18 1 67l-185 -9l-14 78q101 83 190 178.5
t143 174.5l85 -29q-62 -82 -142.5 -170.5t-150.5 -150.5l500 26q-83 97 -131 146l54 50q49 -49 125 -136t132 -158l-54 -55q-30 38 -64 78l-157 -7v-332q0 -45 15.5 -59.5t58.5 -14.5h56q35 0 51.5 5.5t23.5 20.5t8 47q3 72 3 129z" />
    <glyph glyph-name="uni5143" unicode="&#x5143;" 
d="M148 782h706v-78h-706v78zM934 230q0 -30 -1.5 -71.5t-3.5 -72.5q-4 -46 -17.5 -71t-43 -35.5t-82.5 -10.5h-94q-69 0 -98.5 30t-29.5 103v340h-184q0 -85 -1 -104q-2 -93 -25 -159.5t-78.5 -124.5t-155.5 -118l-54 67q93 50 143 98.5t69 103t22 133.5q1 10 1 51l1 53
h-236v76h867v-76h-290v-322q0 -44 15 -59t57 -15h58q34 0 50 5.5t22.5 20.5t8.5 47q4 92 4 129z" />
    <glyph glyph-name="uni5144" unicode="&#x5144;" 
d="M927 207q0 -29 -7 -138q-3 -42 -16 -65t-41 -32.5t-79 -9.5h-106q-64 0 -89.5 26.5t-25.5 92.5v294h-166l-2 -31q-7 -115 -35.5 -189t-90 -128t-172.5 -105l-41 70q103 46 156.5 90t77 104t28.5 159q0 19 1 30h-157v417h667v-417h-191v-271q0 -41 13.5 -53.5t54.5 -12.5
h66q34 0 50 5t22.5 18t7.5 40l3 122zM755 718h-519v-269h519v269z" />
    <glyph glyph-name="uni5145" unicode="&#x5145;" 
d="M926 193q0 -47 -5 -122q-3 -42 -16 -66.5t-43 -36t-83 -11.5h-103q-45 0 -70.5 10.5t-37 36t-11.5 71.5v282l-146 -8l-3 -39q-9 -102 -38.5 -168t-90.5 -116.5t-172 -102.5l-42 70q99 44 152.5 85t79 95.5t33.5 139.5l3 32l-177 -9l-17 75q113 90 239 234h-300v77h402
l-39 119l83 10l44 -129h349v-77h-441q-50 -60 -107.5 -120t-107.5 -106l447 21q-59 66 -109 116l56 46q47 -46 115.5 -119.5t118.5 -132.5l-57 -55q-19 24 -60 73l-136 -7v-270q0 -37 14 -48.5t54 -11.5h65q34 0 50 4.5t22 16.5t8 37q2 27 3 61t1 58z" />
    <glyph glyph-name="uni5146" unicode="&#x5146;" 
d="M934 186q-2 -22 -4 -66l-2 -45q-2 -46 -14 -69.5t-40 -33t-80 -9.5h-113q-70 0 -97.5 25.5t-27.5 92.5v760h74v-399q52 -29 127 -73.5t124 -75.5l-38 -71q-45 32 -105 70t-108 65v-249q0 -41 14.5 -56t56.5 -15h78q34 0 50 5t22 19t8 45q4 62 4 100zM347 839h74v-417
q0 -142 -25 -228t-86 -146.5t-179 -123.5l-50 68q103 54 157 100.5t78 107.5t29 159l-252 -133l-31 78q17 7 116.5 57t168.5 86v392zM260 473q-49 72 -165 216l60 46q107 -131 167 -214zM888 682q-93 -110 -189 -209l-55 50q41 40 91.5 98t90.5 110z" />
    <glyph glyph-name="uni5148" unicode="&#x5148;" 
d="M935 351h-285v-248q0 -39 15 -53.5t55 -14.5h54q33 0 50 6t24 20t9 40q3 42 3 117l71 -15q0 -22 -1.5 -59t-3.5 -67q-3 -48 -16.5 -72t-42.5 -33.5t-83 -9.5h-92q-47 0 -72 10t-35.5 35.5t-10.5 72.5v271h-166l-1 -21q-6 -107 -33.5 -175.5t-86.5 -120t-167 -106.5
l-48 74q101 45 153.5 86.5t76 97t28.5 145.5l1 20h-261v74h408v183h-222q-32 -74 -76 -145l-70 36q83 116 143 318l73 -18q-17 -63 -39 -118h191v168h79v-168h321v-73h-321v-183h378v-74z" />
    <glyph glyph-name="uni5149" unicode="&#x5149;" 
d="M930 385h-294v-274q0 -39 15 -53.5t56 -14.5h62q34 0 50.5 5t23 19t7.5 42q1 20 1 91v30l73 -13q0 -24 -1 -62.5t-3 -70.5q-3 -49 -16 -74.5t-42 -36t-82 -10.5h-100q-47 0 -73 11.5t-37 38t-11 74.5v298h-166l-1 -24q-7 -115 -32.5 -188t-83.5 -129.5t-166 -112.5
l-59 69q103 49 157 94t78 107t28 163l1 21h-249v77h394v381h77v-381h393v-77zM867 736q-76 -106 -168 -212l-60 50q94 102 166 209zM295 519q-33 45 -82.5 109t-83.5 105l59 46q33 -39 84.5 -103t84.5 -108z" />
    <glyph glyph-name="uni514B" unicode="&#x514b;" 
d="M926 670h-390v-111h292v-300h-192v-169q0 -38 14.5 -50t55.5 -12h65q34 0 50 4.5t22 16.5t7 38q1 24 2.5 60.5t1.5 61.5l69 -18q0 -11 -6 -131q-4 -42 -16.5 -63.5t-39.5 -30t-79 -8.5h-105q-64 0 -89 24.5t-25 86.5v190h-149l-6 -50q-10 -71 -42.5 -120.5t-95.5 -89
t-171 -81.5l-36 74q101 34 155.5 65t80.5 71t35 104l3 27h-167v300h291v111h-389v70h389v108h75v-108h390v-70zM243 330h514v159h-514v-159z" />
    <glyph glyph-name="uni514D" unicode="&#x514d;" 
d="M918 186q0 -88 -5 -136q-2 -36 -13.5 -55.5t-37.5 -28t-73 -8.5h-169q-43 0 -66.5 9.5t-34 33t-10.5 66.5v198h-7q-26 -77 -74 -135t-126 -105.5t-198 -94.5l-41 72q158 56 241 116t120 147h-264v260q-17 -14 -66 -50l-33 67q186 134 295 310l68 -30l-30 -46l-13 -19h362
v-64l-120 -125h221v-303h-263v-175q0 -38 12 -50t51 -12h124q32 0 47.5 4.5t21.5 16.5t8 38t3 57t0 57zM330 690q-52 -64 -118 -122h315l120 122h-317zM230 333h216q15 67 20 167h-236v-167zM773 333v167h-233q-5 -99 -20 -167h253z" />
    <glyph glyph-name="uni5151" unicode="&#x5151;" 
d="M922 185q0 -24 -1.5 -60.5t-3.5 -65.5q-4 -40 -17 -62t-41.5 -31.5t-78.5 -9.5h-105q-65 0 -90.5 24.5t-25.5 86.5v229h-154q-1 -4 -1 -10q-8 -99 -35 -159.5t-87 -104.5t-173 -91l-47 67q104 39 158 76t77 86t28 130v6h-173v377h187q-31 50 -99 143l67 36l16 -22
q63 -89 85 -125l-55 -32h205q34 48 69.5 101t51.5 81l67 -37q-37 -60 -98 -145h187v-377h-196v-202q0 -38 14 -50.5t56 -12.5h60q35 0 51 4.5t22 16.5t7 39q5 95 5 108zM755 599h-522v-228h522v228z" />
    <glyph glyph-name="uni5154" unicode="&#x5154;" 
d="M927 184l-6 -133q-3 -54 -30.5 -75t-96.5 -21h-178q-65 0 -90.5 23t-25.5 86v218h-3q-43 -118 -136.5 -201t-261.5 -154l-37 75q151 62 234 126.5t122 153.5h-266v240q-27 -23 -58 -46l-34 71q82 63 157.5 146t128.5 170l67 -30q-18 -31 -39 -63h371v-66l-117 -119h227
v-303h-283v-194q0 -38 13.5 -50.5t54.5 -12.5h133q33 0 50 5t23.5 18t7.5 40q0 39 3 114zM325 702q-46 -59 -104 -117h302l118 117h-316zM226 354h216q16 63 21 160h-237v-160zM780 354v160h-241q-4 -88 -21 -160h262zM748 96q-80 80 -121 113l45 52q79 -66 125 -111z" />
    <glyph glyph-name="uni5155" unicode="&#x5155;" 
d="M927 201q0 -39 -8 -124q-5 -44 -18 -67t-40.5 -32.5t-77.5 -9.5h-101q-65 0 -90 27t-25 94v227h-155l-3 -31q-13 -102 -42.5 -163.5t-89.5 -106t-170 -89.5l-37 75q97 38 152 77.5t79.5 88.5t29.5 119l2 30h-210v489h306v-211h143v211h304v-489h-231v-204q0 -41 14 -54.5
t55 -13.5h55q35 0 51.5 5t22.5 18.5t7 40.5l1 30q1 17 2 39t1 41zM355 735h-155v-345h599v345h-152v-210h-292v210z" />
    <glyph glyph-name="uni5156" unicode="&#x5156;" 
d="M572 740h344v-68h-830v68h399l-47 97l74 25zM402 598q-54 -42 -138 -92.5t-157 -85.5l-34 70q73 32 157.5 79.5t132.5 84.5zM639 652q65 -37 148 -87t132 -82l-38 -68q-148 97 -279 178zM921 180q0 -23 -1.5 -55t-3.5 -54q-4 -44 -17.5 -68t-42.5 -34t-82 -10h-98
q-69 0 -97.5 25.5t-28.5 93.5v187l-144 -5v-1q-3 -89 -30 -145t-91 -97.5t-184 -85.5l-38 68q115 38 168.5 69t73.5 72.5t24 117.5l-163 -5l-15 67q71 35 162 104.5t156 135.5l58 -44q-122 -114 -252 -195l396 12l-108 94l46 53q89 -73 233 -198l-48 -59l-20 18l-33 29
l-118 -3v-168q0 -41 13.5 -54t54.5 -13h78q33 0 48.5 5t21.5 17.5t8 41.5q4 48 4 100z" />
    <glyph glyph-name="uni515A" unicode="&#x515a;" 
d="M168 595v-143h-74v214h204q-68 79 -110 121l55 42q43 -43 118 -128l-43 -35h146v186h72v-186h144l-39 33q28 28 62 65.5t55 64.5l58 -39q-43 -52 -111 -124h199v-214h-74v143h-662zM916 170q0 -19 -5 -119q-3 -39 -15.5 -60t-39 -30t-75.5 -9h-110q-61 0 -86.5 23.5
t-25.5 79.5v159h-156q-2 -33 -4 -42q-12 -66 -48 -111.5t-94.5 -76.5t-147.5 -60l-32 74q79 21 126.5 41t78.5 53.5t42 86.5q2 6 3.5 17.5t2.5 17.5h-114v279h572v-279h-157v-133q0 -35 13.5 -46t54.5 -11h67q33 0 48.5 4t22 15.5t7.5 35.5l3 106zM716 425h-428v-144h428
v144z" />
    <glyph glyph-name="uni515C" unicode="&#x515c;" 
d="M667 752v-448h-331v448h107q20 68 27 102l75 -6q-5 -25 -25 -96h147zM314 352l-181 -90l-34 64q15 10 19.5 17t4.5 19v367q40 10 91 26.5t80 29.5l23 -69q-40 -18 -122 -42v-298l109 54zM696 751h186v-450h-186v73h115v303h-115v74zM597 561v125h-191v-125h191zM406 496
v-122h191v122h-191zM938 187l-6 -123q-2 -43 -15 -66t-39.5 -32t-73.5 -9h-134q-60 0 -84.5 22.5t-24.5 84.5v196h72v-167q0 -39 13.5 -51t55.5 -12h86q30 0 45 4.5t21.5 17.5t7.5 40l1 29q4 60 4 85zM326 259h76q-1 -31 -3 -51q-6 -68 -33 -115t-90.5 -85.5t-179.5 -76.5
l-37 69q106 32 162.5 63.5t78 65.5t24.5 82q0 17 2 48z" />
    <glyph glyph-name="uni5162" unicode="&#x5162;" 
d="M495 180l22 -65l-191 -149l-43 54q18 15 25.5 27.5t7.5 29.5v216h-76l-2 -42q-3 -74 -17 -126.5t-39 -95t-70 -97.5l-53 52q43 48 64.5 82t33 77t14.5 110l2 40h-69v275h136v109h-167v67h167v105h72v-105h154v-67h-154v-109h138v-275h-67v-203zM940 188l-4 -137
q-2 -35 -10 -53t-26 -25t-51 -8l-41 -1q-43 0 -62 20t-19 68v241h-71l-2 -43q-4 -72 -20 -125t-51 -99.5t-97 -94.5l-47 57q59 41 90.5 79t44.5 82t16 109l1 35h-66v275h142v109h-161v67h161v105h71v-105h186v-67h-186v-109h146v-275h-88v-217q0 -26 7.5 -34.5t28.5 -8.5h15
q22 0 28 8.5t7 34.5q2 42 2 126zM383 503h-212v-146h212v146zM817 503h-225v-146h225v146z" />
    <glyph glyph-name="uni5165" unicode="&#x5165;" 
d="M656 315q95 -168 285 -299l-54 -70q-157 116 -249.5 247t-136.5 306q-92 -300 -391 -552l-57 66q365 289 412 677q-8 19 -28.5 27t-58.5 8h-137v80h167q63 0 93.5 -23t36.5 -77q23 -222 118 -390z" />
    <glyph glyph-name="uni5168" unicode="&#x5168;" 
d="M539 214v-166h381v-72h-839v72h378v166h-289v74h289v148h-243v67q-45 -30 -126 -75l-36 73q146 75 245.5 157t165.5 182h70q131 -199 409 -337l-38 -69q-63 31 -121 69v-67h-246v-148h292v-74h-292zM226 509h549q-172 112 -274 254q-97 -135 -275 -254z" />
    <glyph glyph-name="uni516B" unicode="&#x516b;" 
d="M659 833q6 -217 33 -355t86.5 -244.5t170.5 -219.5l-66 -68q-116 130 -177.5 246t-89.5 262.5t-36 378.5h79zM50 4q108 125 163 228t80 234t33 347h79q-11 -233 -36.5 -370.5t-82.5 -247.5t-170 -248z" />
    <glyph glyph-name="uni516C" unicode="&#x516c;" 
d="M635 843q56 -156 126.5 -254.5t184.5 -184.5l-49 -66q-120 95 -197.5 204t-134.5 275zM434 803q-109 -270 -332 -469l-48 64q217 192 309 431zM638 323q47 -67 113.5 -169.5t117.5 -183.5l-67 -44q-29 52 -51 87l-587 -37l-22 74q183 198 310 455l76 -30
q-54 -105 -126 -215.5t-146 -203.5l451 28q-84 132 -131 200z" />
    <glyph glyph-name="uni516D" unicode="&#x516d;" 
d="M479 850q19 -30 45.5 -75.5t38.5 -66.5l34 -58l-77 -36q-29 56 -103 180q-5 7 -13 21zM73 594h855v-78h-855v78zM657 426q58 -90 138.5 -223.5t124.5 -214.5l-74 -44q-42 82 -117.5 209.5t-141.5 231.5zM76 -12q71 84 139.5 201t117.5 229l78 -28q-56 -121 -126.5 -242
t-140.5 -209z" />
    <glyph glyph-name="uni516E" unicode="&#x516e;" 
d="M769 474h-413l-28 -147h446l-24 -229q-6 -59 -24.5 -89.5t-57 -43.5t-108.5 -13h-197l-15 77h191q54 0 79 6.5t34 22.5t14 52q5 33 9.5 75l7.5 70h-448l41 219h-56v45q-54 -50 -119 -92l-42 67q93 58 173 148t133 196l69 -32q-67 -142 -186 -260h492q-118 115 -193 272
l70 29q57 -116 136.5 -202t186.5 -150l-44 -70q-73 45 -127 94v-45z" />
    <glyph glyph-name="uni5170" unicode="&#x5170;" 
d="M895 635v-77h-791v77h246q-24 37 -63.5 88.5t-67.5 84.5l65 44q25 -30 65 -82t72 -95l-51 -40h181q46 60 91 126t62 102l77 -46q-26 -38 -114 -160l-16 -22h244zM832 363v-76h-666v76h666zM62 -8v77h872v-77h-872z" />
    <glyph glyph-name="uni5171" unicode="&#x5171;" 
d="M714 586v-250h222v-78h-876v78h214v250h-185v76h185v189h81v-189h280v189h79v-189h193v-76h-193zM635 586h-280v-250h280v250zM69 2q65 35 147.5 95.5t149.5 119.5l51 -61q-61 -52 -148 -114.5t-156 -105.5zM625 217q60 -39 151 -104.5t146 -108.5l-50 -64
q-58 48 -146.5 112.5t-147.5 101.5z" />
    <glyph glyph-name="uni5173" unicode="&#x5173;" 
d="M543 317q41 -109 139.5 -187t251.5 -119l-37 -78q-144 42 -245.5 120t-153.5 186q-89 -188 -398 -309l-40 74q184 69 273 147t112 166h-373v77h382v1v179h-337v74h229q-24 33 -69 93t-57 73l64 42q24 -30 64 -81t65 -84l-64 -43h196q39 48 87 113t74 104l70 -43
q-52 -74 -133 -174h228v-74h-337l-1 -174v-6h386v-77h-376z" />
    <glyph glyph-name="uni5174" unicode="&#x5174;" 
d="M479 825q23 -72 50.5 -165.5t44.5 -158.5l-77 -19q-17 75 -77 275l-14 47zM655 484q42 73 84.5 156.5t69.5 150.5l69 -36q-47 -104 -159 -310zM191 787q72 -141 150 -300l-72 -37l-17 37q-32 69 -68.5 146t-60.5 119zM60 396h879v-77h-879v77zM75 3q66 47 144 119
t137 139l56 -57q-54 -63 -135 -138.5t-150 -129.5zM632 260q52 -43 136 -119t149 -138l-58 -63q-60 60 -142.5 136t-139.5 124z" />
    <glyph glyph-name="uni5175" unicode="&#x5175;" 
d="M717 281h226v-74h-884v74h163v475q374 21 610 68l14 -72q-106 -23 -254 -41t-293 -25v-133h613v-72h-195v-200zM640 481h-341v-200h341v200zM625 182l301 -181l-43 -70q-57 39 -146 94.5t-154 93.5zM73 0q61 28 154 83.5t149 97.5l43 -61q-59 -45 -148.5 -99.5
t-160.5 -90.5z" />
    <glyph glyph-name="uni5176" unicode="&#x5176;" 
d="M773 669v-432h166v-69h-878v69h166v432h-146v68h146v107h74v-107h398v107h74v-107h146v-68h-146zM699 569v100h-398v-100h398zM699 502h-398v-99h398v99zM699 337h-398v-100h398v100zM76 -7q155 60 305 151l34 -64q-165 -92 -309 -155zM608 141q59 -25 155.5 -71
t156.5 -76l-35 -65q-58 32 -146.5 74t-161.5 74z" />
    <glyph glyph-name="uni5177" unicode="&#x5177;" 
d="M812 799v-574h123v-69h-871v69h124v574h624zM736 653v78h-473v-78h473zM263 511h473v78h-473v-78zM736 369v78h-473v-78h473zM736 305h-473v-80h473v80zM67 -7q84 27 167.5 63.5t148.5 74.5l38 -59q-100 -60 -327 -145zM602 131q61 -22 249 -99l74 -30l-33 -66
q-99 46 -297 126l-21 9z" />
    <glyph glyph-name="uni5178" unicode="&#x5178;" 
d="M851 721v-472h85v-72h-870v72h87v472h208v117h71v-117h140v117h70v-117h209zM361 485v162h-136v-162h136zM572 485v162h-140v-162h140zM779 485v162h-137v-162h137zM361 415h-136v-166h136v166zM432 249h140v166h-140v-166zM779 415h-137v-166h137v166zM69 -11
q182 74 318 162l37 -65q-152 -90 -326 -166zM603 146q112 -48 322 -153l-33 -66q-62 34 -151.5 77t-166.5 76z" />
    <glyph glyph-name="uni5179" unicode="&#x5179;" 
d="M719 622q-51 -92 -172 -249l172 10q53 79 85 138l66 -32q-43 -78 -135 -208.5t-167 -225.5l228 16q-24 57 -64 145l64 30q37 -81 121 -278l-69 -30q-9 28 -26 68l-310 -23q8 -22 8 -21l-71 -26l-15 45q-4 9 -10 27l-315 -25l-20 69q33 37 87 109t109 152l-187 -13l-19 68
q47 53 98 124t83 130h-200v72h287q-21 28 -42 51t-25 28q-35 40 -39 45l66 27q24 -30 38 -46q37 -43 68 -83l-41 -22h206q76 105 107 154l77 -26q-31 -47 -93 -128h270v-72h-220zM468 298l-20 67q50 56 103.5 129t84.5 128h-293q-30 -53 -70.5 -112.5t-96.5 -136.5l156 10
q51 76 83 138l62 -31q-40 -80 -133 -215t-160 -217l216 15l-51 135l67 26l11 -28q33 -88 55 -143q86 103 188 249z" />
    <glyph glyph-name="uni517B" unicode="&#x517b;" 
d="M919 114q-137 43 -227 105v-284h-74v308h42q-59 46 -106 110h-120q-51 -72 -137.5 -130t-219.5 -109l-30 72q105 36 176.5 76t118.5 91h-272v67h321q25 40 40 93h-294v63h309q7 33 14 92h-355v66h224l-21 27q-47 60 -53 67l68 28q12 -12 42.5 -51t54.5 -71h164
q75 89 100 126l68 -28q-26 -35 -80 -98h222v-66h-360q-5 -49 -12 -92h340v-63h-354q-14 -52 -34 -93h455v-67h-288q53 -60 124 -97.5t182 -67.5zM322 240h75q0 -30 -3 -57q-5 -67 -26 -114.5t-63 -83t-114 -66.5l-47 60q94 36 132 82.5t45 123.5z" />
    <glyph glyph-name="uni517C" unicode="&#x517c;" 
d="M827 380v-146h-180q115 -133 287 -204l-35 -71q-169 83 -281 209v-240h-68v306h-144v-306h-69v232q-92 -113 -241 -208l-40 69q167 94 260 213h-194v66h215v80h-279v66h279v79h-207v66h207v87h-263v66h242q-5 6 -45 55l-26 32l67 30q81 -97 97 -117h165q47 63 82 117
l69 -27q-21 -34 -64 -90h255v-66h-298v-87h209v-145h111v-66h-111zM550 678h-144v-87h144v87zM550 525h-144v-79h144v79zM758 446v79h-140v-79h140zM406 380v-80h144v80h-144zM618 380v-80h140v80h-140z" />
    <glyph glyph-name="uni517D" unicode="&#x517d;" 
d="M859 740v-343h-719v343h198l-71 84l64 32l87 -96l-28 -20h186q49 53 92 117l72 -33l-69 -84h188zM466 596v82h-257v-82h257zM535 596h255v82h-255v-82zM466 539h-257v-85h257v85zM535 539v-85h255v85h-255zM62 274v61h875v-61h-875zM247 -66h-72v275h649v-275h-71v47
h-506v-47zM753 41v107h-506v-107h506z" />
    <glyph glyph-name="uni5180" unicode="&#x5180;" 
d="M80 602l-6 58l291 29v46h-268v51h268v68h72v-261h-72v40zM637 600q-47 0 -65 18.5t-18 67.5v168h71v-85q182 36 252 61l17 -59q-44 -12 -122 -30t-147 -32v-10q0 -29 10.5 -38t41.5 -9h111q38 0 50 9t14 39l3 45l64 -12l-5 -57q-5 -32 -15 -48t-30.5 -22t-59.5 -6h-172z
M697 202v-68h235v-52h-865v52h237v68h-193v51h193v60h-143v248h678v-248h-142v-60h192v-51h-192zM463 462v51h-228v-51h228zM535 462h228v51h-228v-51zM463 412h-228v-51h228v51zM535 412v-51h228v51h-228zM623 313h-246v-60h246v60zM623 202h-246v-68h246v68zM88 -2
q85 12 169.5 30.5t139.5 37.5l25 -60q-63 -21 -153.5 -43t-162.5 -30zM594 63q201 -36 318 -68l-20 -64q-65 18 -160 40t-157 34z" />
    <glyph glyph-name="uni5181" unicode="&#x5181;" 
d="M173 697q-14 23 -40.5 67t-36.5 57l52 30q22 -30 78 -125zM414 112h-136v-177h-60v177h-152v66h152v95h-125v416h156q23 36 48.5 81t40.5 78l60 -23q-26 -51 -78 -136h81v-416h-123v-95h136v-66zM940 16l-32 -62q-88 48 -142 115t-87 177h-48v-226l102 52l13 -57
l-169 -86l-28 53q13 8 19 16.5t6 21.5v226h-52q-7 -94 -26.5 -162t-57.5 -145l-63 31q37 68 56.5 127t27.5 138t8 208v349h440v-216h-380v-106h93v84h57v-84h98v84h55v-84h85v-60h-85v-105h106v-59h-199q17 -52 44 -96q44 33 102 84l36 -47q-39 -35 -104 -83q49 -56 125 -88
zM847 637v94h-320v-94h320zM221 512v111h-73v-111h73zM276 512h70v111h-70v-111zM221 448h-73v-109h73v109zM276 448v-109h70v109h-70zM527 406q0 -39 -2 -101h95v105h-93v-4zM775 305v105h-98v-105h98z" />
    <glyph glyph-name="uni5182" unicode="&#x5182;" 
d="M877 79q0 -51 -12.5 -78.5t-41 -39t-81.5 -11.5h-153l-17 84h138q35 0 53 6.5t25 22.5t7 48v593h-592v-759h-81v839h755v-705z" />
    <glyph glyph-name="uni5185" unicode="&#x5185;" 
d="M872 690v-619q0 -50 -11 -75.5t-39 -35t-82 -9.5h-126l-15 76h118q36 0 52.5 5t22 19t5.5 45v518h-259q-2 -76 -16 -137q66 -64 246 -250l-53 -60q-79 86 -221 232q-29 -64 -81 -124.5t-134 -125.5l-50 65q90 70 140 130t71 123t23 147h-259v-673h-76v749h335v153h75
v-153h334z" />
    <glyph glyph-name="uni5188" unicode="&#x5188;" 
d="M121 790h761v-700q0 -58 -13 -87.5t-43 -40.5t-88 -11h-124l-14 76h115q40 0 58.5 6t25 23.5t6.5 55.5v604h-607v-775h-77v849zM687 100q-79 94 -183 214q-113 -127 -223 -221l-48 61q116 98 221 215q-129 145 -202 223l53 48q97 -101 198 -214q91 110 163 226l63 -43
q-77 -119 -176 -238q82 -90 192 -217z" />
    <glyph glyph-name="uni5189" unicode="&#x5189;" 
d="M938 275v-73h-88v-133q0 -47 -12.5 -72.5t-40 -36.5t-77.5 -11h-117l-15 77h109q45 0 60.5 13.5t15.5 53.5v109h-546v-263h-77v263h-88v73h88v445h313v123h74v-123h313v-445h88zM463 497v152h-236v-152h236zM773 497v152h-236v-152h236zM463 428h-236v-153h236v153z
M537 428v-153h236v153h-236z" />
    <glyph glyph-name="uni518C" unicode="&#x518c;" 
d="M949 454v-68h-103v-326q0 -44 -10 -67t-34 -32t-70 -9h-82l-14 75h74q29 0 42.5 5t18.5 17.5t5 38.5v298h-148q-1 -122 -9.5 -197t-28 -132.5t-57.5 -128.5l-65 45q36 63 53.5 112.5t25.5 117.5t10 183h-112v-310q0 -63 -26.5 -88t-92.5 -25h-76l-14 71h73q38 0 52 12.5
t14 47.5v292h-139q-1 -124 -10.5 -198.5t-31.5 -132t-67 -125.5l-67 39q43 64 64.5 114.5t31 118.5t11.5 184h-115v68h115v1v337h278v-338h112v1v337h289v-338h103zM236 720v-266h139v266h-139zM628 720v-266h148v266h-148z" />
    <glyph glyph-name="uni518D" unicode="&#x518d;" 
d="M938 242v-71h-111v-104q0 -48 -12 -73t-40 -35t-82 -10h-113l-12 75h103q36 0 53 5.5t23 19.5t6 44v78h-505v-232h-73v232h-113v71h113v370h289v104h-376v68h827v-68h-378v-104h290v-370h111zM464 427v117h-216v-117h216zM753 427v117h-216v-117h216zM464 359h-216v-117
h216v117zM537 359v-117h216v117h-216z" />
    <glyph glyph-name="uni5192" unicode="&#x5192;" 
d="M116 482v320h756v-320h-77v257h-602v-257h-77zM257 675h475v-57h-475v57zM732 495h-475v57h475v-57zM252 -70h-74v502h631v-499h-75v52h-482v-55zM734 301v74h-482v-74h482zM252 245v-74h482v74h-482zM252 115v-73h482v73h-482z" />
    <glyph glyph-name="uni5195" unicode="&#x5195;" 
d="M797 748h-596v-212h-77v273h749v-274h-76v213zM275 700h448v-53h-448v53zM723 547h-448v54h448v-54zM928 116l-5 -73q-3 -36 -13.5 -54.5t-33.5 -26t-68 -7.5h-178q-59 0 -83.5 21t-24.5 77v113h-7q-24 -57 -72.5 -98.5t-131 -75t-214.5 -65.5l-26 70q163 35 245 73.5
t117 95.5h-259v153q-25 -16 -63 -37l-34 57q78 43 147.5 96.5t118.5 106.5l62 -27l-27 -30h366v-49l-78 -68h186v-202h-257v-88q0 -34 13 -46.5t48 -12.5h129q31 0 46 5t20.5 17t6.5 35l3 57zM322 429q-28 -26 -74 -61h322l76 61h-324zM245 224h212q9 29 16 87h-228v-87z
M780 224v87h-231q-7 -56 -15 -87h246z" />
    <glyph glyph-name="uni5196" unicode="&#x5196;" 
d="M98 757h805v-252h-82v171h-641v-172h-82v253z" />
    <glyph glyph-name="uni5197" unicode="&#x5197;" 
d="M102 778h787v-250h-81v176h-626v-176h-80v250zM60 -3q90 47 134 90.5t60 98.5t16 147v188h413v-422q0 -37 11 -48.5t42 -11.5h49q36 0 47 11t14 47q3 35 5 81.5t2 79.5l75 -17q-1 -35 -4 -84t-6 -86q-4 -62 -31 -84.5t-92 -22.5h-85q-55 0 -79 25t-24 87v369h-259v-119
q0 -103 -17 -167t-68 -117t-154 -109z" />
    <glyph glyph-name="uni5199" unicode="&#x5199;" 
d="M102 585v204h800v-200h-77v127h-646v-131h-77zM314 505l-13 -124h551q-1 -12 -3 -56q-10 -198 -13 -222q-5 -56 -23 -88t-54.5 -46.5t-98.5 -14.5h-150l-14 71h142q62 0 88 21t32 75q3 35 6.5 93.5t5.5 95.5h-553l38 359h76l-10 -96h471v-68h-478zM76 202h615v-72h-615
v72z" />
    <glyph glyph-name="uni519B" unicode="&#x519b;" 
d="M825 722h-641v-95h-74v163h789v-163h-74v95zM942 151v-70h-375v-151h-75v151h-430v70h430v127h-310v70q49 62 110 164h-188v69h229q31 55 62 118l73 -23q-15 -31 -49 -95h480v-69h-518q-63 -106 -104 -164h215v117h75v-117h295v-70h-295v-127h375z" />
    <glyph glyph-name="uni519C" unicode="&#x519c;" 
d="M780 171q71 -51 167 -93l-48 -73q-122 62 -204 130.5t-137.5 158.5t-95.5 217q-45 -93 -108 -169v-299l221 94l15 -79l-317 -131l-33 71q24 14 31.5 28t7.5 32v204q-80 -75 -191 -149l-41 74q165 103 255.5 215t130.5 255h-242v-149h-74v221h332q12 60 18 127l83 -7
q-8 -68 -19 -120h348v-200h-71v128h-293l-11 -37q39 -161 107 -270q95 69 186 154l51 -66q-118 -96 -192 -151q53 -65 124 -116z" />
    <glyph glyph-name="uni51A0" unicode="&#x51a0;" 
d="M822 721h-654v-102h-74v175h803v-169h-75v96zM595 98l-13 65h87q27 0 40 5t17.5 16.5t4.5 35.5v249h-230v71h230v95h72v-95h122v-71h-122v-265q0 -41 -11 -64t-36 -32.5t-70 -9.5h-91zM463 518h-338v70h338v-70zM587 432q47 -71 96 -154l-57 -33q-39 69 -93 156zM936 196
q-1 -34 -9 -129q-3 -41 -17.5 -64.5t-46 -34t-87.5 -10.5h-309q-49 0 -75.5 10.5t-38 37t-11.5 75.5v253h-90v-41q-2 -88 -15.5 -148.5t-44 -110t-85.5 -102.5l-58 47q56 56 83.5 100t37 91t11.5 125l1 39h-107v73h423v-73h-82v-229q0 -33 5.5 -49t19.5 -22t45 -6h280
q51 0 70 15t23 58q2 17 6 113z" />
    <glyph glyph-name="uni51A2" unicode="&#x51a2;" 
d="M822 724h-641v-135h-78v206h797v-206h-78v135zM801.5 188q59.5 -71 153.5 -131l-48 -60q-91 65 -155 145t-105 182l-55 -33q19 -72 19 -163q0 -68 -16 -106t-54 -55t-106 -17h-89l-13 71h86q49 0 74 9.5t35.5 34t10.5 72.5q0 46 -6 86q-100 -83 -205 -143t-248 -113
l-27 70q143 53 261.5 119.5t199.5 139.5q-11 32 -27 60q-60 -44 -132 -85q30 -47 31 -48l-54 -37q-31 50 -34 54q-96 -48 -207 -88l-22 68q98 32 192 76q-13 21 -34 50l53 35l39 -56q73 39 134 83q-26 34 -44 53q-131 -68 -313 -126l-24 71q238 66 376 151h-242v66h590v-66
h-226q-59 -39 -95 -59q60 -66 92 -137q138 74 252 161l38 -59q-66 -50 -152 -104q37 -100 96.5 -171z" />
    <glyph glyph-name="uni51A4" unicode="&#x51a4;" 
d="M813 729h-637v-128h-74v197h785v-198h-74v129zM932 170q0 -13 -5 -113q-3 -55 -32 -78t-97 -23h-176q-64 0 -89 23t-25 87v146q-27 -66 -77 -115t-131 -89t-206 -79l-29 75q113 33 185 64.5t116.5 69.5t67.5 89h-262v181q-38 -28 -58 -41l-39 62q80 52 161 129.5
t129 146.5l72 -24q-20 -29 -42 -57h348v-56l-108 -96h215v-245h-272v-140q0 -39 14 -52t54 -13h134q31 0 47.5 5.5t23.5 19t9 40.5q1 19 2 48.5t1 49.5zM343 562q-42 -46 -92 -90h279l105 90h-292zM244 291h212q12 51 15 116h-227v-116zM778 291v116h-232q-4 -63 -15 -116
h247zM765 74q-52 46 -120 95l43 50q55 -40 118 -92z" />
    <glyph glyph-name="uni51A5" unicode="&#x51a5;" 
d="M826 725h-652v-94h-76v160h803v-160h-75v94zM527 311l27 -88h381v-67h-869v67h407l-26 88h-249v323h603v-323h-274zM727 503v68h-456v-68h456zM727 442h-456v-69h456v69zM85 0q67 23 160.5 66t151.5 77l36 -68q-69 -36 -160 -79t-158 -69zM600 141l310 -144l-33 -69
q-63 32 -154.5 75.5t-151.5 69.5z" />
    <glyph glyph-name="uni51AB" unicode="&#x51ab;" 
d="M151 807q38 -38 98.5 -107.5t100.5 -119.5l-61 -55q-37 49 -96 118.5t-100 110.5zM79 17q31 46 111 183t110 194l45 -27l27 -17l-110 -190q-95 -166 -110 -191z" />
    <glyph glyph-name="uni51AC" unicode="&#x51ac;" 
d="M946 347l-26 -78q-131 32 -232.5 69.5t-183.5 84.5q-167 -92 -418 -166l-28 74q216 57 374 137q-90 62 -170 150q-67 -74 -142 -133l-43 58q74 59 150 149.5t120 168.5l74 -28q-20 -35 -50 -78h453v-70q-111 -131 -251 -220q143 -71 373 -118zM501 505q137 80 221 181
h-402l-9 -11q84 -103 190 -170zM309 320l398 -94l-14 -74q-79 21 -194.5 48.5t-204.5 47.5zM199 140q110 -23 211 -45q134 -29 226 -48.5t141 -29.5l-19 -75q-102 24 -273.5 62t-301.5 65z" />
    <glyph glyph-name="uni51AF" unicode="&#x51af;" 
d="M224 492q-26 56 -73 147t-73 134l64 31q29 -48 76.5 -134.5t75.5 -143.5zM784 421h117q-3 -57 -9 -161.5t-10 -161.5q-5 -61 -21 -91.5t-51.5 -43t-102.5 -12.5h-156l-15 73h148q49 0 74 7t35.5 26t13.5 58q3 43 7.5 116t6.5 115h-446l37 326l77 -7l-30 -244h249l34 297
h-401v73h485zM290 377q-31 -82 -77 -205t-75 -201l-76 30q22 51 81.5 203.5t73.5 198.5zM287 222h470v-72h-470v72z" />
    <glyph glyph-name="uni51B0" unicode="&#x51b0;" 
d="M902 33q-96 103 -159.5 209t-105.5 238v-415q0 -44 -11.5 -69t-39 -35.5t-77.5 -10.5h-101l-14 74h90q47 0 63 13.5t16 55.5v752h74v-147q24 -110 58 -200q104 97 173 177l56 -62q-40 -42 -96.5 -95.5t-102.5 -93.5q42 -93 99 -170t132 -144zM194 491q-19 52 -53 138.5
t-53 130.5l70 25q65 -156 107 -266zM507 604v-75q-24 -153 -78 -270t-157 -234l-63 51q95 105 148.5 214t77.5 240h-140v74h212zM255 388q-17 -61 -61 -205t-65 -202l-73 24q26 69 69 205t57 193z" />
    </font>
</defs>
</svg>
